<?xml version="1.0" standalone="no"?>
<!DOCTYPE svg PUBLIC "-//W3C//DTD SVG 1.1//EN" "http://www.w3.org/Graphics/SVG/1.1/DTD/svg11.dtd" >
<svg xmlns="http://www.w3.org/2000/svg" xmlns:xlink="http://www.w3.org/1999/xlink" version="1.1">
<metadata>
Created by FontForge 20170731 at Thu Nov 26 15:40:42 2020
 By Aleksey,,,
Copyright 2020 The Newsreader Project Authors (http://github.com/productiontype/Newsreader)
</metadata>
<defs>
<font id="Newsreader6pt-Bold" horiz-adv-x="0" >
  <font-face 
    font-family="Newsreader 6pt"
    font-weight="700"
    font-stretch="normal"
    units-per-em="2000"
    panose-1="2 0 0 0 0 0 0 0 0 0"
    ascent="1470"
    descent="-530"
    x-height="1037"
    cap-height="1414"
    bbox="-783 -465 3235 2326"
    underline-thickness="96"
    underline-position="-399"
    unicode-range="U+0020-FB04"
  />
<missing-glyph horiz-adv-x="1000" 
d="M100 -465v2000h800v-2000h-800zM200 -365h600v1800h-600v-1800z" />
    <glyph glyph-name="f_f" unicode="ff" horiz-adv-x="1817" 
d="M772 0h-654v111l138 35v872q0 109 34.5 190t106 133.5t181.5 78.5t260 26q105 0 184 -14.5t143 -51t121 -102.5l-186 -163q-39 57 -106 97.5t-177 40.5q-65 0 -105.5 -16t-59 -52t-18.5 -96v-943l138 -35v-111zM1777 818h-1335l-186 -25l-215 93v81l232 100l193 -30h1311
v-219zM1399 146l158 -35v-111h-674v111l138 35v883q0 123 34.5 210t106 143t181.5 82t260 26q164 0 256.5 -21t130.5 -64.5t38 -108.5q0 -41 -22.5 -78t-61.5 -60t-92 -23q-15 0 -34.5 24.5t-48.5 57t-73 57t-109 24.5q-68 0 -109.5 -18t-60 -55.5t-18.5 -98.5v-980z" />
    <glyph glyph-name="fi" unicode="fi" horiz-adv-x="1597" 
d="M1015 818h-573l-186 -25l-215 93v81l232 100l193 -30h593l249 7h113l-22 -299v-599l135 -35v-111h-651v111l138 35v711zM634 146l138 -35v-111h-654v111l138 35v883q0 123 36 210t110.5 143t189.5 82t272 26q171 0 270 -21t140.5 -64.5t41.5 -109.5q0 -42 -24 -79
t-66 -60.5t-98 -23.5q-17 0 -37.5 25.5t-51.5 58t-77.5 57.5t-114.5 25q-70 0 -117.5 -18t-71.5 -55.5t-24 -98.5v-980z" />
    <glyph glyph-name="fl" unicode="fl" horiz-adv-x="1595" 
d="M634 146l138 -35v-111h-654v111l138 35v883q0 123 36 210t110.5 143t189.5 82t272 26q117 0 201.5 -11.5t155.5 -36.5l-56 2l164 46h94l-24 -266v-1078l135 -35v-111h-651v111l138 35v1096q-33 24 -76 40t-98 16q-70 0 -117.5 -18t-71.5 -55.5t-24 -98.5v-980zM907 1037
v-219h-465l-186 -25l-215 93v81l232 100l193 -30h441z" />
    <glyph glyph-name="f_f_i" unicode="ffi" horiz-adv-x="2361" 
d="M1862 818h-1420l-186 -25l-215 93v81l232 100l193 -30h1358l249 7h112l-21 -299v-599l134 -35v-111h-650v111l137 35v748zM772 0h-654v111l138 35v872q0 109 34.5 190t106 133.5t181.5 78.5t260 26q105 0 184 -14.5t143 -51t121 -102.5l-186 -163q-39 57 -106 97.5
t-177 40.5q-65 0 -105.5 -16t-59 -52t-18.5 -96v-943l138 -35v-111zM1399 146l138 -35v-111h-654v111l138 35v883q0 123 36 210t110.5 143t189 82t271.5 26q172 0 270.5 -21t140.5 -64.5t42 -109.5q0 -42 -24 -79t-66 -60.5t-98 -23.5q-17 0 -37.5 25.5t-51.5 58t-77.5 57.5
t-114.5 25q-70 0 -117.5 -18t-71.5 -55.5t-24 -98.5v-980z" />
    <glyph glyph-name="f_f_l" unicode="ffl" horiz-adv-x="2360" 
d="M1399 146l138 -35v-111h-654v111l138 35v883q0 123 36 210t110.5 143t189 82t271.5 26q118 0 202 -11.5t156 -36.5l-57 2l165 46h93l-23 -266v-1078l134 -35v-111h-650v111l137 35v1096q-32 24 -75 40t-98 16q-70 0 -117.5 -18t-71.5 -55.5t-24 -98.5v-980zM772 0h-654
v111l138 35v872q0 109 34.5 190t106 133.5t181.5 78.5t260 26q105 0 184 -14.5t143 -51t121 -102.5l-186 -163q-39 57 -106 97.5t-177 40.5q-65 0 -105.5 -16t-59 -52t-18.5 -96v-943l138 -35v-111zM1672 1037v-219h-1230l-186 -25l-215 93v81l232 100l193 -30h1206z" />
    <glyph glyph-name=".notdef" horiz-adv-x="1000" 
d="M100 -465v2000h800v-2000h-800zM200 -365h600v1800h-600v-1800z" />
    <glyph glyph-name=".null" 
 />
    <glyph glyph-name="nonmarkingreturn" horiz-adv-x="666" 
 />
    <glyph glyph-name="space" unicode=" " horiz-adv-x="500" 
 />
    <glyph glyph-name="exclam" unicode="!" horiz-adv-x="724" 
d="M591 1339l-3 -81q-1 -24 -8 -71t-17.5 -109.5t-22.5 -134.5t-24 -147t-22.5 -147.5t-16.5 -135.5h-230q-6 63 -16.5 135.5t-22.5 147.5t-24 147t-22.5 134.5t-17.5 109.5t-8 71l-3 81q-2 31 13.5 51.5t65 31t150.5 10.5q102 0 151.5 -10.5t64 -31t13.5 -51.5zM362 368
q105 0 163.5 -50t58.5 -144q0 -95 -58.5 -146.5t-163.5 -51.5t-163.5 51.5t-58.5 146.5q0 94 58.5 144t163.5 50z" />
    <glyph glyph-name="quotedbl" unicode="&#x22;" horiz-adv-x="1015" 
d="M165 834l-55 515v65h332v-65l-55 -515h-222zM629 834l-55 515v65h332v-65l-55 -515h-222z" />
    <glyph glyph-name="numbersign" unicode="#" horiz-adv-x="1462" 
d="M880 0h-167l316 1418h167zM435 0h-167l316 1418h167zM1278 565v-157h-1165v157h1165zM1347 1011v-157h-1160v157h1160z" />
    <glyph glyph-name="dollar" unicode="$" horiz-adv-x="1462" 
d="M494 -227v1867h167v-1867h-167zM821 -227v1867h167v-1867h-167zM601 -26q-111 0 -193.5 12t-136 38t-80 66t-26.5 96q0 66 42.5 113t102.5 47q17 0 46 -27t70.5 -63t95.5 -63t121 -27q88 0 149.5 23t93.5 66.5t32 102.5q0 53 -25 92.5t-99.5 70.5t-223.5 60
q-150 28 -235.5 85.5t-121 140t-35.5 184.5q0 149 71.5 249t217.5 150t367 50q149 0 246 -21.5t144.5 -68.5t47.5 -122q0 -66 -43 -113t-103 -47q-17 0 -46.5 27t-70.5 63t-95 63t-121 27q-130 0 -186.5 -39.5t-56.5 -124.5q0 -43 21.5 -77t92 -63.5t218.5 -58.5
q149 -30 240 -86t132.5 -140.5t41.5 -199.5q0 -164 -76 -271.5t-230 -160.5t-389 -53z" />
    <glyph glyph-name="percent" unicode="%" horiz-adv-x="1932" 
d="M364 0l975 1414h229l-975 -1414h-229zM471 825q69 0 104.5 48t35.5 151q0 80 -15 131t-47 75.5t-83 24.5q-68 0 -103.5 -48t-35.5 -151q0 -80 15 -131t47.5 -75.5t81.5 -24.5zM467 646q-124 0 -213 44t-136.5 131t-47.5 217q0 132 47.5 220t137.5 132t215 44
q124 0 212.5 -44t136.5 -131.5t48 -217.5q0 -132 -47.5 -220t-137 -131.5t-215.5 -43.5zM1466 163q69 0 104.5 48t35.5 151q0 80 -15 131t-47 75.5t-83 24.5q-68 0 -103.5 -48t-35.5 -151q0 -80 15 -131t47.5 -75.5t81.5 -24.5zM1462 -16q-124 0 -213 44t-136.5 131
t-47.5 217q0 132 47.5 220t137.5 132t215 44q124 0 212.5 -44t136.5 -131.5t48 -217.5q0 -132 -47.5 -220t-137 -131.5t-215.5 -43.5z" />
    <glyph glyph-name="ampersand" unicode="&#x26;" horiz-adv-x="1748" 
d="M802 846l-252 -116q-33 -32 -52 -69.5t-27 -79.5t-8 -88q0 -115 32.5 -185.5t106 -102.5t199.5 -32q93 0 167 21.5t132 64.5l64 58q53 64 83 162.5t39 237.5l-142 31v116h554v-116l-138 -31q-86 -156 -165 -273.5t-157 -201.5l-69 -65q-85 -76 -173 -120.5t-186.5 -63.5
t-213.5 -19q-193 0 -307 44.5t-163.5 129.5t-49.5 205q0 113 44.5 194.5t143 136.5t259.5 86l244 123q85 51 124 115.5t39 148.5q0 66 -30 98t-99 32q-70 0 -104.5 -29.5t-34.5 -97.5q0 -33 11 -65t42 -74.5t91 -106.5l693 -742l178 -56v-116h-527l-698 755
q-67 73 -104.5 128.5t-52 106.5t-14.5 110q0 103 50.5 180t165 118.5t306.5 41.5q160 0 261.5 -30.5t150 -90t48.5 -147.5q0 -66 -19.5 -117.5t-69.5 -91t-140.5 -68t-231.5 -49.5z" />
    <glyph glyph-name="quotesingle" unicode="'" horiz-adv-x="551" 
d="M165 834l-55 515v65h332v-65l-55 -515h-222z" />
    <glyph glyph-name="parenleft" unicode="(" horiz-adv-x="758" 
d="M405 622q0 -117 16 -218t51 -189.5t93 -170t143 -161.5l-118 -129q-143 113 -240 219t-155.5 211t-83.5 213t-25 225t25 225.5t83.5 213t155.5 211t240 218.5l118 -128q-85 -80 -143 -161.5t-93 -170.5t-51 -189.5t-16 -218.5z" />
    <glyph glyph-name="parenright" unicode=")" horiz-adv-x="759" 
d="M353 623q0 118 -15.5 218.5t-50.5 189t-93.5 170t-143.5 161.5l119 129q143 -113 240 -219t155 -211t83.5 -213t25.5 -225t-25.5 -225.5t-83.5 -213.5t-155 -211t-240 -219l-119 129q85 80 143.5 161.5t93.5 170.5t50.5 189.5t15.5 218.5z" />
    <glyph glyph-name="asterisk" unicode="*" horiz-adv-x="965" 
d="M695 747l-146 -61l-106 213l-194 -138l-102 121l169 166l-191 142l82 134l212 -109l74 226l155 -38l-40 -234l239 -2l12 -158l-235 -35z" />
    <glyph glyph-name="plus" unicode="+" horiz-adv-x="1140" 
d="M455 971h230v-902h-230v902zM1021 635v-230h-901v230h901z" />
    <glyph glyph-name="comma" unicode="," horiz-adv-x="633" 
d="M58 -276q107 77 152.5 131.5t45.5 119.5q0 43 -24.5 74.5t-57 54.5t-56.5 42.5t-24 39.5q0 91 58 146t156 55q108 0 162.5 -56.5t54.5 -166.5q0 -77 -16.5 -144t-59 -131.5t-118.5 -131.5t-194 -144z" />
    <glyph glyph-name="hyphen" unicode="-" horiz-adv-x="891" 
d="M134 650h623v-256h-623v256z" />
    <glyph glyph-name="period" unicode="." horiz-adv-x="632" 
d="M316 402q99 0 157.5 -57t58.5 -156t-58.5 -156t-157.5 -57t-157.5 57t-58.5 156t58.5 156t157.5 57z" />
    <glyph glyph-name="slash" unicode="/" horiz-adv-x="977" 
d="M52 0l591 1414h284l-591 -1414h-284z" />
    <glyph glyph-name="zero" unicode="0" horiz-adv-x="1462" 
d="M734 218q78 0 126 44.5t70 142t22 254.5q0 161 -13.5 265.5t-41.5 163.5t-70.5 83.5t-99.5 24.5q-78 0 -126 -44.5t-70 -141.5t-22 -255q0 -160 14 -265t42 -164t70 -83.5t99 -24.5zM745 1440q202 0 342.5 -80.5t213 -238t72.5 -387.5q0 -246 -73.5 -415.5t-219 -257
t-363.5 -87.5q-203 0 -342.5 80.5t-212 238t-72.5 387.5q0 246 72.5 415.5t218.5 257t364 87.5z" />
    <glyph glyph-name="one" unicode="1" horiz-adv-x="1462" 
d="M612 190v1114l95 -179l-488 -161l-63 185l550 272h319v-1231l314 -62v-128h-1055v128z" />
    <glyph glyph-name="two" unicode="2" horiz-adv-x="1462" 
d="M944 201l254 322h158l-111 -599h-147l-62 76h-862v181l375 333q102 90 155 157t73 123.5t20 113.5q0 101 -51.5 156.5t-164.5 55.5q-73 0 -125.5 -26.5t-90 -86.5t-66.5 -160l-207 41q61 291 225 421.5t431 130.5q142 0 250 -47t168.5 -137t60.5 -217q0 -77 -22 -142.5
t-76.5 -128.5t-152.5 -133t-251 -156l-429 -277l130 156h829z" />
    <glyph glyph-name="three" unicode="3" horiz-adv-x="1462" 
d="M579 597l-14 197q138 10 208.5 34.5t95.5 67t25 105.5q0 74 -49.5 120.5t-172.5 46.5q-118 0 -192 -52t-116 -172l-193 63q41 141 117 237.5t195.5 146t290.5 49.5q173 0 273 -44.5t142.5 -117t42.5 -157.5q0 -87 -40.5 -156.5t-127 -112.5t-223.5 -51l46 20
q137 0 228.5 -44.5t137.5 -125t46 -188.5q0 -145 -85 -255t-245 -172t-386 -62q-169 0 -264.5 25.5t-135 73t-39.5 111.5q0 74 46.5 120.5t101.5 46.5q15 0 38.5 -18.5t54.5 -45.5t69 -54.5t81.5 -46t91.5 -18.5q104 0 173.5 30.5t104.5 85t35 127.5q0 68 -27 113
t-89.5 65.5t-169.5 12.5z" />
    <glyph glyph-name="four" unicode="4" horiz-adv-x="1462" 
d="M1090 1414v-1238l233 -54v-122h-894v122l248 54v1132l127 -14l-600 -756l-58 98h1048l219 29l-60 -266h-1292l-2 266l575 749h456z" />
    <glyph glyph-name="five" unicode="5" horiz-adv-x="1462" 
d="M564 -26q-166 0 -260 25.5t-133 73t-39 111.5q0 74 46 120.5t101 46.5q15 0 38.5 -18.5t54.5 -45.5t69 -54.5t80.5 -46t90.5 -18.5q106 0 171.5 25t96.5 70t31 106q0 50 -22 89t-87 69t-193.5 54t-340.5 45l191 788h545l314 40l-124 -355h-664l133 170l-122 -436
l-101 107q204 -23 344.5 -54t229.5 -72t137 -93t66 -117t18 -145q0 -111 -43.5 -200.5t-128.5 -153t-210 -97.5t-289 -34z" />
    <glyph glyph-name="six" unicode="6" horiz-adv-x="1462" 
d="M1151 1464l71 -169q-179 -55 -298.5 -111t-193 -119t-110.5 -138t-50 -168t-13 -208q0 -143 24 -219.5t69.5 -105t111.5 -28.5q65 0 106 27t61 76.5t20 117.5q0 135 -50 189t-141 54q-44 0 -79 -11.5t-61.5 -34t-43 -55t-23.5 -77.5l-44 27q24 104 67.5 178t101.5 120
t126 68t141 22q121 0 213 -44.5t143 -135t51 -230.5q0 -171 -79 -286t-218 -172t-317 -57q-213 0 -345.5 73.5t-194.5 207.5t-62 313q0 114 23.5 219.5t85.5 201.5t175.5 181.5t293 159.5t439.5 134z" />
    <glyph glyph-name="seven" unicode="7" horiz-adv-x="1462" 
d="M235 1077l343 163l-253 -421h-175l84 682h114l103 -87h913v-34l-517 -1380h-413l718 1284l12 -207h-929z" />
    <glyph glyph-name="eight" unicode="8" horiz-adv-x="1462" 
d="M767 1440q209 0 324.5 -40.5t161.5 -111t46 -161.5q0 -129 -99.5 -210t-325.5 -81l-112 35q136 31 182.5 77.5t46.5 121.5q0 46 -21 79.5t-76 52t-157 18.5q-136 0 -189.5 -41t-53.5 -111q0 -63 46 -96t122 -50.5t167 -31.5t182 -38t167 -70t122 -128t46 -213
q0 -145 -63.5 -250t-202.5 -161t-365 -56q-219 0 -352 40.5t-192.5 118.5t-59.5 192q0 79 29 140.5t91 104t159 65t233 21.5l97 -26q-122 -16 -185 -46t-84.5 -75t-21.5 -106q0 -63 30 -106.5t96 -65t173 -21.5t167 21.5t84 61.5t24 95q0 67 -45.5 101.5t-120 52.5
t-164 31.5t-179 36t-164 66.5t-120 124.5t-45.5 209.5q0 127 60 224t192.5 151.5t349.5 54.5z" />
    <glyph glyph-name="nine" unicode="9" horiz-adv-x="1462" 
d="M372 -50l-70 169q160 50 267.5 104t173.5 117t100 140t45.5 171.5t11.5 211.5q0 144 -23 220.5t-67 104.5t-110 28q-64 0 -107 -25.5t-64 -73.5t-21 -117q0 -89 23 -142t66.5 -76.5t106.5 -23.5q40 0 74 9.5t61.5 28.5t50 48t39.5 67l29 -22q-25 -96 -71 -165
t-105.5 -114t-129 -66.5t-142.5 -21.5q-121 0 -211.5 45.5t-141 137.5t-50.5 232q0 169 79.5 280.5t218.5 167t317 55.5q213 0 345.5 -73.5t194 -207.5t61.5 -313q0 -114 -22 -220.5t-79.5 -204t-164 -183.5t-274 -158.5t-411.5 -129.5z" />
    <glyph glyph-name="colon" unicode=":" horiz-adv-x="678" 
d="M339 387q99 0 157.5 -55t58.5 -151t-58.5 -150.5t-157.5 -54.5t-157.5 54.5t-58.5 150.5t58.5 151t157.5 55zM339 1061q99 0 157.5 -54.5t58.5 -150.5t-58.5 -151t-157.5 -55t-157.5 55t-58.5 151t58.5 150.5t157.5 54.5z" />
    <glyph glyph-name="semicolon" unicode=";" horiz-adv-x="682" 
d="M87 -276q107 77 152.5 131.5t45.5 119.5q0 43 -24.5 74.5t-57 54.5t-56.5 42.5t-24 39.5q0 91 58 146t156 55q108 0 162.5 -56.5t54.5 -166.5q0 -77 -16.5 -144t-59 -131.5t-118.5 -131.5t-194 -144zM338 1061q99 0 157.5 -54.5t58.5 -150.5t-58.5 -151t-157.5 -55
t-157.5 55t-58.5 151t58.5 150.5t157.5 54.5z" />
    <glyph glyph-name="less" unicode="&#x3c;" horiz-adv-x="1140" 
d="M235 455v136l787 -343v-251l-924 413v219l924 414v-245z" />
    <glyph glyph-name="equal" unicode="=" horiz-adv-x="1140" 
d="M120 844h901v-230h-901v230zM120 426h901v-230h-901v230z" />
    <glyph glyph-name="greater" unicode="&#x3e;" horiz-adv-x="1140" 
d="M905 455l-787 343v245l924 -414v-219l-924 -413v251l787 343v-136z" />
    <glyph glyph-name="question" unicode="?" horiz-adv-x="1413" 
d="M657 1440q182 0 310 -31.5t207.5 -87.5t116 -130t36.5 -158q0 -125 -53.5 -212.5t-177.5 -135t-337 -54.5l91 91l-46 -229h-257l-51 345q159 -5 245.5 11.5t120.5 59t34 115.5q0 52 -27.5 95t-89 69t-163.5 26q-81 0 -140.5 -27.5t-103 -64t-75.5 -64t-59 -27.5
q-54 0 -94.5 19.5t-63 54.5t-22.5 82q0 72 53.5 129t184.5 90.5t361 33.5zM667 368q105 0 163.5 -50t58.5 -144q0 -95 -58.5 -146.5t-163.5 -51.5t-163.5 51.5t-58.5 146.5q0 94 58.5 144t163.5 50z" />
    <glyph glyph-name="at" unicode="@" horiz-adv-x="1926" 
d="M1382 161q-138 0 -216 54.5t-83 152.5q0 28 5 58t16 62l18 50h-25q-59 -106 -108 -177t-94 -112t-92.5 -58t-104.5 -17q-111 0 -177.5 65t-71.5 170q-3 87 23.5 176.5t76 171t115 145t142.5 100.5t157 37q87 0 145.5 -57t92.5 -171l-19 -40q-23 52 -47 73.5t-67 21.5
q-38 0 -79 -27t-78 -72.5t-66.5 -100t-46.5 -110t-15 -102.5q1 -35 18.5 -52t50.5 -17q31 0 65.5 26t69.5 72.5t68 110.5t61 141l44 119l105 163h246l-148 -501q-12 -39 -16 -67.5t-4 -53.5q1 -48 27 -68t81 -20q77 0 139.5 56.5t99.5 154.5t37 224q0 148 -41.5 257.5
t-122.5 182.5t-201 109t-276 36q-197 0 -354 -56.5t-267 -163.5t-168.5 -257.5t-58.5 -338.5q0 -169 47.5 -292t143 -202.5t239 -118t335.5 -38.5q94 0 193.5 18t200.5 54t198 89l53 -102q-104 -60 -212 -100t-225 -60t-248 -20q-214 0 -377 45t-273.5 137.5t-166.5 235.5
t-56 338q0 218 69 393t199.5 298t316.5 188.5t420 65.5q179 0 322 -44t243 -129t153 -209t53 -285q0 -144 -33.5 -257.5t-96 -192.5t-152 -120.5t-202.5 -41.5z" />
    <glyph glyph-name="A" unicode="A" horiz-adv-x="1851" 
d="M447 404v227h743v-227h-743zM1658 176l185 -51v-125h-809v125l170 38l-404 1087h40l-381 -1083l167 -42v-125h-610v125l168 38l480 1258h507z" />
    <glyph glyph-name="B" unicode="B" horiz-adv-x="1667" 
d="M506 1193v221h525q174 0 276.5 -41.5t147.5 -116t45 -175.5q0 -142 -85 -227t-250 -99v19q196 -10 300.5 -109.5t104.5 -261.5q0 -126 -55 -216.5t-176.5 -138.5t-322.5 -48h-510v221h401q79 0 128.5 19.5t73.5 67.5t24 132q0 65 -21.5 110.5t-69.5 69.5t-129 24h-409
l3 196h404q83 0 125.5 42t42.5 141q0 58 -17 95.5t-56.5 56t-109.5 18.5h-390zM102 0v125l175 48v1068l-175 47v126h600v-1414h-600z" />
    <glyph glyph-name="C" unicode="C" horiz-adv-x="1607" 
d="M1026 205q79 0 166 16.5t164 48.5l-199 -151l188 385h157l-49 -448q-108 -41 -233 -61.5t-268 -20.5q-214 0 -373.5 44.5t-265.5 133.5t-158.5 223.5t-52.5 314.5q1 226 92.5 394.5t277 262t467.5 93.5q101 0 197 -15.5t191 -44.5l-106 -11l114 133h145v-590h-185
l-122 367l154 -178q-88 53 -172 74.5t-188 21.5q-115 0 -197 -25.5t-134 -81t-77 -143t-27 -211.5q-2 -140 29 -241t93.5 -165t155.5 -94.5t216 -30.5z" />
    <glyph glyph-name="D" unicode="D" horiz-adv-x="1786" 
d="M1247 722q0 233 -85.5 340t-294.5 107h-355l-35 245h456q248 0 414.5 -77.5t250.5 -228.5t84 -372q0 -239 -94 -403.5t-264 -248.5t-400 -84h-447l35 245h402q115 0 188.5 49t109 154t35.5 274zM100 0v125l177 48v1068l-177 47v126h603v-1414h-603z" />
    <glyph glyph-name="E" unicode="E" horiz-adv-x="1642" 
d="M1146 990v-255v-255h-166l-17 159h-468v196h468l17 155h166zM1507 981h-181l-127 352l127 -140h-831v221h769l112 88h131v-521zM1174 84l203 415h187l-94 -591h-151l-82 92h-742v221h792zM100 0v125l177 48v1068l-177 48v125h603v-1414h-603z" />
    <glyph glyph-name="F" unicode="F" horiz-adv-x="1524" 
d="M1142 921v-271v-272h-165l-17 176h-465v196h465l17 171h165zM1327 1502h131v-550h-182l-127 381l127 -140h-781v221h720zM703 1414v-1241l178 -48v-125h-781v125l177 48v1068l-177 48v125h603z" />
    <glyph glyph-name="G" unicode="G" horiz-adv-x="1749" 
d="M1532 247h117v-124q-101 -45 -217 -79t-238 -52t-242 -18q-214 0 -373.5 44.5t-265.5 133.5t-158.5 223.5t-52.5 314.5q1 226 95 394.5t284.5 262.5t480.5 94q101 0 197 -16t191 -45l-106 -11l114 133h144v-583h-184l-122 360l154 -178q-88 53 -172 74.5t-188 21.5
q-121 0 -207 -25.5t-141 -81t-81.5 -143t-28.5 -211.5q-2 -185 53 -300t166 -168.5t275 -53.5q52 0 100.5 6t96.5 21t98 39l-214 -254v484l-172 55v112h730v-112l-133 -61v-257z" />
    <glyph glyph-name="H" unicode="H" horiz-adv-x="1963" 
d="M703 173l178 -47v-126h-781v125l177 48v1068l-177 47v126h781v-125l-178 -48v-1068zM1686 173l177 -47v-126h-781v125l178 48v1068l-178 47v126h781v-125l-177 -48v-1068zM479 599v246h1006v-246h-1006z" />
    <glyph glyph-name="I" unicode="I" horiz-adv-x="980" 
d="M881 126v-126h-781v125l177 48v1068l-177 47v126h781v-125l-178 -48v-1068z" />
    <glyph glyph-name="J" unicode="J" horiz-adv-x="1307" 
d="M1071 467q0 -109 -37 -198.5t-114.5 -155t-198 -100.5t-287.5 -35q-154 0 -244.5 29t-130.5 81.5t-40 121.5q0 72 40 112t100 40q19 0 45 -22t60.5 -51t77.5 -50.5t94 -21.5q113 0 161.5 46.5t48.5 160.5v817l-178 48v125h781v-125l-178 -48v-774z" />
    <glyph glyph-name="K" unicode="K" horiz-adv-x="1836" 
d="M1660 177l155 -52v-125h-635v98v14l-341 494h-276v245h293l405 400l-168 38v125h632v-125l-166 -51l-545 -533l107 238zM703 1241v-1068l178 -47v-126h-781v125l177 48v1068l-177 47v126h781v-125z" />
    <glyph glyph-name="L" unicode="L" horiz-adv-x="1535" 
d="M1384 -92h-151l-82 92h-656l8 245h707l-132 -124l227 443h187zM703 1241v-1241h-603v125l177 48v1068l-177 48v125h781v-125z" />
    <glyph glyph-name="M" unicode="M" horiz-adv-x="2427" 
d="M2170 180l179 -55v-125h-758v125l147 47l-60 1023l15 -1l-354 -1194h-447l-348 1177l10 1l-54 -1006l142 -47v-125h-556v125l168 50l62 1041l-200 73v125h795l301 -1064h-15l307 1064h790v-125l-180 -62z" />
    <glyph glyph-name="N" unicode="N" horiz-adv-x="1864" 
d="M281 172v1057l-188 60v125h715l615 -1116l-58 -121v1065l-181 47v125h600v-125l-175 -47v-1242h-494l-695 1273l105 25v-1126l181 -47v-125h-600v125z" />
    <glyph glyph-name="O" unicode="O" horiz-adv-x="1761" 
d="M902 1440q181 0 322 -50t238 -144.5t147 -230t50 -306.5q0 -172 -55 -308t-159 -231.5t-252 -145.5t-334 -50q-181 0 -322 50t-238 145t-147 230.5t-50 306.5q0 172 55 308t159 231t252 145t334 50zM883 230q114 0 191 45t116 139t39 240q0 180 -36.5 298t-114 175.5
t-200.5 57.5q-114 0 -191 -45t-116 -139t-39 -240q0 -180 36.5 -298t114 -175.5t200.5 -57.5z" />
    <glyph glyph-name="P" unicode="P" horiz-adv-x="1597" 
d="M1117 958q0 71 -20 117.5t-69 70t-135 23.5h-332l-105 245h496q207 0 334.5 -54.5t186 -156.5t58.5 -244q0 -132 -54 -234t-174 -159t-316 -57h-552l126 236h347q71 0 117 22t69 69t23 122zM703 1414v-1241l178 -48v-125h-781v125l177 48v1068l-177 48v125h603z" />
    <glyph glyph-name="Q" unicode="Q" horiz-adv-x="1761" 
d="M654 -209l-331 343q-70 74 -119.5 158.5t-75.5 186.5t-26 227q0 172 55 308t159 231t252 145t334 50q181 0 322 -50t238 -144.5t147 -230t50 -306.5q0 -180 -71.5 -322.5t-200.5 -233.5t-301.5 -119t-374.5 21l-18 78l368 -264q64 -46 112.5 -74t94.5 -41t101 -14.5
t134 4.5v-182q-42 -7 -84 -13.5t-93.5 -10t-125.5 -3.5q-98 0 -170 12.5t-131 41.5t-117.5 78.5t-127.5 123.5zM883 240q114 0 191 44t116 136t39 234q0 180 -36.5 298t-114 175.5t-200.5 57.5q-114 0 -191 -45t-116 -139t-39 -240q0 -177 36.5 -292.5t114 -172t200.5 -56.5
z" />
    <glyph glyph-name="R" unicode="R" horiz-adv-x="1748" 
d="M973 784q98 0 146.5 45t48.5 147q0 67 -18.5 109t-63.5 63t-126 21h-482v245h613q182 0 288.5 -43.5t152.5 -123t46 -187.5q0 -101 -46 -181t-140.5 -130t-242.5 -64v5q137 -9 210 -37.5t104 -81t42 -133.5l25 -141q9 -59 23 -88t43.5 -37.5t84.5 -8.5v-163
q-172 -12 -279 -9t-167 25t-87 67t-38 117l-35 218q-11 70 -30.5 107t-60 50.5t-117.5 13.5h-389v195h495zM703 1414v-1241l158 -48v-125h-761v125l177 48v1068l-177 48v125h603z" />
    <glyph glyph-name="S" unicode="S" horiz-adv-x="1458" 
d="M1192 1358l-157 -1l109 145h146v-503h-180l-109 261l93 -108q-56 38 -134 54t-182 16q-136 0 -208 -29t-72 -114q0 -54 30.5 -85.5t83.5 -49t123.5 -28.5t149.5 -23q79 -13 161 -35.5t151 -68t110.5 -126.5t41.5 -209q0 -164 -80 -270.5t-238 -158t-394 -51.5
q-136 0 -245.5 8t-222.5 41l-42 418h163l236 -407l-299 230q94 -40 178 -55.5t198 -15.5q140 0 219 19t112 59t33 103q0 64 -36.5 99t-98 51.5t-137.5 25.5t-155 22q-79 12 -153.5 35t-134.5 68.5t-95.5 122.5t-35.5 196q0 150 77 249t223 148t352 49q117 0 215.5 -18
t203.5 -64z" />
    <glyph glyph-name="T" unicode="T" horiz-adv-x="1673" 
d="M624 1356h425v-1183l185 -48v-125h-795v125l185 48v1183zM1382 1169h-1091l104 108l-159 -387h-186l74 620h137l107 -136l-152 40h1240l-150 -40l106 136h137l74 -620h-186l-159 387z" />
    <glyph glyph-name="U" unicode="U" horiz-adv-x="1794" 
d="M1319 573v669l-178 47v125h599v-125l-178 -47v-686q0 -200 -72.5 -328.5t-215.5 -191t-353 -62.5q-230 0 -383 57t-229 179t-76 316v716l-178 47v125h781v-125l-178 -47v-692q0 -96 37 -157t111.5 -90t186.5 -29q113 0 184.5 31.5t106.5 97.5t35 170z" />
    <glyph glyph-name="V" unicode="V" horiz-adv-x="1817" 
d="M189 1238l-185 51v125h808v-125l-169 -38l402 -1087h-39l361 1083l-168 42v125h598v-125l-168 -38l-447 -1258h-507z" />
    <glyph glyph-name="W" unicode="W" horiz-adv-x="2496" 
d="M1314 1096l-334 -1096h-512l-266 1240l-185 49v125h788v-125l-150 -36l206 -1116l-89 -12l368 1289h421l396 -1292l-106 -26l190 1153l-148 40v125h578v-125l-168 -36l-263 -1253h-488l-318 1096h80z" />
    <glyph glyph-name="X" unicode="X" horiz-adv-x="1867" 
d="M859 630l-343 -463l153 -42v-125h-617v125l151 49l493 636l325 3l303 434l-140 42v125h583v-125l-150 -49l-458 -616zM1124 174l-390 468l-47 56l-450 537l-166 54v125h880v-125l-154 -49l320 -383l48 -58l519 -620l166 -54v-125h-880v125z" />
    <glyph glyph-name="Y" unicode="Y" horiz-adv-x="1727" 
d="M164 1247l-157 42v125h823v-125l-152 -42l383 -515l-134 -5l357 520l-153 42v125h564v-125l-139 -42l-458 -649v-425l178 -48v-125h-781v125l178 48v420z" />
    <glyph glyph-name="Z" unicode="Z" horiz-adv-x="1549" 
d="M1386 1414v-225l-829 -1056l-201 112h788l179 295h154l-97 -633h-145l-78 93h-1026v225l825 1055l242 -111h-818l-97 -256h-154v585h126l110 -84h1021z" />
    <glyph glyph-name="bracketleft" unicode="[" horiz-adv-x="870" 
d="M197 -219v1683h611v-185h-306v-1312h306v-186h-611z" />
    <glyph glyph-name="backslash" unicode="\" horiz-adv-x="977" 
d="M924 0h-283l-591 1414h284z" />
    <glyph glyph-name="bracketright" unicode="]" horiz-adv-x="870" 
d="M673 1464v-1682h-612v185h307v1312h-307v185h612z" />
    <glyph glyph-name="asciicircum" unicode="^" horiz-adv-x="1140" 
d="M507 1268h127l-292 -619h-251l365 765h228l366 -765h-251z" />
    <glyph glyph-name="underscore" unicode="_" horiz-adv-x="833" 
d="M0 -118h833v-202h-833v202z" />
    <glyph glyph-name="grave" unicode="`" horiz-adv-x="1000" 
d="M605 1138h-181l-352 263v63h368z" />
    <glyph glyph-name="a" unicode="a" horiz-adv-x="1314" 
d="M822 651l-17 -146q-114 -11 -183 -25.5t-105 -33.5t-48 -46t-12 -64q0 -66 28 -93.5t103 -27.5q50 0 87 14.5t57.5 41.5t20.5 61v377q0 100 -43 147t-147 47q-58 0 -96 -3t-67 -9l63 83q-9 -40 -18.5 -74.5t-19 -65.5t-21.5 -61q-17 -46 -54.5 -60t-107.5 -14
q-73 0 -107.5 25t-34.5 65t42 87.5t120.5 90t188.5 69.5t247 27q159 0 253.5 -42t136 -121.5t41.5 -192.5v-448q0 -32 10 -51t29 -27t49 -8q17 0 37 2t45 7v-123q-60 -38 -131 -61t-146 -23q-80 0 -135.5 31.5t-85.5 99t-37 176.5l13 11q-25 -116 -70 -186.5t-114 -101.5
t-168 -31q-164 0 -251 72.5t-87 216.5q0 76 27.5 135.5t104.5 105.5t222.5 82t380.5 65z" />
    <glyph glyph-name="b" unicode="b" horiz-adv-x="1418" 
d="M516 266h39l-150 -266h-296l61 290v889q-13 8 -44.5 25.5l-72 40t-79.5 44.5v113l504 88h94l-24 -266v-792q0 -88 19.5 -139t61.5 -73t108 -22q67 0 115.5 32t75 104.5t26.5 193.5q0 106 -26.5 171t-82 95t-142.5 30q-35 0 -74 -4.5t-79.5 -12.5t-78.5 -19v84
q98 65 163.5 102.5t108.5 57t74 25.5t60 6q148 0 249 -60.5t152 -174t51 -270.5q0 -147 -35 -256.5t-99 -183t-152.5 -110t-194.5 -36.5q-83 0 -151 25.5t-114.5 89.5t-66.5 179z" />
    <glyph glyph-name="c" unicode="c" horiz-adv-x="1188" 
d="M719 1063q153 0 242 -29.5t127 -79t38 -109.5q0 -51 -25.5 -90t-62.5 -60.5t-74 -21.5q-14 0 -44 23t-67.5 57t-76.5 68t-72 57.5t-53 23.5q-69 0 -118.5 -28.5t-75 -94.5t-25.5 -179q0 -133 31.5 -211t102.5 -111t189 -33q96 0 178.5 13t167.5 37v-142
q-105 -67 -188 -106t-149 -56t-124 -17q-175 0 -299 60t-190 177.5t-66 290.5q0 124 40.5 226.5t120.5 177.5t198.5 116t274.5 41z" />
    <glyph glyph-name="d" unicode="d" horiz-adv-x="1452" 
d="M868 659q0 102 -37 148.5t-127 46.5q-78 0 -132 -33.5t-82 -106t-28 -193.5q0 -112 26.5 -180t82 -98t142.5 -30q52 0 112 10.5t119 29.5v-60q-104 -75 -170.5 -120t-108.5 -66t-71 -27t-59 -6q-150 0 -249 61t-149 174.5t-50 268.5q0 137 46.5 245t130 184t195.5 116
t242 40q78 0 141.5 -9.5t125 -32.5t133.5 -63l-233 -17v271q-12 4 -48 18.5t-77.5 31t-70.5 27.5v113l504 88h94l-24 -266v-934q9 -6 31 -21t49 -33t52.5 -34.5t41.5 -26.5v-74l-404 -127h-54l-94 224v461z" />
    <glyph glyph-name="e" unicode="e" horiz-adv-x="1233" 
d="M640 1063q175 0 285 -59.5t164.5 -187.5t60.5 -332h-802l-2 151h524l-75 -58q2 120 -16.5 182.5t-58 85.5t-99.5 23q-64 0 -105 -25.5t-61.5 -85.5t-20.5 -166q0 -136 33 -213t107.5 -109.5t198.5 -32.5q69 0 129.5 6t115 16t106.5 23v-128q-99 -64 -183 -103.5
t-155 -57.5t-134 -18q-180 0 -306 60t-193 177.5t-67 290.5t64.5 299t188.5 194t301 68z" />
    <glyph glyph-name="f" unicode="f" horiz-adv-x="1028" 
d="M442 818l-186 -25l-215 93v81l232 100l173 -30h540v-219h-544zM634 146l158 -35v-111h-674v111l138 35v883q0 123 34.5 210t106 143t181.5 82t260 26q134 0 218 -14t129 -40.5t61.5 -62.5t16.5 -79q0 -66 -46 -112.5t-129 -46.5q-16 0 -34 24.5t-46 57t-72.5 57
t-113.5 24.5q-70 0 -111 -18t-59 -56t-18 -98v-980z" />
    <glyph glyph-name="g" unicode="g" horiz-adv-x="1291" 
d="M602 -465q-164 0 -271 14t-169 41t-87 66t-25 88q0 44 22 78t72.5 57.5t134 36t206.5 12.5l107 1v-14q-87 0 -138 -12t-73 -35t-22 -59q0 -42 24.5 -67.5t86.5 -37t173 -11.5q125 0 198.5 13.5t105 40t31.5 64.5q0 26 -10.5 44t-48.5 29.5t-118.5 16.5t-221.5 5
t-232.5 17t-144.5 48.5t-74.5 75t-21.5 96.5q0 97 81 154.5t271 67.5l2 -34q-60 -1 -82 -15.5t-22 -45.5q0 -22 9 -36.5t45 -23.5t116.5 -13t224.5 -4q143 0 241.5 -16t158 -50.5t86 -90t26.5 -135.5q0 -115 -73 -197t-219.5 -125.5t-368.5 -43.5zM595 321q-161 0 -272 40.5
t-168 123.5t-57 207q0 125 61 207.5t173 123t263 40.5q114 0 204.5 -25t155.5 -73t99.5 -117t34.5 -156q0 -126 -61 -208t-171.5 -122.5t-261.5 -40.5zM602 496q68 0 109 45t41 170q0 111 -37.5 151t-120.5 40q-70 0 -111.5 -45.5t-41.5 -170.5q0 -110 38.5 -150t122.5 -40z
M783 938l-39 99q61 0 130 1t135.5 2.5t120 2.5t83.5 1q29 0 36.5 -13t7.5 -58q0 -73 -7.5 -96.5t-24.5 -23.5q-12 0 -39.5 4t-77.5 13.5t-129 26t-196 41.5z" />
    <glyph glyph-name="h" unicode="h" horiz-adv-x="1489" 
d="M830 111l91 26v502q0 46 -15 75.5t-50.5 44t-96.5 14.5q-49 0 -105 -8t-109 -21l-18 84q109 85 174 133t105 69.5t72 27t74 5.5q177 0 262 -82.5t85 -236.5v-598l139 -35v-111h-608v111zM667 0h-607v111l138 35v1033q-13 8 -44.5 25.5l-72 40t-79.5 44.5v113l504 88h94
l-24 -266v-1087l91 -26v-111z" />
    <glyph glyph-name="i" unicode="i" horiz-adv-x="808" 
d="M410 1181q-119 0 -178 39.5t-59 117.5t59 115t178 37q120 0 179 -37t59 -115t-59 -117.5t-179 -39.5zM632 1063l-22 -318v-599l134 -35v-111h-650v111l138 35v582q-11 10 -38.5 31t-61 47t-64.5 51v89l451 117h113z" />
    <glyph glyph-name="j" unicode="j" horiz-adv-x="753" 
d="M391 1181q-119 0 -178 39.5t-59 117.5t59 115t178 37q120 0 179 -37t59 -115t-59 -117.5t-179 -39.5zM212 728q-11 10 -38 31t-60.5 47t-64.5 51v89l451 117h112l-21 -318v-661q0 -72 -10.5 -127t-39.5 -102.5t-85.5 -94.5t-148.5 -101t-230 -124l-101 146q86 81 134 131
t70 84t27 67t5 80v685z" />
    <glyph glyph-name="k" unicode="k" horiz-adv-x="1508" 
d="M808 521l150 223l428 -591l113 -53v-100h-510v100l-1 11l-254 358h-298v202h310l255 231l-157 32v103h577v-103l-159 -32zM576 146l134 -35v-111h-650v111l138 35v1033q-13 8 -44.5 25.5l-72 40t-79.5 44.5v113l504 88h94l-24 -266v-1078z" />
    <glyph glyph-name="l" unicode="l" horiz-adv-x="773" 
d="M577 146l135 -35v-111h-651v111l138 35v1033q-13 8 -44.5 25.5l-72 40t-79.5 44.5v113l504 88h94l-24 -266v-1078z" />
    <glyph glyph-name="m" unicode="m" horiz-adv-x="2175" 
d="M609 826v-689l91 -26v-111h-607v111l138 35v575q-16 14 -55.5 46.5t-107.5 89.5v82l368 126h73zM1298 763v-626l90 -26v-111h-559v111l90 26v515q0 41 -13.5 67.5t-45 40t-87.5 13.5q-46 0 -96 -7t-99 -19l-18 92q104 81 166 127t101 66.5t69.5 25.5t69.5 5
q113 0 186.5 -33t109.5 -99.5t36 -167.5zM1986 758v-612l138 -35v-111h-607v111l91 26v514q0 42 -14 69t-46.5 40t-88.5 13q-45 0 -96 -7t-100 -20l-18 92q105 81 167.5 127t101 67t69 26t70.5 5q170 0 251.5 -78.5t81.5 -226.5z" />
    <glyph glyph-name="n" unicode="n" horiz-adv-x="1522" 
d="M609 826v-689l91 -26v-111h-607v111l138 35v575q-16 14 -55.5 46.5t-107.5 89.5v82l368 126h73zM863 111l92 26v502q0 46 -15 75.5t-50.5 44t-96.5 14.5q-49 0 -105 -8t-109 -21l-19 84q109 85 174.5 133t105.5 69.5t72 27t74 5.5q177 0 262 -82.5t85 -236.5v-598
l139 -35v-111h-609v111z" />
    <glyph glyph-name="o" unicode="o" horiz-adv-x="1336" 
d="M661 201q76 0 124.5 30t71.5 95.5t23 171.5q0 120 -21 194.5t-66 109t-118 34.5q-76 0 -124 -29.5t-71 -95.5t-23 -172q0 -120 20.5 -194.5t66 -109t117.5 -34.5zM652 -26q-179 0 -306 64.5t-194 185.5t-67 290q0 172 71 295t205 188.5t323 65.5q180 0 306.5 -64.5
t193.5 -185t67 -290.5q0 -172 -71 -295t-205 -188.5t-323 -65.5z" />
    <glyph glyph-name="p" unicode="p" horiz-adv-x="1458" 
d="M995 518q0 166 -61.5 236t-190.5 70q-33 0 -71 -4t-77 -11t-76 -18v84q92 63 155 100.5t105 56.5t73.5 25t62.5 6q150 0 251.5 -61t152.5 -174t51 -270q0 -189 -65 -319.5t-172 -197.5t-236 -67q-101 0 -173 40t-111 109t-41 155h16v-571l159 -35v-111h-676v111l139 36
v1013q-13 12 -37 32t-56.5 46.5t-69.5 57.5v82l368 126h73l101 -198v-447q0 -83 21.5 -132t64 -69.5t102.5 -20.5q68 0 116.5 32t75 102.5t26.5 185.5z" />
    <glyph glyph-name="q" unicode="q" horiz-adv-x="1411" 
d="M462 523q0 -113 26.5 -181t82 -98.5t142.5 -30.5q50 0 110 9.5t121 29.5v-59q-104 -75 -170.5 -120t-108.5 -66t-71 -27t-59 -6q-150 0 -249 61t-149 174.5t-50 268.5q0 184 83 315t222.5 200.5t308.5 69.5q78 0 141.5 -12t119.5 -42.5t112 -84.5l-112 11l287 134l50 -36
l-53 -219v-1106l140 -36v-111h-677v111l159 35v943q0 107 -35 155.5t-129 48.5q-78 0 -132 -33t-82 -106t-28 -192z" />
    <glyph glyph-name="r" unicode="r" horiz-adv-x="1139" 
d="M944 1059q78 0 116.5 -42t38.5 -112q0 -77 -24.5 -127t-46.5 -50q-64 0 -123 1l-118 2t-122 1q-31 0 -52 -2.5t-40 -10t-46 -23.5l-32 57q96 102 161 163t112 92t88 41t88 10zM609 826v-676l155 -39v-111h-671v111l138 35v575q-13 12 -37 32t-56.5 46.5t-69.5 57.5v82
l368 126h73z" />
    <glyph glyph-name="s" unicode="s" horiz-adv-x="1169" 
d="M643 1063q100 0 181 -8t163 -28l29 -279h-148l-143 242l152 -130q-65 19 -129.5 28.5t-106.5 9.5q-106 0 -152.5 -25.5t-46.5 -77.5q0 -43 25.5 -68.5t88.5 -41t174 -32.5q84 -12 150.5 -33.5t112.5 -57.5t70 -92t24 -137q0 -112 -58 -192t-180 -123t-318 -43
q-108 0 -216 10.5t-175 27.5l-48 311h139l162 -274l-158 124q30 -8 73.5 -13.5t90 -8.5t87.5 -3q135 0 188.5 31t53.5 92q0 41 -19.5 66t-60.5 39t-102 25t-144 25q-110 20 -176 56.5t-95 95.5t-29 142q0 113 61.5 189.5t182 114.5t297.5 38z" />
    <glyph glyph-name="t" unicode="t" horiz-adv-x="1050" 
d="M595 367q0 -83 42 -115t151 -32q48 0 103 6.5t121 20.5v-137q-122 -54 -201 -83.5t-135.5 -41t-112.5 -11.5q-109 0 -186.5 33t-118 100t-40.5 167v527l-198 133v90q29 11 72 31.5t94 49t104.5 61t104.5 67t94 67.5h106v-289v-644zM441 818l6 219h537v-219h-543z" />
    <glyph glyph-name="u" unicode="u" horiz-adv-x="1473" 
d="M574 386q0 -44 14.5 -70.5t47 -39t86.5 -12.5q41 0 91.5 7.5t103.5 19.5l17 -92q-103 -82 -165.5 -127.5t-101.5 -66.5t-69.5 -26t-70.5 -5q-168 0 -249.5 78.5t-81.5 225.5v551l-164 95v100l564 23l-22 -164v-497zM977 -26l-94 210v678l-62 75v100l447 3l-7 -166v-584
q9 -6 31 -21t49 -33t52.5 -34.5t41.5 -26.5v-74l-403 -127h-55z" />
    <glyph glyph-name="v" unicode="v" horiz-adv-x="1423" 
d="M1280 894l-357 -901h-407l-375 887l-127 47v110h650v-112l-121 -30l302 -765h-83l270 761l-112 34v112h461v-112z" />
    <glyph glyph-name="w" unicode="w" horiz-adv-x="1948" 
d="M1570 891l-100 34v112h437v-112l-93 -31l-214 -901h-393l-262 803l87 6l-272 -809h-394l-219 887l-128 47v110h610v-112l-106 -30l164 -734l-87 12l283 871h348l292 -896l-94 4z" />
    <glyph glyph-name="x" unicode="x" horiz-adv-x="1406" 
d="M1275 142l114 -38v-104h-616v104l46 21l-270 324l-27 32l-350 414l-114 37v105h616v-105l-45 -20l227 -274l29 -35zM672 463l-266 -330l115 -28v-105h-483v105l109 33l343 415l252 28l244 324l-116 27v105h473v-105l-110 -33l-320 -408z" />
    <glyph glyph-name="y" unicode="y" horiz-adv-x="1402" 
d="M909 173l-245 -247l-519 954l-135 47v110h657v-112l-121 -30zM360 -465q-126 0 -185.5 46.5t-59.5 133.5q0 40 13 73.5t30.5 54t29.5 20.5q19 0 56 -5.5t82.5 -11t92.5 -5.5q58 0 95.5 16.5t63.5 48t49 75.5l35 65l57 81l299 764l-111 34v112h465v-112l-107 -31
l-440 -1015q-52 -120 -118.5 -195.5t-152 -112t-194.5 -36.5z" />
    <glyph glyph-name="z" unicode="z" horiz-adv-x="1212" 
d="M108 0v158l641 797l149 -121h-730l216 170l-170 -349h-135l47 408h96l64 -26h812v-156l-658 -803l-137 126h650l-163 -136l242 362h126l-97 -430h-953z" />
    <glyph glyph-name="braceleft" unicode="{" horiz-adv-x="839" 
d="M64 539v166l74 3q76 2 107 30.5t31 91.5q0 57 -13.5 115t-28 120t-14.5 131q0 68 36.5 129t112 102.5t191.5 49.5l191 13l17 -174l-90 -12q-72 -9 -97.5 -46t-25.5 -104q0 -74 7 -146.5t7 -135.5q0 -112 -69.5 -181t-234.5 -103v68q165 -33 234.5 -102.5t69.5 -181.5
q0 -63 -7 -135.5t-7 -145.5q0 -66 25.5 -103.5t97.5 -46.5l90 -12l-17 -175l-191 13q-116 9 -191.5 50t-112 102t-36.5 129q0 69 14.5 131t28 120.5t13.5 115.5q0 62 -31 90.5t-107 31.5z" />
    <glyph glyph-name="bar" unicode="|" horiz-adv-x="647" 
d="M198 -465v2000h251v-2000h-251z" />
    <glyph glyph-name="braceright" unicode="}" horiz-adv-x="839" 
d="M775 706v-166l-75 -3q-75 -2 -106.5 -30.5t-31.5 -91.5q0 -57 14 -115.5t28 -120t14 -130.5q0 -68 -36 -129.5t-111 -102.5t-193 -50l-190 -13l-17 175l90 12q72 9 97 46.5t25 103.5q0 73 -7 145.5t-7 135.5q0 113 70.5 182t233.5 102v-67q-163 34 -233.5 102.5
t-70.5 180.5q0 64 7 136.5t7 145.5q0 67 -25 104t-97 46l-90 12l17 174l190 -13q118 -8 193 -49t111 -102t36 -129q0 -69 -14 -131.5t-28 -120.5t-14 -115q0 -63 31.5 -91t106.5 -31z" />
    <glyph glyph-name="asciitilde" unicode="~" horiz-adv-x="1140" 
d="M120 343q0 127 28.5 207.5t85 119.5t139.5 39q70 0 118.5 -22t84 -51t66 -51t62.5 -22q46 0 67 31.5t24 102.5h227q1 -126 -28 -207.5t-85 -120.5t-140 -39q-69 0 -118 22.5t-84.5 51t-65.5 50.5t-63 22q-46 0 -66.5 -31.5t-23.5 -101.5h-228z" />
    <glyph glyph-name="uni00A0" unicode="&#xa0;" horiz-adv-x="500" 
 />
    <glyph glyph-name="exclamdown" unicode="&#xa1;" horiz-adv-x="703" 
d="M122 -309l3 82q2 24 8.5 70.5t17 109t23 134.5t24.5 147.5t22 148t16 135.5h231q6 -63 16 -135.5t22.5 -148t24.5 -147.5t22.5 -134.5t17 -109t7.5 -70.5l4 -82q1 -29 -14 -50.5t-64.5 -32t-151.5 -10.5q-101 0 -150.5 10.5t-64.5 32t-14 50.5zM351 663q-105 0 -163 50
t-58 143q0 96 58 147.5t163 51.5q106 0 164 -51.5t58 -147.5q0 -93 -58 -143t-164 -50z" />
    <glyph glyph-name="cent" unicode="&#xa2;" horiz-adv-x="1462" 
d="M451 0l465 1414h172l-464 -1414h-173zM845 1248q154 0 242.5 -30t127 -79t38.5 -110q0 -51 -25.5 -90t-62.5 -60.5t-74 -21.5q-14 0 -44.5 23t-68 57.5t-76 68.5t-71.5 57t-53 23q-68 0 -115.5 -28.5t-72 -94t-24.5 -179.5q0 -133 31.5 -211t102.5 -111t188 -33
q96 0 179 13t167 37v-142q-105 -66 -187.5 -105.5t-148.5 -56.5t-125 -17q-174 0 -298.5 60t-190.5 178t-66 290q0 124 40 227t119 178t196.5 116t271.5 41z" />
    <glyph glyph-name="sterling" unicode="&#xa3;" horiz-adv-x="1462" 
d="M1143 905q-31 122 -93 179.5t-182 57.5q-118 0 -172.5 -51.5t-54.5 -144.5q0 -38 8 -71t19.5 -63t23 -58.5t19.5 -57t8 -58.5q0 -54 -33.5 -113.5t-105.5 -125.5t-188 -140l29 99h870l-336 -171l276 336h148l-120 -599h-147l-57 76h-870v169q59 40 102.5 77.5t72 73.5
t42 73t13.5 75q0 60 -21.5 107.5t-53 92t-62.5 95.5t-51.5 116t-18.5 154q3 89 41.5 163.5t113 129.5t184.5 84.5t255 29.5q166 0 275 -53t175 -157.5t99 -260.5zM1030 788v-155h-955v155h955z" />
    <glyph glyph-name="currency" unicode="&#xa4;" horiz-adv-x="1182" 
d="M284 978l175 -175l-152 -151l-174 174zM133 212l187 188l152 -152l-188 -187zM591 900q117 0 204 -47t135 -132t48 -201q0 -115 -48 -200.5t-135 -132.5t-204 -47t-204 47t-135 132.5t-48 200.5q0 116 48 201t135 132t204 47zM591 323q89 0 143 54t54 143t-54 143
t-143 54q-88 0 -142 -54t-54 -143t54 -143t142 -54zM1050 826l-181 -180l-151 152l180 180zM1050 212l-152 -151l-174 174l151 152z" />
    <glyph glyph-name="yen" unicode="&#xa5;" horiz-adv-x="1462" 
d="M1329 618v-155h-1180v155h1180zM1329 965v-155h-1180v155h1180zM951 915v-741l226 -52v-122h-876v122l237 52v735l-440 343l-159 39v123h792v-123l-151 -40l297 -250l-63 -5l317 256l-144 39v123h533v-123l-145 -40z" />
    <glyph glyph-name="brokenbar" unicode="&#xa6;" horiz-adv-x="647" 
d="M449 743h-251v792h251v-792zM198 -465v792h251v-792h-251z" />
    <glyph glyph-name="section" unicode="&#xa7;" horiz-adv-x="1462" 
d="M657 -246q-187 0 -287.5 23t-138.5 65.5t-38 101.5q0 61 43.5 100t107.5 39q11 0 35 -21.5t64.5 -49.5t103 -50t149.5 -22q121 0 168 25.5t47 72.5q0 48 -44 73.5t-117 38t-160 22t-174 25.5t-160 47t-117 87.5t-44 147.5q0 165 107 244t341 80l179 -41
q-136 -6 -205.5 -42.5t-69.5 -111.5q0 -57 44.5 -85t118 -40t161.5 -20.5t176 -25t161.5 -52t118 -102.5t44.5 -178q0 -106 -57 -185t-191 -122.5t-366 -43.5zM1015 587q0 57 -45 85t-118.5 40t-161 20.5t-175.5 25t-161.5 52t-118.5 102.5t-45 178q0 106 57.5 185
t191.5 122t366 43q187 0 287 -22.5t138 -65t38 -101.5q0 -61 -43 -100.5t-108 -39.5q-10 0 -34 22t-64.5 50t-103 50t-149.5 22q-122 0 -168.5 -25.5t-46.5 -72.5q0 -48 44 -73.5t117 -38t160 -22t173.5 -25.5t159.5 -47t117.5 -87.5t44.5 -147.5q0 -166 -107 -244.5
t-342 -79.5l-178 41q137 5 206 42t69 112z" />
    <glyph glyph-name="dieresis" unicode="&#xa8;" horiz-adv-x="1000" 
d="M260 1165q-84 0 -122.5 35t-38.5 104q0 68 38.5 100.5t122.5 32.5q82 0 120.5 -32.5t38.5 -100.5q0 -69 -38.5 -104t-120.5 -35zM742 1165q-84 0 -122.5 35t-38.5 104q0 68 38.5 100.5t122.5 32.5q82 0 120.5 -32.5t38.5 -100.5q0 -69 -38.5 -104t-120.5 -35z" />
    <glyph glyph-name="copyright" unicode="&#xa9;" horiz-adv-x="1725" 
d="M862 1440q177 0 314.5 -48.5t233 -142t145 -230t49.5 -312.5t-49.5 -312.5t-145 -230t-233 -142t-314.5 -48.5q-176 0 -314 48.5t-233 142t-144.5 230t-49.5 312.5t49.5 312.5t144.5 230t233 142t314 48.5zM862 1324q-194 0 -330 -71t-207.5 -208.5t-71.5 -337.5
q0 -199 71.5 -337t207.5 -209t330 -71q195 0 331 71t207.5 209t71.5 337q0 200 -71.5 337.5t-207.5 208.5t-331 71zM970 445q39 0 85 8t87 25l-102 -102l95 216h94l-32 -247q-66 -22 -135.5 -33t-148.5 -11q-162 0 -268.5 42.5t-158.5 129.5t-52 221q0 128 52 224.5
t158 150.5t267 54q62 0 121.5 -9t116.5 -27l-69 -24l65 77h79v-326h-101l-70 213l90 -110q-49 29 -98.5 41.5t-112.5 12.5q-114 0 -171 -58t-57 -203q0 -95 29.5 -153.5t88.5 -85t148 -26.5z" />
    <glyph glyph-name="ordfeminine" unicode="&#xaa;" horiz-adv-x="1078" 
d="M144 446v178h810v-178h-810zM605 1074q-62 -7 -103 -15.5t-63 -20t-30.5 -27.5t-8.5 -38q0 -39 19 -54.5t69 -15.5q51 0 73 21.5t22 55.5v218q0 59 -26.5 87.5t-94.5 28.5q-33 0 -59 -2.5t-54 -8.5l50 78q-10 -48 -19 -78.5t-22 -51.5q-16 -24 -38 -36t-77 -12
q-45 0 -68.5 14.5t-23.5 40.5q0 45 59 87t153.5 69t199.5 27q103 0 167 -25.5t94 -78.5t30 -136v-270q0 -33 11.5 -45.5t41.5 -12.5q9 0 19.5 1t30.5 6v-89q-49 -23 -95.5 -35t-93.5 -12q-85 0 -127.5 47t-47.5 155l11 6q-27 -116 -79.5 -162.5t-155.5 -46.5
q-115 0 -173 46.5t-58 139.5q0 53 20.5 91t72 66.5t142.5 50t232 41.5v-104z" />
    <glyph glyph-name="guillemotleft" unicode="&#xab;" horiz-adv-x="1420" 
d="M425 572l286 -431l-152 -139l-471 406v228l471 406l152 -139l-286 -431v100zM1045 572l286 -431l-151 -139l-472 406v228l472 406l151 -139l-286 -431v100z" />
    <glyph glyph-name="logicalnot" unicode="&#xac;" horiz-adv-x="1140" 
d="M98 827h926v-230h-926v230zM1024 744v-534h-230v534h230z" />
    <glyph glyph-name="uni00AD" unicode="&#xad;" horiz-adv-x="891" 
d="M134 650h623v-256h-623v256z" />
    <glyph glyph-name="registered" unicode="&#xae;" horiz-adv-x="1263" 
d="M630 1440q163 0 277 -54.5t173 -158.5t59 -254t-59 -254.5t-173 -159t-277 -54.5t-275.5 54.5t-171.5 159t-59 254.5t59 254t171.5 158.5t275.5 54.5zM630 1341q-137 0 -222 -43t-124.5 -125t-39.5 -200q0 -119 39.5 -201t124.5 -124.5t222 -42.5t223.5 42.5t126.5 124.5
t40 201q0 118 -40 200t-126.5 125t-223.5 43zM513 1014h156q29 0 43 13.5t14 41.5q0 30 -12 43t-43 13h-158l-2 89h206q82 0 120.5 -28t38.5 -88q0 -55 -31.5 -85t-97.5 -34l1 1q54 -3 77 -20.5t27 -56.5l5 -41q3 -27 12 -34.5t36 -7.5v-57q-77 -6 -119.5 -3.5t-60.5 19
t-23 47.5l-10 72q-6 32 -17.5 40.5t-45.5 8.5h-114zM441 1158l-56 14v42h211v-395l42 -14v-42h-253v42l56 14v339z" />
    <glyph glyph-name="macron" unicode="&#xaf;" horiz-adv-x="1000" 
d="M161 1219v165h678v-165h-678z" />
    <glyph glyph-name="degree" unicode="&#xb0;" horiz-adv-x="765" 
d="M382 1434q130 0 213.5 -82t83.5 -212t-83.5 -212t-213.5 -82t-213 82t-83 212t83.5 212t212.5 82zM382 990q64 0 104.5 41t40.5 109t-40.5 109t-104.5 41q-63 0 -104 -41.5t-41 -108.5q0 -68 40.5 -109t104.5 -41z" />
    <glyph glyph-name="plusminus" unicode="&#xb1;" horiz-adv-x="1140" 
d="M455 1040h230v-901h-230v901zM120 704h901v-229h-901v229zM120 230h901v-230h-901v230z" />
    <glyph glyph-name="uni00B2" unicode="&#xb2;" horiz-adv-x="853" 
d="M551 746l148 208h93l-64 -327h-68l-43 35h-521v137l177 135q74 55 113.5 91t54.5 64.5t15 62.5q0 44 -31 67.5t-92 23.5q-65 0 -101.5 -31t-67.5 -95l-111 49q47 142 135.5 205t238.5 63q145 0 224 -54.5t79 -163.5q0 -57 -23.5 -102t-89.5 -93.5t-195 -113.5l-153 -87
l-1 54h477z" />
    <glyph glyph-name="uni00B3" unicode="&#xb3;" horiz-adv-x="818" 
d="M318 646q-144 0 -198 35t-54 80q0 40 23.5 65t66.5 25q6 0 19.5 -12.5t36 -29t53.5 -29t73 -12.5q69 0 109.5 24.5t40.5 90.5q0 35 -15.5 56.5t-54 29.5t-108.5 3l-41 -4l-11 106q112 15 147 39.5t35 73.5q0 37 -25.5 58.5t-79.5 21.5q-59 0 -99 -30.5t-67 -86.5l-100 52
q45 117 126 174.5t234 57.5q141 0 206 -42t65 -122q0 -66 -53.5 -113t-183.5 -63l-16 7q92 8 159.5 -10.5t105 -62t37.5 -112.5q0 -85 -43 -145.5t-137.5 -92.5t-250.5 -32z" />
    <glyph glyph-name="acute" unicode="&#xb4;" horiz-adv-x="1000" 
d="M395 1138l165 326h368v-63l-352 -263h-181z" />
    <glyph glyph-name="uni00B5" unicode="&#xb5;" horiz-adv-x="1493" 
d="M197 1037h378v-651q0 -44 14.5 -70.5t47 -39t86.5 -12.5q40 0 91 7.5t103 19.5l18 -92q-80 -73 -133 -115.5t-89 -63t-65.5 -27.5t-62.5 -7q-51 0 -89.5 16.5t-63 51t-36.5 87.5l18 13l125 -588l-288 -26h-54v1497zM1262 259q0 -32 9.5 -51t29 -27t48.5 -8q17 0 37 2
t45 7v-121q-60 -38 -133 -62t-151 -24q-126 0 -194.5 81t-68.5 234v747h378v-778z" />
    <glyph glyph-name="paragraph" unicode="&#xb6;" horiz-adv-x="1431" 
d="M779 1414v-777h-301q-138 0 -230.5 42.5t-139 128t-46.5 212.5q0 128 47 216t143 133t242 45h285zM831 -219h-177v1633h424v-149h-247v-1484zM1166 -219h-178v1633h359v-108l-181 -39v-1486z" />
    <glyph glyph-name="periodcentered" unicode="&#xb7;" horiz-adv-x="653" 
d="M326 735q99 0 157.5 -57t58.5 -156t-58.5 -156t-157.5 -57t-157.5 57t-58.5 156t58.5 156t157.5 57z" />
    <glyph glyph-name="cedilla" unicode="&#xb8;" horiz-adv-x="1000" 
d="M404 -465q-107 0 -142 22t-35 67q0 32 18.5 47.5t35.5 15.5q12 0 36.5 -13.5t56 -26.5t62.5 -13q47 0 66.5 13.5t19.5 43.5q0 22 -16 36.5t-64 25.5t-145 24v37l191 226h144l-196 -223l-8 107q125 -19 186.5 -46t81.5 -63.5t20 -84.5q0 -72 -39 -114.5t-110 -61.5
t-163 -19z" />
    <glyph glyph-name="uni00B9" unicode="&#xb9;" horiz-adv-x="709" 
d="M253 782v569l64 -115l-240 -80l-40 105l291 153h205v-632l111 -28v-92h-517v92z" />
    <glyph glyph-name="ordmasculine" unicode="&#xba;" horiz-adv-x="1094" 
d="M142 446v178h810v-178h-810zM543 914q75 0 109 40t34 130q0 98 -32 141.5t-103 43.5q-75 0 -109 -40.5t-34 -130.5q0 -97 32 -140.5t103 -43.5zM535 743q-131 0 -219.5 38.5t-133.5 115.5t-45 192q0 117 47 195.5t140.5 117t233.5 38.5q131 0 220 -38.5t134 -115
t45 -190.5q0 -119 -47 -197t-141 -117t-234 -39z" />
    <glyph glyph-name="guillemotright" unicode="&#xbb;" horiz-adv-x="1447" 
d="M384 472l-286 431l151 139l472 -406v-228l-472 -406l-151 139l286 431v-100zM1004 472l-286 431l152 139l471 -406v-228l-471 -406l-152 139l286 431v-100z" />
    <glyph glyph-name="onequarter" unicode="&#xbc;" horiz-adv-x="1821" 
d="M281 782v569l64 -115l-240 -80l-40 105l291 153h205v-632l111 -28v-92h-517v92zM321 0l975 1414h229l-975 -1414h-229zM1279 688l73 -7l-337 -387l-17 63h641l123 15l-39 -152h-779v146l326 386h289v-632l111 -28v-92h-518v92l127 28v568z" />
    <glyph glyph-name="onehalf" unicode="&#xbd;" horiz-adv-x="1839" 
d="M318 0l975 1414h229l-975 -1414h-229zM1529 84l148 208h93l-64 -327h-68l-43 35h-521v137l177 135q74 55 113.5 91t54.5 64.5t15 62.5q0 44 -31 67.5t-92 23.5q-65 0 -101.5 -31t-67.5 -95l-111 49q47 142 135.5 205t238.5 63q145 0 224 -54.5t79 -163.5
q0 -57 -23.5 -102t-89.5 -93.5t-195 -113.5l-153 -87l-1 54h477zM277 782v569l64 -115l-240 -80l-40 105l291 153h205v-632l111 -28v-92h-517v92z" />
    <glyph glyph-name="threequarters" unicode="&#xbe;" horiz-adv-x="1819" 
d="M319 0l975 1414h229l-975 -1414h-229zM339 646q-144 0 -198 35t-54 80q0 40 23.5 65t66.5 25q6 0 19.5 -12.5t36 -29t53.5 -29t73 -12.5q69 0 109.5 24.5t40.5 90.5q0 35 -15.5 56.5t-54 29.5t-108.5 3l-41 -4l-11 106q112 15 147 39.5t35 73.5q0 37 -25.5 58.5
t-79.5 21.5q-59 0 -99 -30.5t-67 -86.5l-100 52q45 117 126 174.5t234 57.5q141 0 206 -42t65 -122q0 -66 -53.5 -113t-183.5 -63l-16 7q92 8 159.5 -10.5t105 -62t37.5 -112.5q0 -85 -43 -145.5t-137.5 -92.5t-250.5 -32zM1277 688l73 -7l-337 -387l-17 63h641l123 15
l-39 -152h-779v146l326 386h289v-632l111 -28v-92h-518v92l127 28v568z" />
    <glyph glyph-name="questiondown" unicode="&#xbf;" horiz-adv-x="1401" 
d="M748 -410q-182 0 -310 32t-207.5 88t-116 129.5t-36.5 157.5q0 126 53.5 213t177.5 134.5t337 54.5l-91 -90l46 229h257l51 -346q-159 5 -245.5 -11.5t-120.5 -58.5t-34 -116q0 -51 27.5 -94.5t89 -69.5t163.5 -26q81 0 140.5 27.5t103 64t75.5 64t59 27.5q55 0 95 -19
t62.5 -54t22.5 -82q0 -72 -53.5 -129.5t-184 -91t-361.5 -33.5zM738 663q-105 0 -163.5 50t-58.5 143q0 96 58.5 147.5t163.5 51.5t163.5 -51.5t58.5 -147.5q0 -93 -58.5 -143t-163.5 -50z" />
    <glyph glyph-name="Agrave" unicode="&#xc0;" horiz-adv-x="1851" 
d="M447 404v227h743v-227h-743zM1658 176l185 -51v-125h-809v125l170 38l-404 1087h40l-381 -1083l167 -42v-125h-610v125l168 38l480 1258h507zM1015 1544h-181l-352 263v63h368z" />
    <glyph glyph-name="Aacute" unicode="&#xc1;" horiz-adv-x="1851" 
d="M447 404v227h743v-227h-743zM1658 176l185 -51v-125h-809v125l170 38l-404 1087h40l-381 -1083l167 -42v-125h-610v125l168 38l480 1258h507zM805 1544l165 326h368v-63l-352 -263h-181z" />
    <glyph glyph-name="Acircumflex" unicode="&#xc2;" horiz-adv-x="1851" 
d="M447 404v227h743v-227h-743zM1658 176l185 -51v-125h-809v125l170 38l-404 1087h40l-381 -1083l167 -42v-125h-610v125l168 38l480 1258h507zM872 1723h76l-200 -179h-236l260 326h276l260 -326h-236z" />
    <glyph glyph-name="Atilde" unicode="&#xc3;" horiz-adv-x="1851" 
d="M447 404v227h743v-227h-743zM1658 176l185 -51v-125h-809v125l170 38l-404 1087h40l-381 -1083l167 -42v-125h-610v125l168 38l480 1258h507zM1275 1865q-12 -132 -38 -200.5t-70.5 -93t-110.5 -24.5q-44 0 -80.5 16.5t-68.5 38t-60.5 38t-54.5 16.5q-22 0 -36 -8.5
t-22.5 -31.5t-15.5 -67h-177q12 132 38 200.5t70.5 93t110.5 24.5q44 0 80.5 -16.5t68.5 -38t60.5 -38t54.5 -16.5q23 0 36.5 8.5t22 32t14.5 66.5h178z" />
    <glyph glyph-name="Adieresis" unicode="&#xc4;" horiz-adv-x="1851" 
d="M447 404v227h743v-227h-743zM1658 176l185 -51v-125h-809v125l170 38l-404 1087h40l-381 -1083l167 -42v-125h-610v125l168 38l480 1258h507zM669 1571q-83 0 -121.5 35t-38.5 104q0 68 38.5 100.5t121.5 32.5t121.5 -32.5t38.5 -100.5q0 -69 -38.5 -104t-121.5 -35z
M1152 1571q-84 0 -122.5 35t-38.5 104q0 68 38.5 100.5t122.5 32.5q82 0 120.5 -32.5t38.5 -100.5q0 -69 -38.5 -104t-120.5 -35z" />
    <glyph glyph-name="Aring" unicode="&#xc5;" horiz-adv-x="1851" 
d="M447 404v227h743v-227h-743zM1658 176l185 -51v-125h-809v125l170 38l-404 1087h40l-381 -1083l167 -42v-125h-610v125l168 38l480 1258h507zM906 1898q86 0 138 -51t52 -135q0 -82 -52 -134t-138 -52q-83 0 -136 52t-53 134q0 84 53 135t136 51zM907 1603q49 0 78 30
t29 79q0 52 -29 82.5t-78 30.5t-78.5 -30.5t-29.5 -82.5q0 -49 29.5 -79t78.5 -30z" />
    <glyph glyph-name="AE" unicode="&#xc6;" horiz-adv-x="2537" 
d="M579 424v227h642v-227h-642zM1045 1414h170v-164l-753 -1083l167 -42v-125h-627v125l168 38zM717 1289v125h364l-67 -206zM2041 990v-255v-255h-166l-17 159h-468v196h468l17 155h166zM2402 981h-181l-127 352l127 -140h-831v221h769l112 88h131v-521zM2069 84l203 415
h187l-94 -591h-151l-82 92h-742v221h792zM995 0v125l177 48v1241h426v-1414h-603z" />
    <glyph glyph-name="Ccedilla" unicode="&#xc7;" horiz-adv-x="1607" 
d="M1026 205q79 0 166 16.5t164 48.5l-199 -151l188 385h157l-49 -448q-108 -41 -233 -61.5t-268 -20.5q-214 0 -373.5 44.5t-265.5 133.5t-158.5 223.5t-52.5 314.5q1 226 92.5 394.5t277 262t467.5 93.5q101 0 197 -15.5t191 -44.5l-106 -11l114 133h145v-590h-185
l-122 367l154 -178q-88 53 -172 74.5t-188 21.5q-115 0 -197 -25.5t-134 -81t-77 -143t-27 -211.5q-2 -140 29 -241t93.5 -165t155.5 -94.5t216 -30.5zM821 -465q-106 0 -141 22t-35 67q0 32 18 47.5t36 15.5q11 0 35.5 -13.5t56 -26.5t63.5 -13q47 0 66 13.5t19 43.5
q0 22 -15.5 36.5t-64 26t-145.5 23.5v37l192 226h144l-197 -223l-7 107q124 -19 185.5 -46t82 -63.5t20.5 -84.5q0 -72 -39.5 -114.5t-110 -61.5t-163.5 -19z" />
    <glyph glyph-name="Egrave" unicode="&#xc8;" horiz-adv-x="1642" 
d="M1146 990v-255v-255h-166l-17 159h-468v196h468l17 155h166zM1507 981h-181l-127 352l127 -140h-831v221h769l112 88h131v-521zM1174 84l203 415h187l-94 -591h-151l-82 92h-742v221h792zM100 0v125l177 48v1068l-177 48v125h603v-1414h-603zM936 1544h-181l-352 263v63
h368z" />
    <glyph glyph-name="Eacute" unicode="&#xc9;" horiz-adv-x="1642" 
d="M1146 990v-255v-255h-166l-17 159h-468v196h468l17 155h166zM1507 981h-181l-127 352l127 -140h-831v221h769l112 88h131v-521zM1174 84l203 415h187l-94 -591h-151l-82 92h-742v221h792zM100 0v125l177 48v1068l-177 48v125h603v-1414h-603zM726 1544l165 326h368v-63
l-352 -263h-181z" />
    <glyph glyph-name="Ecircumflex" unicode="&#xca;" horiz-adv-x="1642" 
d="M1146 990v-255v-255h-166l-17 159h-468v196h468l17 155h166zM1507 981h-181l-127 352l127 -140h-831v221h769l112 88h131v-521zM1174 84l203 415h187l-94 -591h-151l-82 92h-742v221h792zM100 0v125l177 48v1068l-177 48v125h603v-1414h-603zM793 1723h76l-200 -179h-236
l260 326h276l260 -326h-236z" />
    <glyph glyph-name="Edieresis" unicode="&#xcb;" horiz-adv-x="1642" 
d="M1146 990v-255v-255h-166l-17 159h-468v196h468l17 155h166zM1507 981h-181l-127 352l127 -140h-831v221h769l112 88h131v-521zM1174 84l203 415h187l-94 -591h-151l-82 92h-742v221h792zM100 0v125l177 48v1068l-177 48v125h603v-1414h-603zM590 1571q-83 0 -121.5 35
t-38.5 104q0 68 38.5 100.5t121.5 32.5t121.5 -32.5t38.5 -100.5q0 -69 -38.5 -104t-121.5 -35zM1073 1571q-84 0 -122.5 35t-38.5 104q0 68 38.5 100.5t122.5 32.5q82 0 120.5 -32.5t38.5 -100.5q0 -69 -38.5 -104t-120.5 -35z" />
    <glyph glyph-name="Igrave" unicode="&#xcc;" horiz-adv-x="980" 
d="M881 126v-126h-781v125l177 48v1068l-177 47v126h781v-125l-178 -48v-1068zM595 1544h-181l-352 263v63h368z" />
    <glyph glyph-name="Iacute" unicode="&#xcd;" horiz-adv-x="980" 
d="M881 126v-126h-781v125l177 48v1068l-177 47v126h781v-125l-178 -48v-1068zM385 1544l165 326h368v-63l-352 -263h-181z" />
    <glyph glyph-name="Icircumflex" unicode="&#xce;" horiz-adv-x="980" 
d="M881 126v-126h-781v125l177 48v1068l-177 47v126h781v-125l-178 -48v-1068zM452 1723h76l-200 -179h-236l260 326h276l260 -326h-236z" />
    <glyph glyph-name="Idieresis" unicode="&#xcf;" horiz-adv-x="980" 
d="M881 126v-126h-781v125l177 48v1068l-177 47v126h781v-125l-178 -48v-1068zM249 1571q-83 0 -121.5 35t-38.5 104q0 68 38.5 100.5t121.5 32.5t121.5 -32.5t38.5 -100.5q0 -69 -38.5 -104t-121.5 -35zM732 1571q-84 0 -122.5 35t-38.5 104q0 68 38.5 100.5t122.5 32.5
q82 0 120.5 -32.5t38.5 -100.5q0 -69 -38.5 -104t-120.5 -35z" />
    <glyph glyph-name="Eth" unicode="&#xd0;" horiz-adv-x="1790" 
d="M104 620v189h861v-189h-861zM1251 722q0 233 -85.5 340t-294.5 107h-355l-35 245h456q248 0 414.5 -77.5t250.5 -228.5t84 -372q0 -239 -94 -403.5t-264 -248.5t-400 -84h-447l35 245h402q115 0 188.5 49t109 154t35.5 274zM104 0v125l177 48v1068l-177 47v126h603v-1414
h-603z" />
    <glyph glyph-name="Ntilde" unicode="&#xd1;" horiz-adv-x="1864" 
d="M281 172v1057l-188 60v125h715l615 -1116l-58 -121v1065l-181 47v125h600v-125l-175 -47v-1242h-494l-695 1273l105 25v-1126l181 -47v-125h-600v125zM1330 1865q-12 -132 -38 -200.5t-70.5 -93t-110.5 -24.5q-44 0 -80.5 16.5t-68.5 38t-60.5 38t-54.5 16.5
q-22 0 -36 -8.5t-22.5 -31.5t-15.5 -67h-177q12 132 38 200.5t70.5 93t110.5 24.5q44 0 80.5 -16.5t68.5 -38t60.5 -38t54.5 -16.5q23 0 36.5 8.5t22 32t14.5 66.5h178z" />
    <glyph glyph-name="Ograve" unicode="&#xd2;" horiz-adv-x="1761" 
d="M902 1440q181 0 322 -50t238 -144.5t147 -230t50 -306.5q0 -172 -55 -308t-159 -231.5t-252 -145.5t-334 -50q-181 0 -322 50t-238 145t-147 230.5t-50 306.5q0 172 55 308t159 231t252 145t334 50zM883 230q114 0 191 45t116 139t39 240q0 180 -36.5 298t-114 175.5
t-200.5 57.5q-114 0 -191 -45t-116 -139t-39 -240q0 -180 36.5 -298t114 -175.5t200.5 -57.5zM985 1544h-181l-352 263v63h368z" />
    <glyph glyph-name="Oacute" unicode="&#xd3;" horiz-adv-x="1761" 
d="M902 1440q181 0 322 -50t238 -144.5t147 -230t50 -306.5q0 -172 -55 -308t-159 -231.5t-252 -145.5t-334 -50q-181 0 -322 50t-238 145t-147 230.5t-50 306.5q0 172 55 308t159 231t252 145t334 50zM883 230q114 0 191 45t116 139t39 240q0 180 -36.5 298t-114 175.5
t-200.5 57.5q-114 0 -191 -45t-116 -139t-39 -240q0 -180 36.5 -298t114 -175.5t200.5 -57.5zM775 1544l165 326h368v-63l-352 -263h-181z" />
    <glyph glyph-name="Ocircumflex" unicode="&#xd4;" horiz-adv-x="1761" 
d="M902 1440q181 0 322 -50t238 -144.5t147 -230t50 -306.5q0 -172 -55 -308t-159 -231.5t-252 -145.5t-334 -50q-181 0 -322 50t-238 145t-147 230.5t-50 306.5q0 172 55 308t159 231t252 145t334 50zM883 230q114 0 191 45t116 139t39 240q0 180 -36.5 298t-114 175.5
t-200.5 57.5q-114 0 -191 -45t-116 -139t-39 -240q0 -180 36.5 -298t114 -175.5t200.5 -57.5zM842 1723h76l-200 -179h-236l260 326h276l260 -326h-236z" />
    <glyph glyph-name="Otilde" unicode="&#xd5;" horiz-adv-x="1761" 
d="M902 1440q181 0 322 -50t238 -144.5t147 -230t50 -306.5q0 -172 -55 -308t-159 -231.5t-252 -145.5t-334 -50q-181 0 -322 50t-238 145t-147 230.5t-50 306.5q0 172 55 308t159 231t252 145t334 50zM883 230q114 0 191 45t116 139t39 240q0 180 -36.5 298t-114 175.5
t-200.5 57.5q-114 0 -191 -45t-116 -139t-39 -240q0 -180 36.5 -298t114 -175.5t200.5 -57.5zM1245 1865q-12 -132 -38 -200.5t-70.5 -93t-110.5 -24.5q-44 0 -80.5 16.5t-68.5 38t-60.5 38t-54.5 16.5q-22 0 -36 -8.5t-22.5 -31.5t-15.5 -67h-177q12 132 38 200.5t70.5 93
t110.5 24.5q44 0 80.5 -16.5t68.5 -38t60.5 -38t54.5 -16.5q23 0 36.5 8.5t22 32t14.5 66.5h178z" />
    <glyph glyph-name="Odieresis" unicode="&#xd6;" horiz-adv-x="1761" 
d="M902 1440q181 0 322 -50t238 -144.5t147 -230t50 -306.5q0 -172 -55 -308t-159 -231.5t-252 -145.5t-334 -50q-181 0 -322 50t-238 145t-147 230.5t-50 306.5q0 172 55 308t159 231t252 145t334 50zM883 230q114 0 191 45t116 139t39 240q0 180 -36.5 298t-114 175.5
t-200.5 57.5q-114 0 -191 -45t-116 -139t-39 -240q0 -180 36.5 -298t114 -175.5t200.5 -57.5zM639 1571q-83 0 -121.5 35t-38.5 104q0 68 38.5 100.5t121.5 32.5t121.5 -32.5t38.5 -100.5q0 -69 -38.5 -104t-121.5 -35zM1122 1571q-84 0 -122.5 35t-38.5 104
q0 68 38.5 100.5t122.5 32.5q82 0 120.5 -32.5t38.5 -100.5q0 -69 -38.5 -104t-120.5 -35z" />
    <glyph glyph-name="multiply" unicode="&#xd7;" horiz-adv-x="1140" 
d="M143 256l691 691l163 -163l-691 -691zM143 784l163 163l691 -691l-163 -163z" />
    <glyph glyph-name="Oslash" unicode="&#xd8;" horiz-adv-x="1796" 
d="M475 372l713 795l101 87l152 160h255l-269 -283l-106 -89l-714 -795l-100 -87l-152 -160h-256l270 283zM919 1440q181 0 322 -50t238 -144.5t147.5 -230t50.5 -306.5q0 -172 -55 -308t-159.5 -231.5t-252.5 -145.5t-334 -50q-181 0 -321.5 50t-238 145t-147.5 230.5
t-50 306.5q0 172 55 308t159 231t252 145t334 50zM900 230q114 0 191 45t116.5 139t39.5 240q0 180 -36.5 298t-114 175.5t-200.5 57.5q-114 0 -191 -45t-116.5 -139t-39.5 -240q0 -180 36.5 -298t114 -175.5t200.5 -57.5z" />
    <glyph glyph-name="Ugrave" unicode="&#xd9;" horiz-adv-x="1794" 
d="M1319 573v669l-178 47v125h599v-125l-178 -47v-686q0 -200 -72.5 -328.5t-215.5 -191t-353 -62.5q-230 0 -383 57t-229 179t-76 316v716l-178 47v125h781v-125l-178 -47v-692q0 -96 37 -157t111.5 -90t186.5 -29q113 0 184.5 31.5t106.5 97.5t35 170zM1078 1544h-181
l-352 263v63h368z" />
    <glyph glyph-name="Uacute" unicode="&#xda;" horiz-adv-x="1794" 
d="M1319 573v669l-178 47v125h599v-125l-178 -47v-686q0 -200 -72.5 -328.5t-215.5 -191t-353 -62.5q-230 0 -383 57t-229 179t-76 316v716l-178 47v125h781v-125l-178 -47v-692q0 -96 37 -157t111.5 -90t186.5 -29q113 0 184.5 31.5t106.5 97.5t35 170zM868 1544l165 326
h368v-63l-352 -263h-181z" />
    <glyph glyph-name="Ucircumflex" unicode="&#xdb;" horiz-adv-x="1794" 
d="M1319 573v669l-178 47v125h599v-125l-178 -47v-686q0 -200 -72.5 -328.5t-215.5 -191t-353 -62.5q-230 0 -383 57t-229 179t-76 316v716l-178 47v125h781v-125l-178 -47v-692q0 -96 37 -157t111.5 -90t186.5 -29q113 0 184.5 31.5t106.5 97.5t35 170zM935 1723h76
l-200 -179h-236l260 326h276l260 -326h-236z" />
    <glyph glyph-name="Udieresis" unicode="&#xdc;" horiz-adv-x="1794" 
d="M1319 573v669l-178 47v125h599v-125l-178 -47v-686q0 -200 -72.5 -328.5t-215.5 -191t-353 -62.5q-230 0 -383 57t-229 179t-76 316v716l-178 47v125h781v-125l-178 -47v-692q0 -96 37 -157t111.5 -90t186.5 -29q113 0 184.5 31.5t106.5 97.5t35 170zM732 1571
q-83 0 -121.5 35t-38.5 104q0 68 38.5 100.5t121.5 32.5t121.5 -32.5t38.5 -100.5q0 -69 -38.5 -104t-121.5 -35zM1215 1571q-84 0 -122.5 35t-38.5 104q0 68 38.5 100.5t122.5 32.5q82 0 120.5 -32.5t38.5 -100.5q0 -69 -38.5 -104t-120.5 -35z" />
    <glyph glyph-name="Yacute" unicode="&#xdd;" horiz-adv-x="1727" 
d="M164 1247l-157 42v125h823v-125l-152 -42l383 -515l-134 -5l357 520l-153 42v125h564v-125l-139 -42l-458 -649v-425l178 -48v-125h-781v125l178 48v420zM847 1544l165 326h368v-63l-352 -263h-181z" />
    <glyph glyph-name="Thorn" unicode="&#xde;" horiz-adv-x="1620" 
d="M1117 710q0 71 -20 117.5t-69 70t-135 23.5h-311l-105 245h475q207 0 334.5 -54.5t186 -156.5t58.5 -244q0 -132 -54 -233.5t-174 -159t-316 -57.5h-531l126 236h326q71 0 117 22t69 69t23 122zM881 125v-125h-781v125l177 48v1068l-177 48v125h781v-125l-178 -48v-1068z
" />
    <glyph glyph-name="germandbls" unicode="&#xdf;" horiz-adv-x="1715" 
d="M256 1029q0 123 39 210t119.5 143t207 82t302.5 26q171 0 281.5 -19t172.5 -55t87 -88t25 -117q0 -79 -32 -126t-78.5 -75.5t-93.5 -49.5t-79 -47.5t-32 -71.5q0 -40 34 -63t86.5 -40.5t112 -40t112.5 -61t86.5 -104t33.5 -170.5q0 -129 -49.5 -215t-156 -129t-277.5 -43
q-75 0 -158 10.5t-139 27.5l-35 311h139l141 -274l-192 124q37 -12 96.5 -18.5t110.5 -6.5q105 0 142.5 36.5t37.5 96.5q0 61 -30.5 94t-78.5 52.5t-102 37t-102 46t-78.5 79t-30.5 137.5q0 82 24.5 134.5t60.5 88t72.5 64t61 60.5t24.5 78q0 49 -21.5 81t-70.5 48t-131 16
q-104 0 -161.5 -19t-80 -65t-22.5 -126v-942l106 -35v-111h-622v111l138 35v883zM273 1067l-17 -274l-215 93v81z" />
    <glyph glyph-name="agrave" unicode="&#xe0;" horiz-adv-x="1314" 
d="M822 651l-17 -146q-114 -11 -183 -25.5t-105 -33.5t-48 -46t-12 -64q0 -66 28 -93.5t103 -27.5q50 0 87 14.5t57.5 41.5t20.5 61v377q0 100 -43 147t-147 47q-58 0 -96 -3t-67 -9l63 83q-9 -40 -18.5 -74.5t-19 -65.5t-21.5 -61q-17 -46 -54.5 -60t-107.5 -14
q-73 0 -107.5 25t-34.5 65t42 87.5t120.5 90t188.5 69.5t247 27q159 0 253.5 -42t136 -121.5t41.5 -192.5v-448q0 -32 10 -51t29 -27t49 -8q17 0 37 2t45 7v-123q-60 -38 -131 -61t-146 -23q-80 0 -135.5 31.5t-85.5 99t-37 176.5l13 11q-25 -116 -70 -186.5t-114 -101.5
t-168 -31q-164 0 -251 72.5t-87 216.5q0 76 27.5 135.5t104.5 105.5t222.5 82t380.5 65zM741 1138h-181l-352 263v63h368z" />
    <glyph glyph-name="aacute" unicode="&#xe1;" horiz-adv-x="1314" 
d="M822 651l-17 -146q-114 -11 -183 -25.5t-105 -33.5t-48 -46t-12 -64q0 -66 28 -93.5t103 -27.5q50 0 87 14.5t57.5 41.5t20.5 61v377q0 100 -43 147t-147 47q-58 0 -96 -3t-67 -9l63 83q-9 -40 -18.5 -74.5t-19 -65.5t-21.5 -61q-17 -46 -54.5 -60t-107.5 -14
q-73 0 -107.5 25t-34.5 65t42 87.5t120.5 90t188.5 69.5t247 27q159 0 253.5 -42t136 -121.5t41.5 -192.5v-448q0 -32 10 -51t29 -27t49 -8q17 0 37 2t45 7v-123q-60 -38 -131 -61t-146 -23q-80 0 -135.5 31.5t-85.5 99t-37 176.5l13 11q-25 -116 -70 -186.5t-114 -101.5
t-168 -31q-164 0 -251 72.5t-87 216.5q0 76 27.5 135.5t104.5 105.5t222.5 82t380.5 65zM531 1138l165 326h368v-63l-352 -263h-181z" />
    <glyph glyph-name="acircumflex" unicode="&#xe2;" horiz-adv-x="1314" 
d="M822 651l-17 -146q-114 -11 -183 -25.5t-105 -33.5t-48 -46t-12 -64q0 -66 28 -93.5t103 -27.5q50 0 87 14.5t57.5 41.5t20.5 61v377q0 100 -43 147t-147 47q-58 0 -96 -3t-67 -9l63 83q-9 -40 -18.5 -74.5t-19 -65.5t-21.5 -61q-17 -46 -54.5 -60t-107.5 -14
q-73 0 -107.5 25t-34.5 65t42 87.5t120.5 90t188.5 69.5t247 27q159 0 253.5 -42t136 -121.5t41.5 -192.5v-448q0 -32 10 -51t29 -27t49 -8q17 0 37 2t45 7v-123q-60 -38 -131 -61t-146 -23q-80 0 -135.5 31.5t-85.5 99t-37 176.5l13 11q-25 -116 -70 -186.5t-114 -101.5
t-168 -31q-164 0 -251 72.5t-87 216.5q0 76 27.5 135.5t104.5 105.5t222.5 82t380.5 65zM238 1138l260 326h276l260 -326h-236l-200 179h76l-200 -179h-236z" />
    <glyph glyph-name="atilde" unicode="&#xe3;" horiz-adv-x="1314" 
d="M822 651l-17 -146q-114 -11 -183 -25.5t-105 -33.5t-48 -46t-12 -64q0 -66 28 -93.5t103 -27.5q50 0 87 14.5t57.5 41.5t20.5 61v377q0 100 -43 147t-147 47q-58 0 -96 -3t-67 -9l63 83q-9 -40 -18.5 -74.5t-19 -65.5t-21.5 -61q-17 -46 -54.5 -60t-107.5 -14
q-73 0 -107.5 25t-34.5 65t42 87.5t120.5 90t188.5 69.5t247 27q159 0 253.5 -42t136 -121.5t41.5 -192.5v-448q0 -32 10 -51t29 -27t49 -8q17 0 37 2t45 7v-123q-60 -38 -131 -61t-146 -23q-80 0 -135.5 31.5t-85.5 99t-37 176.5l13 11q-25 -116 -70 -186.5t-114 -101.5
t-168 -31q-164 0 -251 72.5t-87 216.5q0 76 27.5 135.5t104.5 105.5t222.5 82t380.5 65zM996 1459q-12 -132 -38 -200.5t-70.5 -93t-110.5 -24.5q-44 0 -79 16.5t-65 38t-57 38t-53 16.5q-22 0 -36 -8.5t-22.5 -31.5t-15.5 -67h-177q12 132 38 200.5t70.5 93t110.5 24.5
q44 0 79 -16.5t65 -38t57 -38t53 -16.5q23 0 36.5 8.5t22 32t15.5 66.5h177z" />
    <glyph glyph-name="adieresis" unicode="&#xe4;" horiz-adv-x="1314" 
d="M822 651l-17 -146q-114 -11 -183 -25.5t-105 -33.5t-48 -46t-12 -64q0 -66 28 -93.5t103 -27.5q50 0 87 14.5t57.5 41.5t20.5 61v377q0 100 -43 147t-147 47q-58 0 -96 -3t-67 -9l63 83q-9 -40 -18.5 -74.5t-19 -65.5t-21.5 -61q-17 -46 -54.5 -60t-107.5 -14
q-73 0 -107.5 25t-34.5 65t42 87.5t120.5 90t188.5 69.5t247 27q159 0 253.5 -42t136 -121.5t41.5 -192.5v-448q0 -32 10 -51t29 -27t49 -8q17 0 37 2t45 7v-123q-60 -38 -131 -61t-146 -23q-80 0 -135.5 31.5t-85.5 99t-37 176.5l13 11q-25 -116 -70 -186.5t-114 -101.5
t-168 -31q-164 0 -251 72.5t-87 216.5q0 76 27.5 135.5t104.5 105.5t222.5 82t380.5 65zM396 1165q-84 0 -122.5 35t-38.5 104q0 68 38.5 100.5t122.5 32.5q82 0 120.5 -32.5t38.5 -100.5q0 -69 -38.5 -104t-120.5 -35zM878 1165q-84 0 -122.5 35t-38.5 104q0 68 38.5 100.5
t122.5 32.5q82 0 120.5 -32.5t38.5 -100.5q0 -69 -38.5 -104t-120.5 -35z" />
    <glyph glyph-name="aring" unicode="&#xe5;" horiz-adv-x="1314" 
d="M822 651l-17 -146q-114 -11 -183 -25.5t-105 -33.5t-48 -46t-12 -64q0 -66 28 -93.5t103 -27.5q50 0 87 14.5t57.5 41.5t20.5 61v377q0 100 -43 147t-147 47q-58 0 -96 -3t-67 -9l63 83q-9 -40 -18.5 -74.5t-19 -65.5t-21.5 -61q-17 -46 -54.5 -60t-107.5 -14
q-73 0 -107.5 25t-34.5 65t42 87.5t120.5 90t188.5 69.5t247 27q159 0 253.5 -42t136 -121.5t41.5 -192.5v-448q0 -32 10 -51t29 -27t49 -8q17 0 37 2t45 7v-123q-60 -38 -131 -61t-146 -23q-80 0 -135.5 31.5t-85.5 99t-37 176.5l13 11q-25 -116 -70 -186.5t-114 -101.5
t-168 -31q-164 0 -251 72.5t-87 216.5q0 76 27.5 135.5t104.5 105.5t222.5 82t380.5 65zM632 1492q86 0 138 -51t52 -135q0 -82 -52 -134t-138 -52q-83 0 -136 52t-53 134q0 84 53 135t136 51zM633 1197q49 0 78 30t29 79q0 52 -29 82.5t-78 30.5t-78.5 -30.5t-29.5 -82.5
q0 -49 29.5 -79t78.5 -30z" />
    <glyph glyph-name="ae" unicode="&#xe6;" horiz-adv-x="1916" 
d="M563 903q-58 0 -96 -3t-67 -9l63 83q-9 -40 -18.5 -74.5t-19 -65.5t-21.5 -61q-17 -46 -54.5 -60t-107.5 -14q-73 0 -107.5 25t-34.5 65t42 87.5t120.5 90t188.5 69.5t247 27q130 0 219 -32.5t142 -85t75 -110.5h-218q60 99 158.5 163.5t248.5 64.5q174 0 284 -59.5
t165 -187.5t61 -332h-802l-3 151h589l-139 -58q2 120 -17 182.5t-58.5 85.5t-99.5 23q-63 0 -105 -25.5t-62 -85.5t-20 -166q0 -136 33 -213t108 -109.5t199 -32.5q69 0 129 6t114.5 16t106.5 23v-128q-98 -64 -182 -103.5t-155.5 -57.5t-133.5 -18q-164 0 -285.5 40
t-195 120.5t-95.5 200.5l44 5q-16 -141 -66.5 -221t-129.5 -112.5t-182 -32.5q-164 0 -251 72.5t-87 216.5q0 76 27.5 135.5t104.5 105.5t222.5 82t380.5 65l-17 -146q-114 -11 -183 -25.5t-105 -33.5t-48 -46t-12 -64q0 -66 28 -93.5t103 -27.5q50 0 87 15.5t57.5 45
t20.5 71.5v362q0 100 -43 147t-147 47z" />
    <glyph glyph-name="ccedilla" unicode="&#xe7;" horiz-adv-x="1188" 
d="M719 1063q153 0 242 -29.5t127 -79t38 -109.5q0 -51 -25.5 -90t-62.5 -60.5t-74 -21.5q-14 0 -44 23t-67.5 57t-76.5 68t-72 57.5t-53 23.5q-67 0 -116.5 -28.5t-76 -94.5t-26.5 -179q0 -133 31.5 -211t102.5 -111t189 -33q96 0 178.5 13t167.5 37v-142
q-105 -67 -188 -106t-149 -56t-124 -17q-175 0 -299 60t-190 177.5t-66 290.5q0 124 41 226.5t121.5 177.5t199 116t272.5 41zM539 -465q-107 0 -142 22t-35 67q0 32 18 47.5t36 15.5q11 0 35.5 -13.5t56 -26.5t63.5 -13q47 0 66 13.5t19 43.5q0 22 -15 36.5t-63.5 26
t-146.5 23.5v37l192 226h144l-196 -223l-8 107q124 -19 186 -46t82 -63.5t20 -84.5q0 -72 -39 -114.5t-110 -61.5t-163 -19z" />
    <glyph glyph-name="egrave" unicode="&#xe8;" horiz-adv-x="1233" 
d="M640 1063q175 0 285 -59.5t164.5 -187.5t60.5 -332h-802l-2 151h524l-75 -58q2 120 -16.5 182.5t-58 85.5t-99.5 23q-64 0 -105 -25.5t-61.5 -85.5t-20.5 -166q0 -136 33 -213t107.5 -109.5t198.5 -32.5q69 0 129.5 6t115 16t106.5 23v-128q-99 -64 -183 -103.5
t-155 -57.5t-134 -18q-180 0 -306 60t-193 177.5t-67 290.5t64.5 299t188.5 194t301 68zM739 1138h-181l-352 263v63h368z" />
    <glyph glyph-name="eacute" unicode="&#xe9;" horiz-adv-x="1233" 
d="M640 1063q175 0 285 -59.5t164.5 -187.5t60.5 -332h-802l-2 151h524l-75 -58q2 120 -16.5 182.5t-58 85.5t-99.5 23q-64 0 -105 -25.5t-61.5 -85.5t-20.5 -166q0 -136 33 -213t107.5 -109.5t198.5 -32.5q69 0 129.5 6t115 16t106.5 23v-128q-99 -64 -183 -103.5
t-155 -57.5t-134 -18q-180 0 -306 60t-193 177.5t-67 290.5t64.5 299t188.5 194t301 68zM529 1138l165 326h368v-63l-352 -263h-181z" />
    <glyph glyph-name="ecircumflex" unicode="&#xea;" horiz-adv-x="1233" 
d="M640 1063q175 0 285 -59.5t164.5 -187.5t60.5 -332h-802l-2 151h524l-75 -58q2 120 -16.5 182.5t-58 85.5t-99.5 23q-64 0 -105 -25.5t-61.5 -85.5t-20.5 -166q0 -136 33 -213t107.5 -109.5t198.5 -32.5q69 0 129.5 6t115 16t106.5 23v-128q-99 -64 -183 -103.5
t-155 -57.5t-134 -18q-180 0 -306 60t-193 177.5t-67 290.5t64.5 299t188.5 194t301 68zM236 1138l260 326h276l260 -326h-236l-200 179h76l-200 -179h-236z" />
    <glyph glyph-name="edieresis" unicode="&#xeb;" horiz-adv-x="1233" 
d="M640 1063q175 0 285 -59.5t164.5 -187.5t60.5 -332h-802l-2 151h524l-75 -58q2 120 -16.5 182.5t-58 85.5t-99.5 23q-64 0 -105 -25.5t-61.5 -85.5t-20.5 -166q0 -136 33 -213t107.5 -109.5t198.5 -32.5q69 0 129.5 6t115 16t106.5 23v-128q-99 -64 -183 -103.5
t-155 -57.5t-134 -18q-180 0 -306 60t-193 177.5t-67 290.5t64.5 299t188.5 194t301 68zM394 1165q-84 0 -122.5 35t-38.5 104q0 68 38.5 100.5t122.5 32.5q82 0 120.5 -32.5t38.5 -100.5q0 -69 -38.5 -104t-120.5 -35zM876 1165q-84 0 -122.5 35t-38.5 104q0 68 38.5 100.5
t122.5 32.5q82 0 120.5 -32.5t38.5 -100.5q0 -69 -38.5 -104t-120.5 -35z" />
    <glyph glyph-name="igrave" unicode="&#xec;" horiz-adv-x="808" 
d="M632 1063l-22 -318v-599l134 -35v-111h-650v111l138 35v582q-11 10 -38.5 31t-61 47t-64.5 51v89l451 117h113zM494 1138h-181l-352 263v63h368z" />
    <glyph glyph-name="iacute" unicode="&#xed;" horiz-adv-x="808" 
d="M632 1063l-22 -318v-599l134 -35v-111h-650v111l138 35v582q-11 10 -38.5 31t-61 47t-64.5 51v89l451 117h113zM284 1138l165 326h368v-63l-352 -263h-181z" />
    <glyph glyph-name="icircumflex" unicode="&#xee;" horiz-adv-x="808" 
d="M632 1063l-22 -318v-599l134 -35v-111h-650v111l138 35v582q-11 10 -38.5 31t-61 47t-64.5 51v89l451 117h113zM-9 1138l260 326h276l260 -326h-236l-200 179h76l-200 -179h-236z" />
    <glyph glyph-name="idieresis" unicode="&#xef;" horiz-adv-x="808" 
d="M632 1063l-22 -318v-599l134 -35v-111h-650v111l138 35v582q-11 10 -38.5 31t-61 47t-64.5 51v89l451 117h113zM149 1165q-84 0 -122.5 35t-38.5 104q0 68 38.5 100.5t122.5 32.5q82 0 120.5 -32.5t38.5 -100.5q0 -69 -38.5 -104t-120.5 -35zM631 1165q-84 0 -122.5 35
t-38.5 104q0 68 38.5 100.5t122.5 32.5q82 0 120.5 -32.5t38.5 -100.5q0 -69 -38.5 -104t-120.5 -35z" />
    <glyph glyph-name="eth" unicode="&#xf0;" horiz-adv-x="1357" 
d="M653 -26q-180 0 -306.5 61.5t-193.5 177t-67 275.5q0 164 59.5 274.5t170 166.5t263.5 56q75 0 133 -23t99.5 -64t65 -95t30.5 -116l-14 2q-1 125 -31.5 217.5t-102.5 164t-196.5 130.5t-313.5 116l66 173q244 -56 410.5 -126.5t271 -155t160 -182t75.5 -208.5t20 -234
q0 -223 -73 -357t-207.5 -193.5t-318.5 -59.5zM662 192q76 0 124.5 28t71 90t22.5 164q0 114 -20.5 184.5t-65.5 103t-118 32.5q-76 0 -124 -28t-71.5 -90t-23.5 -164q0 -114 21 -184.5t66 -103t118 -32.5zM388 1018l-64 105l626 367l64 -105z" />
    <glyph glyph-name="ntilde" unicode="&#xf1;" horiz-adv-x="1522" 
d="M609 826v-689l91 -26v-111h-607v111l138 35v575q-16 14 -55.5 46.5t-107.5 89.5v82l368 126h73zM863 111l92 26v502q0 46 -15 75.5t-50.5 44t-96.5 14.5q-49 0 -105 -8t-109 -21l-19 84q109 85 174.5 133t105.5 69.5t72 27t74 5.5q177 0 262 -82.5t85 -236.5v-598
l139 -35v-111h-609v111zM1146 1459q-12 -132 -38 -200.5t-70.5 -93t-110.5 -24.5q-44 0 -79 16.5t-65 38t-57 38t-53 16.5q-22 0 -36 -8.5t-22.5 -31.5t-15.5 -67h-177q12 132 38 200.5t70.5 93t110.5 24.5q44 0 79 -16.5t65 -38t57 -38t53 -16.5q23 0 36.5 8.5t22 32
t15.5 66.5h177z" />
    <glyph glyph-name="ograve" unicode="&#xf2;" horiz-adv-x="1336" 
d="M661 201q76 0 124.5 30t71.5 95.5t23 171.5q0 120 -21 194.5t-66 109t-118 34.5q-76 0 -124 -29.5t-71 -95.5t-23 -172q0 -120 20.5 -194.5t66 -109t117.5 -34.5zM652 -26q-179 0 -306 64.5t-194 185.5t-67 290q0 172 71 295t205 188.5t323 65.5q180 0 306.5 -64.5
t193.5 -185t67 -290.5q0 -172 -71 -295t-205 -188.5t-323 -65.5zM773 1138h-181l-352 263v63h368z" />
    <glyph glyph-name="oacute" unicode="&#xf3;" horiz-adv-x="1336" 
d="M661 201q76 0 124.5 30t71.5 95.5t23 171.5q0 120 -21 194.5t-66 109t-118 34.5q-76 0 -124 -29.5t-71 -95.5t-23 -172q0 -120 20.5 -194.5t66 -109t117.5 -34.5zM652 -26q-179 0 -306 64.5t-194 185.5t-67 290q0 172 71 295t205 188.5t323 65.5q180 0 306.5 -64.5
t193.5 -185t67 -290.5q0 -172 -71 -295t-205 -188.5t-323 -65.5zM563 1138l165 326h368v-63l-352 -263h-181z" />
    <glyph glyph-name="ocircumflex" unicode="&#xf4;" horiz-adv-x="1336" 
d="M661 201q76 0 124.5 30t71.5 95.5t23 171.5q0 120 -21 194.5t-66 109t-118 34.5q-76 0 -124 -29.5t-71 -95.5t-23 -172q0 -120 20.5 -194.5t66 -109t117.5 -34.5zM652 -26q-179 0 -306 64.5t-194 185.5t-67 290q0 172 71 295t205 188.5t323 65.5q180 0 306.5 -64.5
t193.5 -185t67 -290.5q0 -172 -71 -295t-205 -188.5t-323 -65.5zM270 1138l260 326h276l260 -326h-236l-200 179h76l-200 -179h-236z" />
    <glyph glyph-name="otilde" unicode="&#xf5;" horiz-adv-x="1336" 
d="M661 201q76 0 124.5 30t71.5 95.5t23 171.5q0 120 -21 194.5t-66 109t-118 34.5q-76 0 -124 -29.5t-71 -95.5t-23 -172q0 -120 20.5 -194.5t66 -109t117.5 -34.5zM652 -26q-179 0 -306 64.5t-194 185.5t-67 290q0 172 71 295t205 188.5t323 65.5q180 0 306.5 -64.5
t193.5 -185t67 -290.5q0 -172 -71 -295t-205 -188.5t-323 -65.5zM1028 1459q-12 -132 -38 -200.5t-70.5 -93t-110.5 -24.5q-44 0 -79 16.5t-65 38t-57 38t-53 16.5q-22 0 -36 -8.5t-22.5 -31.5t-15.5 -67h-177q12 132 38 200.5t70.5 93t110.5 24.5q44 0 79 -16.5t65 -38
t57 -38t53 -16.5q23 0 36.5 8.5t22 32t15.5 66.5h177z" />
    <glyph glyph-name="odieresis" unicode="&#xf6;" horiz-adv-x="1336" 
d="M661 201q76 0 124.5 30t71.5 95.5t23 171.5q0 120 -21 194.5t-66 109t-118 34.5q-76 0 -124 -29.5t-71 -95.5t-23 -172q0 -120 20.5 -194.5t66 -109t117.5 -34.5zM652 -26q-179 0 -306 64.5t-194 185.5t-67 290q0 172 71 295t205 188.5t323 65.5q180 0 306.5 -64.5
t193.5 -185t67 -290.5q0 -172 -71 -295t-205 -188.5t-323 -65.5zM428 1165q-84 0 -122.5 35t-38.5 104q0 68 38.5 100.5t122.5 32.5q82 0 120.5 -32.5t38.5 -100.5q0 -69 -38.5 -104t-120.5 -35zM910 1165q-84 0 -122.5 35t-38.5 104q0 68 38.5 100.5t122.5 32.5
q82 0 120.5 -32.5t38.5 -100.5q0 -69 -38.5 -104t-120.5 -35z" />
    <glyph glyph-name="divide" unicode="&#xf7;" horiz-adv-x="1140" 
d="M570 305q77 0 122.5 -42t45.5 -117t-45.5 -117.5t-121.5 -42.5q-78 0 -123.5 42.5t-45.5 117.5t45.5 117t122.5 42zM570 1054q77 0 122.5 -42t45.5 -117t-45.5 -117.5t-121.5 -42.5q-78 0 -123.5 42.5t-45.5 117.5t45.5 117t122.5 42zM120 635h901v-230h-901v230z" />
    <glyph glyph-name="oslash" unicode="&#xf8;" horiz-adv-x="1370" 
d="M78 0l219 223l58 37l574 617l48 37l122 123h193l-220 -223l-58 -37l-574 -617l-48 -37l-122 -123h-192zM678 201q76 0 124.5 30t71 95.5t22.5 171.5q0 120 -20.5 194.5t-65.5 109t-118 34.5q-76 0 -124 -29.5t-71 -95.5t-23 -172q0 -120 20.5 -194.5t65.5 -109t118 -34.5
zM669 -26q-180 0 -306.5 64.5t-193.5 185.5t-67 290q0 172 71 295t205 188.5t323 65.5q179 0 306 -64.5t194 -185t67 -290.5q0 -172 -71 -295t-205 -188.5t-323 -65.5z" />
    <glyph glyph-name="ugrave" unicode="&#xf9;" horiz-adv-x="1473" 
d="M574 386q0 -44 14.5 -70.5t47 -39t86.5 -12.5q41 0 91.5 7.5t103.5 19.5l17 -92q-103 -82 -165.5 -127.5t-101.5 -66.5t-69.5 -26t-70.5 -5q-168 0 -249.5 78.5t-81.5 225.5v551l-164 95v100l564 23l-22 -164v-497zM977 -26l-94 210v678l-62 75v100l447 3l-7 -166v-584
q9 -6 31 -21t49 -33t52.5 -34.5t41.5 -26.5v-74l-403 -127h-55zM816 1138h-181l-352 263v63h368z" />
    <glyph glyph-name="uacute" unicode="&#xfa;" horiz-adv-x="1473" 
d="M574 386q0 -44 14.5 -70.5t47 -39t86.5 -12.5q41 0 91.5 7.5t103.5 19.5l17 -92q-103 -82 -165.5 -127.5t-101.5 -66.5t-69.5 -26t-70.5 -5q-168 0 -249.5 78.5t-81.5 225.5v551l-164 95v100l564 23l-22 -164v-497zM977 -26l-94 210v678l-62 75v100l447 3l-7 -166v-584
q9 -6 31 -21t49 -33t52.5 -34.5t41.5 -26.5v-74l-403 -127h-55zM606 1138l165 326h368v-63l-352 -263h-181z" />
    <glyph glyph-name="ucircumflex" unicode="&#xfb;" horiz-adv-x="1473" 
d="M574 386q0 -44 14.5 -70.5t47 -39t86.5 -12.5q41 0 91.5 7.5t103.5 19.5l17 -92q-103 -82 -165.5 -127.5t-101.5 -66.5t-69.5 -26t-70.5 -5q-168 0 -249.5 78.5t-81.5 225.5v551l-164 95v100l564 23l-22 -164v-497zM977 -26l-94 210v678l-62 75v100l447 3l-7 -166v-584
q9 -6 31 -21t49 -33t52.5 -34.5t41.5 -26.5v-74l-403 -127h-55zM313 1138l260 326h276l260 -326h-236l-200 179h76l-200 -179h-236z" />
    <glyph glyph-name="udieresis" unicode="&#xfc;" horiz-adv-x="1473" 
d="M574 386q0 -44 14.5 -70.5t47 -39t86.5 -12.5q41 0 91.5 7.5t103.5 19.5l17 -92q-103 -82 -165.5 -127.5t-101.5 -66.5t-69.5 -26t-70.5 -5q-168 0 -249.5 78.5t-81.5 225.5v551l-164 95v100l564 23l-22 -164v-497zM977 -26l-94 210v678l-62 75v100l447 3l-7 -166v-584
q9 -6 31 -21t49 -33t52.5 -34.5t41.5 -26.5v-74l-403 -127h-55zM471 1165q-84 0 -122.5 35t-38.5 104q0 68 38.5 100.5t122.5 32.5q82 0 120.5 -32.5t38.5 -100.5q0 -69 -38.5 -104t-120.5 -35zM953 1165q-84 0 -122.5 35t-38.5 104q0 68 38.5 100.5t122.5 32.5
q82 0 120.5 -32.5t38.5 -100.5q0 -69 -38.5 -104t-120.5 -35z" />
    <glyph glyph-name="yacute" unicode="&#xfd;" horiz-adv-x="1402" 
d="M909 173l-245 -247l-519 954l-135 47v110h657v-112l-121 -30zM360 -465q-126 0 -185.5 46.5t-59.5 133.5q0 40 13 73.5t30.5 54t29.5 20.5q19 0 56 -5.5t82.5 -11t92.5 -5.5q58 0 95.5 16.5t63.5 48t49 75.5l35 65l57 81l299 764l-111 34v112h465v-112l-107 -31
l-440 -1015q-52 -120 -118.5 -195.5t-152 -112t-194.5 -36.5zM642 1138l165 326h368v-63l-352 -263h-181z" />
    <glyph glyph-name="thorn" unicode="&#xfe;" horiz-adv-x="1407" 
d="M159 1179q-13 8 -44.5 25.5l-72 40t-79.5 44.5v113l504 88h94l-24 -266v-804q0 -83 21.5 -132t64 -69.5t103.5 -20.5q67 0 116 32t75 102.5t26 185.5q0 166 -61.5 236t-190.5 70q-33 0 -71 -4t-77 -11t-76 -18v84q93 63 155.5 100.5t104.5 56.5t73.5 25t62.5 6
q151 0 252 -61t152 -174t51 -270q0 -189 -64.5 -319.5t-172 -197.5t-236.5 -67q-101 0 -173 40t-111 109t-40 155h15v-571l160 -35v-111h-677v111l140 36v1471z" />
    <glyph glyph-name="ydieresis" unicode="&#xff;" horiz-adv-x="1402" 
d="M909 173l-245 -247l-519 954l-135 47v110h657v-112l-121 -30zM360 -465q-126 0 -185.5 46.5t-59.5 133.5q0 40 13 73.5t30.5 54t29.5 20.5q19 0 56 -5.5t82.5 -11t92.5 -5.5q58 0 95.5 16.5t63.5 48t49 75.5l35 65l57 81l299 764l-111 34v112h465v-112l-107 -31
l-440 -1015q-52 -120 -118.5 -195.5t-152 -112t-194.5 -36.5zM507 1165q-84 0 -122.5 35t-38.5 104q0 68 38.5 100.5t122.5 32.5q82 0 120.5 -32.5t38.5 -100.5q0 -69 -38.5 -104t-120.5 -35zM989 1165q-84 0 -122.5 35t-38.5 104q0 68 38.5 100.5t122.5 32.5
q82 0 120.5 -32.5t38.5 -100.5q0 -69 -38.5 -104t-120.5 -35z" />
    <glyph glyph-name="Amacron" unicode="&#x100;" horiz-adv-x="1851" 
d="M447 404v227h743v-227h-743zM1658 176l185 -51v-125h-809v125l170 38l-404 1087h40l-381 -1083l167 -42v-125h-610v125l168 38l480 1258h507zM571 1625v165h678v-165h-678z" />
    <glyph glyph-name="amacron" unicode="&#x101;" horiz-adv-x="1314" 
d="M822 651l-17 -146q-114 -11 -183 -25.5t-105 -33.5t-48 -46t-12 -64q0 -66 28 -93.5t103 -27.5q50 0 87 14.5t57.5 41.5t20.5 61v377q0 100 -43 147t-147 47q-58 0 -96 -3t-67 -9l63 83q-9 -40 -18.5 -74.5t-19 -65.5t-21.5 -61q-17 -46 -54.5 -60t-107.5 -14
q-73 0 -107.5 25t-34.5 65t42 87.5t120.5 90t188.5 69.5t247 27q159 0 253.5 -42t136 -121.5t41.5 -192.5v-448q0 -32 10 -51t29 -27t49 -8q17 0 37 2t45 7v-123q-60 -38 -131 -61t-146 -23q-80 0 -135.5 31.5t-85.5 99t-37 176.5l13 11q-25 -116 -70 -186.5t-114 -101.5
t-168 -31q-164 0 -251 72.5t-87 216.5q0 76 27.5 135.5t104.5 105.5t222.5 82t380.5 65zM297 1219v165h678v-165h-678z" />
    <glyph glyph-name="Abreve" unicode="&#x102;" horiz-adv-x="1851" 
d="M447 404v227h743v-227h-743zM1658 176l185 -51v-125h-809v125l170 38l-404 1087h40l-381 -1083l167 -42v-125h-610v125l168 38l480 1258h507zM910 1740q89 0 130.5 28.5t61.5 101.5h159q-16 -128 -56.5 -199t-112 -100t-182.5 -29q-110 0 -182 29t-112 100t-57 199h159
q20 -73 62 -101.5t130 -28.5z" />
    <glyph glyph-name="abreve" unicode="&#x103;" horiz-adv-x="1314" 
d="M822 651l-17 -146q-114 -11 -183 -25.5t-105 -33.5t-48 -46t-12 -64q0 -66 28 -93.5t103 -27.5q50 0 87 14.5t57.5 41.5t20.5 61v377q0 100 -43 147t-147 47q-58 0 -96 -3t-67 -9l63 83q-9 -40 -18.5 -74.5t-19 -65.5t-21.5 -61q-17 -46 -54.5 -60t-107.5 -14
q-73 0 -107.5 25t-34.5 65t42 87.5t120.5 90t188.5 69.5t247 27q159 0 253.5 -42t136 -121.5t41.5 -192.5v-448q0 -32 10 -51t29 -27t49 -8q17 0 37 2t45 7v-123q-60 -38 -131 -61t-146 -23q-80 0 -135.5 31.5t-85.5 99t-37 176.5l13 11q-25 -116 -70 -186.5t-114 -101.5
t-168 -31q-164 0 -251 72.5t-87 216.5q0 76 27.5 135.5t104.5 105.5t222.5 82t380.5 65zM636 1334q59 0 96.5 12t60 40.5t35.5 77.5h159q-16 -128 -56.5 -199t-112 -100t-182.5 -29q-110 0 -182 29t-112 100t-57 199h159q14 -49 36 -77.5t59.5 -40.5t96.5 -12z" />
    <glyph glyph-name="Aogonek" unicode="&#x104;" horiz-adv-x="1851" 
d="M447 404v227h743v-227h-743zM1658 176l185 -51v-125h-809v125l170 38l-404 1087h40l-381 -1083l167 -42v-125h-610v125l168 38l480 1258h507zM1487 -76q-41 -65 -54 -100.5t-13 -68.5q0 -37 23.5 -56t59.5 -19q31 0 56 5.5t65 22.5v-96q-43 -29 -75.5 -46t-63.5 -24
t-68 -7q-101 0 -145 44t-44 122q0 34 10 68t40 77.5t92 106.5l121 126h100z" />
    <glyph glyph-name="aogonek" unicode="&#x105;" horiz-adv-x="1317" 
d="M1299 59l-122 -151q-31 -39 -47.5 -66t-22.5 -47t-6 -40q0 -37 23 -56t60 -19q31 0 56 5.5t64 22.5v-96q-42 -29 -75 -46t-63.5 -24t-67.5 -7q-101 0 -145 44t-44 122q0 34 14 68.5t52.5 78t111.5 104.5l64 59l10 -15q-33 -10 -68 -15.5t-71 -5.5q-80 0 -135.5 31.5
t-85.5 99t-37 176.5l13 11q-25 -116 -70 -186.5t-114 -101.5t-168 -31q-164 0 -251 72.5t-87 216.5q0 76 27.5 135.5t104.5 105.5t222.5 82t380.5 65l-17 -146q-114 -11 -183 -25.5t-105 -33.5t-48 -46t-12 -64q0 -66 28 -93.5t103 -27.5q50 0 87 14.5t57.5 41.5t20.5 61
v377q0 100 -43 147t-147 47q-58 0 -96 -3t-67 -9l63 83q-13 -61 -27.5 -108.5t-31.5 -92.5q-17 -46 -54.5 -60t-107.5 -14q-73 0 -107.5 25t-34.5 65t42 87.5t120.5 90t188.5 69.5t247 27q159 0 253.5 -42t136 -121.5t41.5 -192.5v-448q0 -32 10 -51t29 -27t49 -8q17 0 37 2
t45 7v-123z" />
    <glyph glyph-name="Cacute" unicode="&#x106;" horiz-adv-x="1607" 
d="M1026 205q79 0 166 16.5t164 48.5l-199 -151l188 385h157l-49 -448q-108 -41 -233 -61.5t-268 -20.5q-214 0 -373.5 44.5t-265.5 133.5t-158.5 223.5t-52.5 314.5q1 226 92.5 394.5t277 262t467.5 93.5q101 0 197 -15.5t191 -44.5l-106 -11l114 133h145v-590h-185
l-122 367l154 -178q-88 53 -172 74.5t-188 21.5q-115 0 -197 -25.5t-134 -81t-77 -143t-27 -211.5q-2 -140 29 -241t93.5 -165t155.5 -94.5t216 -30.5zM760 1544l165 326h368v-63l-352 -263h-181z" />
    <glyph glyph-name="cacute" unicode="&#x107;" horiz-adv-x="1188" 
d="M719 1063q153 0 242 -29.5t127 -79t38 -109.5q0 -51 -25.5 -90t-62.5 -60.5t-74 -21.5q-14 0 -44 23t-67.5 57t-76.5 68t-72 57.5t-53 23.5q-69 0 -118.5 -28.5t-75 -94.5t-25.5 -179q0 -133 31.5 -211t102.5 -111t189 -33q96 0 178.5 13t167.5 37v-142
q-105 -67 -188 -106t-149 -56t-124 -17q-175 0 -299 60t-190 177.5t-66 290.5q0 124 40.5 226.5t120.5 177.5t198.5 116t274.5 41zM528 1138l165 326h368v-63l-352 -263h-181z" />
    <glyph glyph-name="Ccircumflex" unicode="&#x108;" horiz-adv-x="1607" 
d="M1026 205q79 0 166 16.5t164 48.5l-199 -151l188 385h157l-49 -448q-108 -41 -233 -61.5t-268 -20.5q-214 0 -373.5 44.5t-265.5 133.5t-158.5 223.5t-52.5 314.5q1 226 92.5 394.5t277 262t467.5 93.5q101 0 197 -15.5t191 -44.5l-106 -11l114 133h145v-590h-185
l-122 367l154 -178q-88 53 -172 74.5t-188 21.5q-115 0 -197 -25.5t-134 -81t-77 -143t-27 -211.5q-2 -140 29 -241t93.5 -165t155.5 -94.5t216 -30.5zM827 1723h76l-200 -179h-236l260 326h276l260 -326h-236z" />
    <glyph glyph-name="ccircumflex" unicode="&#x109;" horiz-adv-x="1188" 
d="M719 1063q153 0 242 -29.5t127 -79t38 -109.5q0 -51 -25.5 -90t-62.5 -60.5t-74 -21.5q-14 0 -44 23t-67.5 57t-76.5 68t-72 57.5t-53 23.5q-69 0 -118.5 -28.5t-75 -94.5t-25.5 -179q0 -133 31.5 -211t102.5 -111t189 -33q96 0 178.5 13t167.5 37v-142
q-105 -67 -188 -106t-149 -56t-124 -17q-175 0 -299 60t-190 177.5t-66 290.5q0 124 40.5 226.5t120.5 177.5t198.5 116t274.5 41zM235 1138l260 326h276l260 -326h-236l-200 179h76l-200 -179h-236z" />
    <glyph glyph-name="Cdotaccent" unicode="&#x10a;" horiz-adv-x="1607" 
d="M1026 205q79 0 166 16.5t164 48.5l-199 -151l188 385h157l-49 -448q-108 -41 -233 -61.5t-268 -20.5q-214 0 -373.5 44.5t-265.5 133.5t-158.5 223.5t-52.5 314.5q1 226 92.5 394.5t277 262t467.5 93.5q101 0 197 -15.5t191 -44.5l-106 -11l114 133h145v-590h-185
l-122 367l154 -178q-88 53 -172 74.5t-188 21.5q-115 0 -197 -25.5t-134 -81t-77 -143t-27 -211.5q-2 -140 29 -241t93.5 -165t155.5 -94.5t216 -30.5zM865 1563q-101 0 -149 37.5t-48 109.5t48 106.5t149 34.5q102 0 149.5 -34.5t47.5 -106.5t-47.5 -109.5t-149.5 -37.5z
" />
    <glyph glyph-name="cdotaccent" unicode="&#x10b;" horiz-adv-x="1188" 
d="M719 1063q153 0 242 -29.5t127 -79t38 -109.5q0 -51 -25.5 -90t-62.5 -60.5t-74 -21.5q-14 0 -44 23t-67.5 57t-76.5 68t-72 57.5t-53 23.5q-69 0 -118.5 -28.5t-75 -94.5t-25.5 -179q0 -133 31.5 -211t102.5 -111t189 -33q96 0 178.5 13t167.5 37v-142
q-105 -67 -188 -106t-149 -56t-124 -17q-175 0 -299 60t-190 177.5t-66 290.5q0 124 40.5 226.5t120.5 177.5t198.5 116t274.5 41zM633 1157q-101 0 -149 37.5t-48 109.5t48 106.5t149 34.5q102 0 149.5 -34.5t47.5 -106.5t-47.5 -109.5t-149.5 -37.5z" />
    <glyph glyph-name="Ccaron" unicode="&#x10c;" horiz-adv-x="1607" 
d="M1026 205q79 0 166 16.5t164 48.5l-199 -151l188 385h157l-49 -448q-108 -41 -233 -61.5t-268 -20.5q-214 0 -373.5 44.5t-265.5 133.5t-158.5 223.5t-52.5 314.5q1 226 92.5 394.5t277 262t467.5 93.5q101 0 197 -15.5t191 -44.5l-106 -11l114 133h145v-590h-185
l-122 367l154 -178q-88 53 -172 74.5t-188 21.5q-115 0 -197 -25.5t-134 -81t-77 -143t-27 -211.5q-2 -140 29 -241t93.5 -165t155.5 -94.5t216 -30.5zM903 1691h-76l200 179h236l-260 -326h-276l-260 326h236z" />
    <glyph glyph-name="ccaron" unicode="&#x10d;" horiz-adv-x="1188" 
d="M719 1063q153 0 242 -29.5t127 -79t38 -109.5q0 -51 -25.5 -90t-62.5 -60.5t-74 -21.5q-14 0 -44 23t-67.5 57t-76.5 68t-72 57.5t-53 23.5q-69 0 -118.5 -28.5t-75 -94.5t-25.5 -179q0 -133 31.5 -211t102.5 -111t189 -33q96 0 178.5 13t167.5 37v-142
q-105 -67 -188 -106t-149 -56t-124 -17q-175 0 -299 60t-190 177.5t-66 290.5q0 124 40.5 226.5t120.5 177.5t198.5 116t274.5 41zM671 1285h-76l200 179h236l-260 -326h-276l-260 326h236z" />
    <glyph glyph-name="Dcaron" unicode="&#x10e;" horiz-adv-x="1786" 
d="M1247 722q0 233 -85.5 340t-294.5 107h-355l-35 245h456q248 0 414.5 -77.5t250.5 -228.5t84 -372q0 -239 -94 -403.5t-264 -248.5t-400 -84h-447l35 245h402q115 0 188.5 49t109 154t35.5 274zM100 0v125l177 48v1068l-177 47v126h603v-1414h-603zM922 1691h-76l200 179
h236l-260 -326h-276l-260 326h236z" />
    <glyph glyph-name="dcaron" unicode="&#x10f;" horiz-adv-x="1535" 
d="M868 659q0 102 -37 148.5t-127 46.5q-78 0 -132 -33.5t-82 -106t-28 -193.5q0 -112 26.5 -180t82 -98t142.5 -30q52 0 112 10.5t119 29.5v-60q-104 -75 -170.5 -120t-108.5 -66t-71 -27t-59 -6q-150 0 -249 61t-149 174.5t-50 268.5q0 137 46.5 245t130 184t195.5 116
t242 40q78 0 141.5 -9.5t125 -32.5t133.5 -63l-233 -17v271q-12 4 -48 18.5t-77.5 31t-70.5 27.5v113l504 88h94l-24 -266v-934q9 -6 31 -21t49 -33t52.5 -34.5t41.5 -26.5v-74l-404 -127h-54l-94 224v461zM1365 1019l51 413h306v-52l-183 -361h-174z" />
    <glyph glyph-name="Dcroat" unicode="&#x110;" horiz-adv-x="1790" 
d="M104 620v189h861v-189h-861zM1251 722q0 233 -85.5 340t-294.5 107h-355l-35 245h456q248 0 414.5 -77.5t250.5 -228.5t84 -372q0 -239 -94 -403.5t-264 -248.5t-400 -84h-447l35 245h402q115 0 188.5 49t109 154t35.5 274zM104 0v125l177 48v1068l-177 47v126h603v-1414
h-603z" />
    <glyph glyph-name="dcroat" unicode="&#x111;" horiz-adv-x="1452" 
d="M868 659q0 102 -37 148.5t-127 46.5q-78 0 -132 -33.5t-82 -106t-28 -193.5q0 -112 26.5 -180t82 -98t142.5 -30q52 0 112 10.5t119 29.5v-60q-104 -75 -170.5 -120t-108.5 -66t-71 -27t-59 -6q-150 0 -249 61t-149 174.5t-50 268.5q0 137 46.5 245t130 184t195.5 116
t242 40q78 0 141.5 -9.5t125 -32.5t133.5 -63l-233 -17v338q-8 8 -25 17t-35 19t-32 18v113l400 44h94l-24 -266v-934q9 -6 31 -21t49 -33t52.5 -34.5t41.5 -26.5v-74l-404 -127h-54l-94 224v461zM615 1131v126h790v-126h-790z" />
    <glyph glyph-name="Emacron" unicode="&#x112;" horiz-adv-x="1642" 
d="M1146 990v-255v-255h-166l-17 159h-468v196h468l17 155h166zM1507 981h-181l-127 352l127 -140h-831v221h769l112 88h131v-521zM1174 84l203 415h187l-94 -591h-151l-82 92h-742v221h792zM100 0v125l177 48v1068l-177 48v125h603v-1414h-603zM492 1625v165h678v-165h-678
z" />
    <glyph glyph-name="emacron" unicode="&#x113;" horiz-adv-x="1233" 
d="M640 1063q175 0 285 -59.5t164.5 -187.5t60.5 -332h-802l-2 151h524l-75 -58q2 120 -16.5 182.5t-58 85.5t-99.5 23q-64 0 -105 -25.5t-61.5 -85.5t-20.5 -166q0 -136 33 -213t107.5 -109.5t198.5 -32.5q69 0 129.5 6t115 16t106.5 23v-128q-99 -64 -183 -103.5
t-155 -57.5t-134 -18q-180 0 -306 60t-193 177.5t-67 290.5t64.5 299t188.5 194t301 68zM295 1219v165h678v-165h-678z" />
    <glyph glyph-name="Ebreve" unicode="&#x114;" horiz-adv-x="1642" 
d="M1146 990v-255v-255h-166l-17 159h-468v196h468l17 155h166zM1507 981h-181l-127 352l127 -140h-831v221h769l112 88h131v-521zM1174 84l203 415h187l-94 -591h-151l-82 92h-742v221h792zM100 0v125l177 48v1068l-177 48v125h603v-1414h-603zM831 1740q89 0 130.5 28.5
t61.5 101.5h159q-16 -128 -56.5 -199t-112 -100t-182.5 -29q-110 0 -182 29t-112 100t-57 199h159q20 -73 62 -101.5t130 -28.5z" />
    <glyph glyph-name="ebreve" unicode="&#x115;" horiz-adv-x="1233" 
d="M640 1063q175 0 285 -59.5t164.5 -187.5t60.5 -332h-802l-2 151h524l-75 -58q2 120 -16.5 182.5t-58 85.5t-99.5 23q-64 0 -105 -25.5t-61.5 -85.5t-20.5 -166q0 -136 33 -213t107.5 -109.5t198.5 -32.5q69 0 129.5 6t115 16t106.5 23v-128q-99 -64 -183 -103.5
t-155 -57.5t-134 -18q-180 0 -306 60t-193 177.5t-67 290.5t64.5 299t188.5 194t301 68zM634 1334q59 0 96.5 12t60 40.5t35.5 77.5h159q-16 -128 -56.5 -199t-112 -100t-182.5 -29q-110 0 -182 29t-112 100t-57 199h159q14 -49 36 -77.5t59.5 -40.5t96.5 -12z" />
    <glyph glyph-name="Edotaccent" unicode="&#x116;" horiz-adv-x="1642" 
d="M1146 990v-255v-255h-166l-17 159h-468v196h468l17 155h166zM1507 981h-181l-127 352l127 -140h-831v221h769l112 88h131v-521zM1174 84l203 415h187l-94 -591h-151l-82 92h-742v221h792zM100 0v125l177 48v1068l-177 48v125h603v-1414h-603zM831 1563q-101 0 -149 37.5
t-48 109.5t48 106.5t149 34.5q102 0 149.5 -34.5t47.5 -106.5t-47.5 -109.5t-149.5 -37.5z" />
    <glyph glyph-name="edotaccent" unicode="&#x117;" horiz-adv-x="1233" 
d="M640 1063q175 0 285 -59.5t164.5 -187.5t60.5 -332h-802l-2 151h524l-75 -58q2 120 -16.5 182.5t-58 85.5t-99.5 23q-64 0 -105 -25.5t-61.5 -85.5t-20.5 -166q0 -136 33 -213t107.5 -109.5t198.5 -32.5q69 0 129.5 6t115 16t106.5 23v-128q-99 -64 -183 -103.5
t-155 -57.5t-134 -18q-180 0 -306 60t-193 177.5t-67 290.5t64.5 299t188.5 194t301 68zM634 1157q-101 0 -149 37.5t-48 109.5t48 106.5t149 34.5q102 0 149.5 -34.5t47.5 -106.5t-47.5 -109.5t-149.5 -37.5z" />
    <glyph glyph-name="Eogonek" unicode="&#x118;" horiz-adv-x="1642" 
d="M1146 990v-255v-255h-166l-17 159h-468v196h468l17 155h166zM1507 981h-181l-127 352l127 -140h-831v221h769l112 88h131v-521zM1174 84l203 415h187l-94 -591h-151l-82 92h-742v221h792zM100 0v125l177 48v1068l-177 48v125h603v-1414h-603zM1238 -71q-23 -42 -36 -71.5
t-18 -52t-5 -42.5q0 -42 21.5 -62.5t61.5 -20.5q31 0 56 5.5t65 22.5v-96q-43 -29 -75.5 -46t-63.5 -24t-68 -7q-101 0 -145 44t-44 122q0 34 9 69.5t36.5 80t80.5 108.5l101 120h100z" />
    <glyph glyph-name="eogonek" unicode="&#x119;" horiz-adv-x="1235" 
d="M1124 153l-127 -194q-30 -46 -46.5 -82t-22.5 -63.5t-6 -49.5q0 -46 24 -65t63 -19q31 0 55.5 5.5t64.5 22.5v-96q-43 -29 -74.5 -46t-61 -24t-66.5 -7q-104 0 -150 44.5t-46 125.5q0 44 15 86.5t52 94t104 123.5l69 76l12 -14q-99 -51 -180.5 -74t-150.5 -23
q-180 0 -306 60t-193 177.5t-67 290.5t64.5 299t188.5 194t301 68q175 0 285 -59.5t164.5 -187.5t60.5 -332h-802l-2 151h524l-75 -58q2 120 -16.5 182.5t-58 85.5t-99.5 23q-64 0 -105 -25.5t-61.5 -85.5t-20.5 -166q0 -136 33 -213t107.5 -109.5t198.5 -32.5q69 0 129.5 6
t115 16t106.5 23v-128z" />
    <glyph glyph-name="Ecaron" unicode="&#x11a;" horiz-adv-x="1642" 
d="M1146 990v-255v-255h-166l-17 159h-468v196h468l17 155h166zM1507 981h-181l-127 352l127 -140h-831v221h769l112 88h131v-521zM1174 84l203 415h187l-94 -591h-151l-82 92h-742v221h792zM100 0v125l177 48v1068l-177 48v125h603v-1414h-603zM869 1691h-76l200 179h236
l-260 -326h-276l-260 326h236z" />
    <glyph glyph-name="ecaron" unicode="&#x11b;" horiz-adv-x="1233" 
d="M640 1063q175 0 285 -59.5t164.5 -187.5t60.5 -332h-802l-2 151h524l-75 -58q2 120 -16.5 182.5t-58 85.5t-99.5 23q-64 0 -105 -25.5t-61.5 -85.5t-20.5 -166q0 -136 33 -213t107.5 -109.5t198.5 -32.5q69 0 129.5 6t115 16t106.5 23v-128q-99 -64 -183 -103.5
t-155 -57.5t-134 -18q-180 0 -306 60t-193 177.5t-67 290.5t64.5 299t188.5 194t301 68zM672 1285h-76l200 179h236l-260 -326h-276l-260 326h236z" />
    <glyph glyph-name="Gcircumflex" unicode="&#x11c;" horiz-adv-x="1749" 
d="M1532 247h117v-124q-101 -45 -217 -79t-238 -52t-242 -18q-214 0 -373.5 44.5t-265.5 133.5t-158.5 223.5t-52.5 314.5q1 226 95 394.5t284.5 262.5t480.5 94q101 0 197 -16t191 -45l-106 -11l114 133h144v-583h-184l-122 360l154 -178q-88 53 -172 74.5t-188 21.5
q-121 0 -207 -25.5t-141 -81t-81.5 -143t-28.5 -211.5q-2 -185 53 -300t166 -168.5t275 -53.5q52 0 100.5 6t96.5 21t98 39l-214 -254v484l-172 55v112h730v-112l-133 -61v-257zM846 1723h76l-200 -179h-236l260 326h276l260 -326h-236z" />
    <glyph glyph-name="gcircumflex" unicode="&#x11d;" horiz-adv-x="1291" 
d="M602 -465q-164 0 -271 14t-169 41t-87 66t-25 88q0 44 22 78t72.5 57.5t134 36t206.5 12.5l107 1v-14q-87 0 -138 -12t-73 -35t-22 -59q0 -42 24.5 -67.5t86.5 -37t173 -11.5q125 0 198.5 13.5t105 40t31.5 64.5q0 26 -10.5 44t-48.5 29.5t-118.5 16.5t-221.5 5
t-232.5 17t-144.5 48.5t-74.5 75t-21.5 96.5q0 97 81 154.5t271 67.5l2 -34q-60 -1 -82 -15.5t-22 -45.5q0 -22 9 -36.5t45 -23.5t116.5 -13t224.5 -4q143 0 241.5 -16t158 -50.5t86 -90t26.5 -135.5q0 -115 -73 -197t-219.5 -125.5t-368.5 -43.5zM595 321q-161 0 -272 40.5
t-168 123.5t-57 207q0 125 61 207.5t173 123t263 40.5q114 0 204.5 -25t155.5 -73t99.5 -117t34.5 -156q0 -126 -61 -208t-171.5 -122.5t-261.5 -40.5zM602 496q68 0 109 45t41 170q0 111 -37.5 151t-120.5 40q-70 0 -111.5 -45.5t-41.5 -170.5q0 -110 38.5 -150t122.5 -40z
M783 938l-39 99q61 0 130 1t135.5 2.5t120 2.5t83.5 1q29 0 36.5 -13t7.5 -58q0 -73 -7.5 -96.5t-24.5 -23.5q-12 0 -39.5 4t-77.5 13.5t-129 26t-196 41.5zM209 1138l260 326h276l260 -326h-236l-200 179h76l-200 -179h-236z" />
    <glyph glyph-name="Gbreve" unicode="&#x11e;" horiz-adv-x="1749" 
d="M1532 247h117v-124q-101 -45 -217 -79t-238 -52t-242 -18q-214 0 -373.5 44.5t-265.5 133.5t-158.5 223.5t-52.5 314.5q1 226 95 394.5t284.5 262.5t480.5 94q101 0 197 -16t191 -45l-106 -11l114 133h144v-583h-184l-122 360l154 -178q-88 53 -172 74.5t-188 21.5
q-121 0 -207 -25.5t-141 -81t-81.5 -143t-28.5 -211.5q-2 -185 53 -300t166 -168.5t275 -53.5q52 0 100.5 6t96.5 21t98 39l-214 -254v484l-172 55v112h730v-112l-133 -61v-257zM884 1740q89 0 130.5 28.5t61.5 101.5h159q-16 -128 -56.5 -199t-112 -100t-182.5 -29
q-110 0 -182 29t-112 100t-57 199h159q20 -73 62 -101.5t130 -28.5z" />
    <glyph glyph-name="gbreve" unicode="&#x11f;" horiz-adv-x="1291" 
d="M602 -465q-164 0 -271 14t-169 41t-87 66t-25 88q0 44 22 78t72.5 57.5t134 36t206.5 12.5l107 1v-14q-87 0 -138 -12t-73 -35t-22 -59q0 -42 24.5 -67.5t86.5 -37t173 -11.5q125 0 198.5 13.5t105 40t31.5 64.5q0 26 -10.5 44t-48.5 29.5t-118.5 16.5t-221.5 5
t-232.5 17t-144.5 48.5t-74.5 75t-21.5 96.5q0 97 81 154.5t271 67.5l2 -34q-60 -1 -82 -15.5t-22 -45.5q0 -22 9 -36.5t45 -23.5t116.5 -13t224.5 -4q143 0 241.5 -16t158 -50.5t86 -90t26.5 -135.5q0 -115 -73 -197t-219.5 -125.5t-368.5 -43.5zM595 321q-161 0 -272 40.5
t-168 123.5t-57 207q0 125 61 207.5t173 123t263 40.5q114 0 204.5 -25t155.5 -73t99.5 -117t34.5 -156q0 -126 -61 -208t-171.5 -122.5t-261.5 -40.5zM602 496q68 0 109 45t41 170q0 111 -37.5 151t-120.5 40q-70 0 -111.5 -45.5t-41.5 -170.5q0 -110 38.5 -150t122.5 -40z
M783 938l-39 99q61 0 130 1t135.5 2.5t120 2.5t83.5 1q29 0 36.5 -13t7.5 -58q0 -73 -7.5 -96.5t-24.5 -23.5q-12 0 -39.5 4t-77.5 13.5t-129 26t-196 41.5zM607 1334q59 0 96.5 12t60 40.5t35.5 77.5h159q-16 -128 -56.5 -199t-112 -100t-182.5 -29q-110 0 -182 29
t-112 100t-57 199h159q14 -49 36 -77.5t59.5 -40.5t96.5 -12z" />
    <glyph glyph-name="Gdotaccent" unicode="&#x120;" horiz-adv-x="1749" 
d="M1532 247h117v-124q-101 -45 -217 -79t-238 -52t-242 -18q-214 0 -373.5 44.5t-265.5 133.5t-158.5 223.5t-52.5 314.5q1 226 95 394.5t284.5 262.5t480.5 94q101 0 197 -16t191 -45l-106 -11l114 133h144v-583h-184l-122 360l154 -178q-88 53 -172 74.5t-188 21.5
q-121 0 -207 -25.5t-141 -81t-81.5 -143t-28.5 -211.5q-2 -185 53 -300t166 -168.5t275 -53.5q52 0 100.5 6t96.5 21t98 39l-214 -254v484l-172 55v112h730v-112l-133 -61v-257zM884 1563q-101 0 -149 37.5t-48 109.5t48 106.5t149 34.5q102 0 149.5 -34.5t47.5 -106.5
t-47.5 -109.5t-149.5 -37.5z" />
    <glyph glyph-name="gdotaccent" unicode="&#x121;" horiz-adv-x="1291" 
d="M602 -465q-164 0 -271 14t-169 41t-87 66t-25 88q0 44 22 78t72.5 57.5t134 36t206.5 12.5l107 1v-14q-87 0 -138 -12t-73 -35t-22 -59q0 -42 24.5 -67.5t86.5 -37t173 -11.5q125 0 198.5 13.5t105 40t31.5 64.5q0 26 -10.5 44t-48.5 29.5t-118.5 16.5t-221.5 5
t-232.5 17t-144.5 48.5t-74.5 75t-21.5 96.5q0 97 81 154.5t271 67.5l2 -34q-60 -1 -82 -15.5t-22 -45.5q0 -22 9 -36.5t45 -23.5t116.5 -13t224.5 -4q143 0 241.5 -16t158 -50.5t86 -90t26.5 -135.5q0 -115 -73 -197t-219.5 -125.5t-368.5 -43.5zM595 321q-161 0 -272 40.5
t-168 123.5t-57 207q0 125 61 207.5t173 123t263 40.5q114 0 204.5 -25t155.5 -73t99.5 -117t34.5 -156q0 -126 -61 -208t-171.5 -122.5t-261.5 -40.5zM602 496q68 0 109 45t41 170q0 111 -37.5 151t-120.5 40q-70 0 -111.5 -45.5t-41.5 -170.5q0 -110 38.5 -150t122.5 -40z
M783 938l-39 99q61 0 130 1t135.5 2.5t120 2.5t83.5 1q29 0 36.5 -13t7.5 -58q0 -73 -7.5 -96.5t-24.5 -23.5q-12 0 -39.5 4t-77.5 13.5t-129 26t-196 41.5zM607 1157q-101 0 -149 37.5t-48 109.5t48 106.5t149 34.5q102 0 149.5 -34.5t47.5 -106.5t-47.5 -109.5
t-149.5 -37.5z" />
    <glyph glyph-name="uni0122" unicode="&#x122;" horiz-adv-x="1749" 
d="M1532 247h117v-124q-101 -45 -217 -79t-238 -52t-242 -18q-214 0 -373.5 44.5t-265.5 133.5t-158.5 223.5t-52.5 314.5q1 226 95 394.5t284.5 262.5t480.5 94q101 0 197 -16t191 -45l-106 -11l114 133h144v-583h-184l-122 360l154 -178q-88 53 -172 74.5t-188 21.5
q-121 0 -207 -25.5t-141 -81t-81.5 -143t-28.5 -211.5q-2 -185 53 -300t166 -168.5t275 -53.5q52 0 100.5 6t96.5 21t98 39l-214 -254v484l-172 55v112h730v-112l-133 -61v-257zM1035 1662q0 -59 -34 -94t-115 -35q-68 0 -107 34.5t-39 122.5q0 50 23 96.5t83 81.5t172 49
l16 -92q-68 -9 -90.5 -26t-22.5 -46q0 -24 17 -38.5t40 -23t40 -15t17 -14.5z" />
    <glyph glyph-name="uni0123" unicode="&#x123;" horiz-adv-x="1291" 
d="M602 -465q-164 0 -271 14t-169 41t-87 66t-25 88q0 44 22 78t72.5 57.5t134 36t206.5 12.5l107 1v-14q-87 0 -138 -12t-73 -35t-22 -59q0 -42 24.5 -67.5t86.5 -37t173 -11.5q125 0 198.5 13.5t105 40t31.5 64.5q0 26 -10.5 44t-48.5 29.5t-118.5 16.5t-221.5 5
t-232.5 17t-144.5 48.5t-74.5 75t-21.5 96.5q0 97 81 154.5t271 67.5l2 -34q-60 -1 -82 -15.5t-22 -45.5q0 -22 9 -36.5t45 -23.5t116.5 -13t224.5 -4q143 0 241.5 -16t158 -50.5t86 -90t26.5 -135.5q0 -115 -73 -197t-219.5 -125.5t-368.5 -43.5zM595 321q-161 0 -272 40.5
t-168 123.5t-57 207q0 125 61 207.5t173 123t263 40.5q114 0 204.5 -25t155.5 -73t99.5 -117t34.5 -156q0 -126 -61 -208t-171.5 -122.5t-261.5 -40.5zM602 496q68 0 109 45t41 170q0 111 -37.5 151t-120.5 40q-70 0 -111.5 -45.5t-41.5 -170.5q0 -110 38.5 -150t122.5 -40z
M783 938l-39 99q61 0 130 1t135.5 2.5t120 2.5t83.5 1q29 0 36.5 -13t7.5 -58q0 -73 -7.5 -96.5t-24.5 -23.5q-12 0 -39.5 4t-77.5 13.5t-129 26t-196 41.5zM758 1256q0 -59 -34 -94t-115 -35q-68 0 -107 34.5t-39 122.5q0 50 23 96.5t83 81.5t172 49l16 -92
q-68 -9 -90.5 -26t-22.5 -46q0 -24 17 -38.5t40 -23t40 -15t17 -14.5z" />
    <glyph glyph-name="Hcircumflex" unicode="&#x124;" horiz-adv-x="1963" 
d="M703 173l178 -47v-126h-781v125l177 48v1068l-177 47v126h781v-125l-178 -48v-1068zM1686 173l177 -47v-126h-781v125l178 48v1068l-178 47v126h781v-125l-177 -48v-1068zM479 599v246h1006v-246h-1006zM944 1723h76l-200 -179h-236l260 326h276l260 -326h-236z" />
    <glyph glyph-name="hcircumflex" unicode="&#x125;" horiz-adv-x="1489" 
d="M830 111l91 26v502q0 46 -15 75.5t-50.5 44t-96.5 14.5q-49 0 -105 -8t-109 -21l-18 84q109 85 174 133t105 69.5t72 27t74 5.5q177 0 262 -82.5t85 -236.5v-598l139 -35v-111h-608v111zM667 0h-607v111l138 35v1033q-13 8 -44.5 25.5l-72 40t-79.5 44.5v113l504 88h94
l-24 -266v-1087l91 -26v-111zM738 1763h76l-200 -179h-236l260 326h276l260 -326h-236z" />
    <glyph glyph-name="Hbar" unicode="&#x126;" horiz-adv-x="1970" 
d="M706 173l178 -47v-126h-781v125l178 48v1068l-178 47v126h781v-125l-178 -48v-1068zM1689 173l178 -47v-126h-781v125l178 48v1068l-178 47v126h781v-125l-178 -48v-1068zM103 978v190h1764v-190h-1764zM483 599v246h1006v-246h-1006z" />
    <glyph glyph-name="hbar" unicode="&#x127;" horiz-adv-x="1489" 
d="M830 111l91 26v502q0 46 -15 75.5t-50.5 44t-96.5 14.5q-49 0 -105 -8t-109 -21l-18 84q109 85 174 133t105 69.5t72 27t74 5.5q177 0 262 -82.5t85 -236.5v-598l139 -35v-111h-608v111zM667 0h-607v111l138 35v1046q-8 34 -25 64.5t-35 60t-32 56.5v73l400 44h94
l-24 -266v-1087l91 -26v-111zM39 1131v126h790v-126h-790z" />
    <glyph glyph-name="Itilde" unicode="&#x128;" horiz-adv-x="980" 
d="M881 126v-126h-781v125l177 48v1068l-177 47v126h781v-125l-178 -48v-1068zM855 1865q-12 -132 -38 -200.5t-70.5 -93t-110.5 -24.5q-44 0 -80.5 16.5t-68.5 38t-60.5 38t-54.5 16.5q-22 0 -36 -8.5t-22.5 -31.5t-15.5 -67h-177q12 132 38 200.5t70.5 93t110.5 24.5
q44 0 80.5 -16.5t68.5 -38t60.5 -38t54.5 -16.5q23 0 36.5 8.5t22 32t14.5 66.5h178z" />
    <glyph glyph-name="itilde" unicode="&#x129;" horiz-adv-x="808" 
d="M632 1063l-22 -318v-599l134 -35v-111h-650v111l138 35v582q-11 10 -38.5 31t-61 47t-64.5 51v89l451 117h113zM749 1459q-12 -132 -38 -200.5t-70.5 -93t-110.5 -24.5q-44 0 -79 16.5t-65 38t-57 38t-53 16.5q-22 0 -36 -8.5t-22.5 -31.5t-15.5 -67h-177
q12 132 38 200.5t70.5 93t110.5 24.5q44 0 79 -16.5t65 -38t57 -38t53 -16.5q23 0 36.5 8.5t22 32t15.5 66.5h177z" />
    <glyph glyph-name="Imacron" unicode="&#x12a;" horiz-adv-x="980" 
d="M881 126v-126h-781v125l177 48v1068l-177 47v126h781v-125l-178 -48v-1068zM151 1625v165h678v-165h-678z" />
    <glyph glyph-name="imacron" unicode="&#x12b;" horiz-adv-x="808" 
d="M632 1063l-22 -318v-599l134 -35v-111h-650v111l138 35v582q-11 10 -38.5 31t-61 47t-64.5 51v89l451 117h113zM50 1219v165h678v-165h-678z" />
    <glyph glyph-name="Ibreve" unicode="&#x12c;" horiz-adv-x="980" 
d="M881 126v-126h-781v125l177 48v1068l-177 47v126h781v-125l-178 -48v-1068zM490 1740q89 0 130.5 28.5t61.5 101.5h159q-16 -128 -56.5 -199t-112 -100t-182.5 -29q-110 0 -182 29t-112 100t-57 199h159q20 -73 62 -101.5t130 -28.5z" />
    <glyph glyph-name="ibreve" unicode="&#x12d;" horiz-adv-x="808" 
d="M632 1063l-22 -318v-599l134 -35v-111h-650v111l138 35v582q-11 10 -38.5 31t-61 47t-64.5 51v89l451 117h113zM389 1334q59 0 96.5 12t60 40.5t35.5 77.5h159q-16 -128 -56.5 -199t-112 -100t-182.5 -29q-110 0 -182 29t-112 100t-57 199h159q14 -49 36 -77.5
t59.5 -40.5t96.5 -12z" />
    <glyph glyph-name="Iogonek" unicode="&#x12e;" horiz-adv-x="980" 
d="M881 125v-125h-781v125l177 48v1068l-177 48v125h781v-125l-178 -48v-1068zM521 -68q-21 -44 -31.5 -75.5t-14.5 -55.5t-4 -46q0 -37 23.5 -56t59.5 -19q31 0 56 5.5t65 22.5v-96q-43 -29 -75.5 -46t-63.5 -24t-68 -7q-101 0 -145 44t-44 122q0 34 8.5 68t34 77.5
t75.5 108.5l95 124h100z" />
    <glyph glyph-name="iogonek" unicode="&#x12f;" horiz-adv-x="808" 
d="M410 1181q-119 0 -178 39.5t-59 117.5t59 115t178 37q120 0 179 -37t59 -115t-59 -117.5t-179 -39.5zM632 1063l-22 -318v-599l134 -35v-111h-650v111l138 35v582q-11 10 -38.5 31t-61 47t-64.5 51v89l451 117h113zM445 -76q-24 -43 -35.5 -71.5t-15 -49.5t-3.5 -41
q0 -42 21 -62t62 -20q31 0 56 5.5t65 22.5v-96q-65 -44 -108 -60.5t-99 -16.5q-101 0 -145 44t-44 122q0 34 9.5 67.5t37.5 77t82 106.5l106 127h99z" />
    <glyph glyph-name="Idotaccent" unicode="&#x130;" horiz-adv-x="980" 
d="M881 126v-126h-781v125l177 48v1068l-177 47v126h781v-125l-178 -48v-1068zM490 1563q-101 0 -149 37.5t-48 109.5t48 106.5t149 34.5q102 0 149.5 -34.5t47.5 -106.5t-47.5 -109.5t-149.5 -37.5z" />
    <glyph glyph-name="dotlessi" unicode="&#x131;" horiz-adv-x="808" 
d="M632 1063l-22 -318v-599l134 -35v-111h-650v111l138 35v582q-11 10 -38.5 31t-61 47t-64.5 51v89l451 117h113z" />
    <glyph glyph-name="Jcircumflex" unicode="&#x134;" horiz-adv-x="1307" 
d="M1071 467q0 -109 -37 -198.5t-114.5 -155t-198 -100.5t-287.5 -35q-154 0 -244.5 29t-130.5 81.5t-40 121.5q0 72 40 112t100 40q19 0 45 -22t60.5 -51t77.5 -50.5t94 -21.5q113 0 161.5 46.5t48.5 160.5v817l-178 48v125h781v-125l-178 -48v-774zM821 1723h76l-200 -179
h-236l260 326h276l260 -326h-236z" />
    <glyph glyph-name="jcircumflex" unicode="&#x135;" horiz-adv-x="753" 
d="M212 728q-11 10 -38 31t-60.5 47t-64.5 51v89l451 117h112l-21 -318v-661q0 -72 -10.5 -127t-39.5 -102.5t-85.5 -94.5t-148.5 -101t-230 -124l-101 146q86 81 134 131t70 84t27 67t5 80v685zM-33 1138l260 326h276l260 -326h-236l-200 179h76l-200 -179h-236z" />
    <glyph glyph-name="uni0136" unicode="&#x136;" horiz-adv-x="1836" 
d="M1660 177l155 -52v-125h-635v98v14l-341 494h-276v245h293l405 400l-168 38v125h632v-125l-166 -51l-545 -533l107 238zM703 1241v-1068l178 -47v-126h-781v125l177 48v1068l-177 47v126h781v-125zM857 -366q70 9 92 23t22 46q0 24 -17 38.5t-40 23t-40.5 15.5t-17.5 15
q0 60 34 92t114 32q68 0 105.5 -34.5t37.5 -122.5q0 -49 -22 -94t-81.5 -78.5t-172.5 -48.5z" />
    <glyph glyph-name="uni0137" unicode="&#x137;" horiz-adv-x="1508" 
d="M808 521l150 223l428 -591l113 -53v-100h-510v100l-1 11l-254 358h-298v202h310l255 231l-157 32v103h577v-103l-159 -32zM576 146l134 -35v-111h-650v111l138 35v1033q-13 8 -44.5 25.5l-72 40t-79.5 44.5v113l504 88h94l-24 -266v-1078zM683 -366q70 9 92 23t22 46
q0 24 -17 38.5t-40 23t-40.5 15.5t-17.5 15q0 60 34 92t114 32q68 0 105.5 -34.5t37.5 -122.5q0 -49 -22 -94t-81.5 -78.5t-172.5 -48.5z" />
    <glyph glyph-name="kgreenlandic" unicode="&#x138;" horiz-adv-x="1542" 
d="M768 436h-299v202h310l255 264l-156 32v103h577v-103l-160 -32l-454 -414l150 223l428 -558l113 -53v-100h-510v100v11zM631 1063l-22 -318v-599l135 -35v-111h-651v111l138 35v582q-11 10 -38.5 31t-61 47t-64.5 51v89l451 117h113z" />
    <glyph glyph-name="Lacute" unicode="&#x139;" horiz-adv-x="1535" 
d="M1384 -92h-151l-82 92h-656l8 245h707l-132 -124l227 443h187zM703 1241v-1241h-603v125l177 48v1068l-177 48v125h781v-125zM385 1544l165 326h368v-63l-352 -263h-181z" />
    <glyph glyph-name="lacute" unicode="&#x13a;" horiz-adv-x="773" 
d="M577 146l135 -35v-111h-651v111l138 35v1033q-13 8 -44.5 25.5l-72 40t-79.5 44.5v113l504 88h94l-24 -266v-1078zM268 1584l165 326h368v-63l-352 -263h-181z" />
    <glyph glyph-name="uni013B" unicode="&#x13b;" horiz-adv-x="1535" 
d="M1384 -92h-151l-82 92h-656l8 245h707l-132 -124l227 443h187zM703 1241v-1241h-603v125l177 48v1068l-177 48v125h781v-125zM638 -366q70 9 92 23t22 46q0 24 -17 38.5t-40 23t-40.5 15.5t-17.5 15q0 60 34 92t114 32q68 0 105.5 -34.5t37.5 -122.5q0 -49 -22 -94
t-81.5 -78.5t-172.5 -48.5z" />
    <glyph glyph-name="uni013C" unicode="&#x13c;" horiz-adv-x="773" 
d="M577 146l135 -35v-111h-651v111l138 35v1033q-13 8 -44.5 25.5l-72 40t-79.5 44.5v113l504 88h94l-24 -266v-1078zM254 -366q70 9 92 23t22 46q0 24 -17 38.5t-40 23t-40.5 15.5t-17.5 15q0 60 34 92t114 32q68 0 105.5 -34.5t37.5 -122.5q0 -49 -22 -94t-81.5 -78.5
t-172.5 -48.5z" />
    <glyph glyph-name="Lcaron" unicode="&#x13d;" horiz-adv-x="1540" 
d="M1384 -92h-151l-82 92h-656l8 245h707l-132 -124l227 443h187zM703 1241v-1241h-603v125l177 48v1068l-177 48v125h781v-125zM1035 1001l51 413h306v-52l-183 -361h-174z" />
    <glyph glyph-name="lcaron" unicode="&#x13e;" horiz-adv-x="773" 
d="M577 146l135 -35v-111h-651v111l138 35v1033q-13 8 -44.5 25.5l-72 40t-79.5 44.5v113l504 88h94l-24 -266v-1078zM695 1051l51 413h306v-52l-183 -361h-174z" />
    <glyph glyph-name="Ldot" unicode="&#x13f;" horiz-adv-x="1545" 
d="M1384 -92h-151l-82 92h-656l8 245h707l-132 -124l227 443h187zM703 1241v-1241h-603v125l177 48v1068l-177 48v125h781v-125zM1263 681q-101 0 -149 37.5t-48 109.5t48 106.5t149 34.5q102 0 149.5 -34.5t47.5 -106.5t-47.5 -109.5t-149.5 -37.5z" />
    <glyph glyph-name="ldot" unicode="&#x140;" horiz-adv-x="944" 
d="M577 146l135 -35v-111h-651v111l138 35v1033q-13 8 -44.5 25.5l-72 40t-79.5 44.5v113l504 88h94l-24 -266v-1078zM860 368q-101 0 -149 37.5t-48 109.5t48 106.5t149 34.5q102 0 149.5 -34.5t47.5 -106.5t-47.5 -109.5t-149.5 -37.5z" />
    <glyph glyph-name="Lslash" unicode="&#x141;" horiz-adv-x="1560" 
d="M447 569l-322 -169v198l322 169l153 35l433 227v-198l-433 -227zM1409 -92h-151l-82 92h-656l8 245h707l-132 -124l228 443h186zM728 1241v-1241h-603v125l178 48v1068l-178 48v125h781v-125z" />
    <glyph glyph-name="lslash" unicode="&#x142;" horiz-adv-x="859" 
d="M346 588l-259 -184v159l259 184l118 8l323 231v-159l-323 -231zM617 146l135 -35v-111h-651v111l138 35v1033q-13 8 -44.5 25.5l-72 40t-79.5 44.5v113l504 88h94l-24 -266v-1078z" />
    <glyph glyph-name="Nacute" unicode="&#x143;" horiz-adv-x="1864" 
d="M281 172v1057l-188 60v125h715l615 -1116l-58 -121v1065l-181 47v125h600v-125l-175 -47v-1242h-494l-695 1273l105 25v-1126l181 -47v-125h-600v125zM860 1544l165 326h368v-63l-352 -263h-181z" />
    <glyph glyph-name="nacute" unicode="&#x144;" horiz-adv-x="1522" 
d="M609 826v-689l91 -26v-111h-607v111l138 35v575q-16 14 -55.5 46.5t-107.5 89.5v82l368 126h73zM863 111l92 26v502q0 46 -15 75.5t-50.5 44t-96.5 14.5q-49 0 -105 -8t-109 -21l-19 84q109 85 174.5 133t105.5 69.5t72 27t74 5.5q177 0 262 -82.5t85 -236.5v-598
l139 -35v-111h-609v111zM681 1138l165 326h368v-63l-352 -263h-181z" />
    <glyph glyph-name="uni0145" unicode="&#x145;" horiz-adv-x="1864" 
d="M281 172v1057l-188 60v125h715l615 -1116l-58 -121v1065l-181 47v125h600v-125l-175 -47v-1242h-494l-695 1273l105 25v-1126l181 -47v-125h-600v125zM844 -366q70 9 92 23t22 46q0 24 -17 38.5t-40 23t-40.5 15.5t-17.5 15q0 60 34 92t114 32q68 0 105.5 -34.5
t37.5 -122.5q0 -49 -22 -94t-81.5 -78.5t-172.5 -48.5z" />
    <glyph glyph-name="uni0146" unicode="&#x146;" horiz-adv-x="1522" 
d="M609 826v-689l91 -26v-111h-607v111l138 35v575q-16 14 -55.5 46.5t-107.5 89.5v82l368 126h73zM863 111l92 26v502q0 46 -15 75.5t-50.5 44t-96.5 14.5q-49 0 -105 -8t-109 -21l-19 84q109 85 174.5 133t105.5 69.5t72 27t74 5.5q177 0 262 -82.5t85 -236.5v-598
l139 -35v-111h-609v111zM633 -366q70 9 92 23t22 46q0 24 -17 38.5t-40 23t-40.5 15.5t-17.5 15q0 60 34 92t114 32q68 0 105.5 -34.5t37.5 -122.5q0 -49 -22 -94t-81.5 -78.5t-172.5 -48.5z" />
    <glyph glyph-name="Ncaron" unicode="&#x147;" horiz-adv-x="1864" 
d="M281 172v1057l-188 60v125h715l615 -1116l-58 -121v1065l-181 47v125h600v-125l-175 -47v-1242h-494l-695 1273l105 25v-1126l181 -47v-125h-600v125zM1003 1691h-76l200 179h236l-260 -326h-276l-260 326h236z" />
    <glyph glyph-name="ncaron" unicode="&#x148;" horiz-adv-x="1522" 
d="M609 826v-689l91 -26v-111h-607v111l138 35v575q-16 14 -55.5 46.5t-107.5 89.5v82l368 126h73zM863 111l92 26v502q0 46 -15 75.5t-50.5 44t-96.5 14.5q-49 0 -105 -8t-109 -21l-19 84q109 85 174.5 133t105.5 69.5t72 27t74 5.5q177 0 262 -82.5t85 -236.5v-598
l139 -35v-111h-609v111zM824 1285h-76l200 179h236l-260 -326h-276l-260 326h236z" />
    <glyph glyph-name="Eng" unicode="&#x14a;" horiz-adv-x="1864" 
d="M1422 558l-3 -677l-999 1392l105 25v-1126l181 -47v-125h-600v125l175 47v1057l-188 60v125h717zM1609 -41q0 -145 -49 -239t-151.5 -139.5t-262.5 -45.5q-176 0 -242.5 54.5t-66.5 145.5q0 60 37 102t86 42q14 0 38 -16t54.5 -37t65 -37t70.5 -16q64 0 103 17.5
t56.5 59.5t17.5 115v1277l-181 47v125h600v-125l-175 -47v-1283z" />
    <glyph glyph-name="eng" unicode="&#x14b;" horiz-adv-x="1477" 
d="M609 826v-689l91 -26v-111h-607v111l138 35v575q-16 14 -55.5 46.5t-107.5 89.5v82l368 126h73zM955 43v596q0 46 -15 75.5t-50.5 44t-96.5 14.5q-49 0 -105 -8t-109 -21l-19 84q109 85 174.5 133t105.5 69.5t72 27t74 5.5q177 0 262 -82.5t85 -236.5v-660
q0 -72 -10 -127t-39 -102.5t-85.5 -94.5t-149 -101t-230.5 -124l-101 146q86 81 134.5 131t70 84t27 67t5.5 80z" />
    <glyph glyph-name="Omacron" unicode="&#x14c;" horiz-adv-x="1761" 
d="M902 1440q181 0 322 -50t238 -144.5t147 -230t50 -306.5q0 -172 -55 -308t-159 -231.5t-252 -145.5t-334 -50q-181 0 -322 50t-238 145t-147 230.5t-50 306.5q0 172 55 308t159 231t252 145t334 50zM883 230q114 0 191 45t116 139t39 240q0 180 -36.5 298t-114 175.5
t-200.5 57.5q-114 0 -191 -45t-116 -139t-39 -240q0 -180 36.5 -298t114 -175.5t200.5 -57.5zM541 1625v165h678v-165h-678z" />
    <glyph glyph-name="omacron" unicode="&#x14d;" horiz-adv-x="1336" 
d="M661 201q76 0 124.5 30t71.5 95.5t23 171.5q0 120 -21 194.5t-66 109t-118 34.5q-76 0 -124 -29.5t-71 -95.5t-23 -172q0 -120 20.5 -194.5t66 -109t117.5 -34.5zM652 -26q-179 0 -306 64.5t-194 185.5t-67 290q0 172 71 295t205 188.5t323 65.5q180 0 306.5 -64.5
t193.5 -185t67 -290.5q0 -172 -71 -295t-205 -188.5t-323 -65.5zM329 1219v165h678v-165h-678z" />
    <glyph glyph-name="Obreve" unicode="&#x14e;" horiz-adv-x="1761" 
d="M902 1440q181 0 322 -50t238 -144.5t147 -230t50 -306.5q0 -172 -55 -308t-159 -231.5t-252 -145.5t-334 -50q-181 0 -322 50t-238 145t-147 230.5t-50 306.5q0 172 55 308t159 231t252 145t334 50zM883 230q114 0 191 45t116 139t39 240q0 180 -36.5 298t-114 175.5
t-200.5 57.5q-114 0 -191 -45t-116 -139t-39 -240q0 -180 36.5 -298t114 -175.5t200.5 -57.5zM880 1740q89 0 130.5 28.5t61.5 101.5h159q-16 -128 -56.5 -199t-112 -100t-182.5 -29q-110 0 -182 29t-112 100t-57 199h159q20 -73 62 -101.5t130 -28.5z" />
    <glyph glyph-name="obreve" unicode="&#x14f;" horiz-adv-x="1336" 
d="M661 201q76 0 124.5 30t71.5 95.5t23 171.5q0 120 -21 194.5t-66 109t-118 34.5q-76 0 -124 -29.5t-71 -95.5t-23 -172q0 -120 20.5 -194.5t66 -109t117.5 -34.5zM652 -26q-179 0 -306 64.5t-194 185.5t-67 290q0 172 71 295t205 188.5t323 65.5q180 0 306.5 -64.5
t193.5 -185t67 -290.5q0 -172 -71 -295t-205 -188.5t-323 -65.5zM668 1334q59 0 96.5 12t60 40.5t35.5 77.5h159q-16 -128 -56.5 -199t-112 -100t-182.5 -29q-110 0 -182 29t-112 100t-57 199h159q14 -49 36 -77.5t59.5 -40.5t96.5 -12z" />
    <glyph glyph-name="Ohungarumlaut" unicode="&#x150;" horiz-adv-x="1761" 
d="M902 1440q181 0 322 -50t238 -144.5t147 -230t50 -306.5q0 -172 -55 -308t-159 -231.5t-252 -145.5t-334 -50q-181 0 -322 50t-238 145t-147 230.5t-50 306.5q0 172 55 308t159 231t252 145t334 50zM883 230q114 0 191 45t116 139t39 240q0 180 -36.5 298t-114 175.5
t-200.5 57.5q-114 0 -191 -45t-116 -139t-39 -240q0 -180 36.5 -298t114 -175.5t200.5 -57.5zM955 1544l166 326h347v-63l-339 -263h-174zM588 1544l54 326h322v-54l-209 -272h-167z" />
    <glyph glyph-name="ohungarumlaut" unicode="&#x151;" horiz-adv-x="1336" 
d="M661 201q76 0 124.5 30t71.5 95.5t23 171.5q0 120 -21 194.5t-66 109t-118 34.5q-76 0 -124 -29.5t-71 -95.5t-23 -172q0 -120 20.5 -194.5t66 -109t117.5 -34.5zM652 -26q-179 0 -306 64.5t-194 185.5t-67 290q0 172 71 295t205 188.5t323 65.5q180 0 306.5 -64.5
t193.5 -185t67 -290.5q0 -172 -71 -295t-205 -188.5t-323 -65.5zM743 1138l166 326h347v-63l-339 -263h-174zM376 1138l54 326h322v-54l-209 -272h-167z" />
    <glyph glyph-name="OE" unicode="&#x152;" horiz-adv-x="2480" 
d="M1984 990v-255v-255h-166l-17 159h-468v196h468l17 155h166zM1116 1414h425v-1414h-425v1414zM853 0q-247 0 -414 77.5t-251 229t-84 371.5q0 180 53.5 317t153.5 230.5t239.5 141t311.5 47.5h1240l112 88h131v-521h-181l-127 352l127 -140h-1279q-119 0 -196 -51.5
t-113.5 -162t-36.5 -288.5q0 -164 38 -267.5t125 -152.5t232 -50h1191l-113 -137l203 415h187l-94 -591h-151l-82 92h-1222z" />
    <glyph glyph-name="oe" unicode="&#x153;" horiz-adv-x="2038" 
d="M661 201q76 0 124.5 30t71.5 95.5t23 171.5q0 120 -21 194.5t-66 109t-118 34.5q-76 0 -124 -29.5t-71 -95.5t-23 -172q0 -120 20.5 -194.5t66 -109t117.5 -34.5zM1184 269q-73 -126 -206 -210.5t-326 -84.5q-179 0 -306 64.5t-194 185.5t-67 290q0 172 71 295t205 188.5
t323 65.5q173 0 295.5 -76.5t194.5 -195.5h-203q70 118 189 195t285 77q175 0 285 -59.5t164.5 -187.5t60.5 -332h-802l-2 151h588l-139 -58q2 120 -17 182.5t-58 85.5t-100 23q-63 0 -104.5 -25.5t-62 -85.5t-20.5 -166q0 -136 33 -213t108 -109.5t199 -32.5q69 0 129.5 6
t115 16t105.5 23v-128q-98 -64 -182 -103.5t-155.5 -57.5t-133.5 -18q-190 0 -317.5 82.5t-193.5 212.5h238z" />
    <glyph glyph-name="Racute" unicode="&#x154;" horiz-adv-x="1748" 
d="M973 784q98 0 146.5 45t48.5 147q0 67 -18.5 109t-63.5 63t-126 21h-482v245h613q182 0 288.5 -43.5t152.5 -123t46 -187.5q0 -101 -46 -181t-140.5 -130t-242.5 -64v5q137 -9 210 -37.5t104 -81t42 -133.5l25 -141q9 -59 23 -88t43.5 -37.5t84.5 -8.5v-163
q-172 -12 -279 -9t-167 25t-87 67t-38 117l-35 218q-11 70 -30.5 107t-60 50.5t-117.5 13.5h-389v195h495zM703 1414v-1241l158 -48v-125h-761v125l177 48v1068l-177 48v125h603zM775 1544l165 326h368v-63l-352 -263h-181z" />
    <glyph glyph-name="racute" unicode="&#x155;" horiz-adv-x="1139" 
d="M944 1059q78 0 116.5 -42t38.5 -112q0 -77 -24.5 -127t-46.5 -50q-64 0 -123 1l-118 2t-122 1q-31 0 -52 -2.5t-40 -10t-46 -23.5l-32 57q96 102 161 163t112 92t88 41t88 10zM609 826v-676l155 -39v-111h-671v111l138 35v575q-13 12 -37 32t-56.5 46.5t-69.5 57.5v82
l368 126h73zM477 1138l165 326h368v-63l-352 -263h-181z" />
    <glyph glyph-name="uni0156" unicode="&#x156;" horiz-adv-x="1748" 
d="M973 784q98 0 146.5 45t48.5 147q0 67 -18.5 109t-63.5 63t-126 21h-482v245h613q182 0 288.5 -43.5t152.5 -123t46 -187.5q0 -101 -46 -181t-140.5 -130t-242.5 -64v5q137 -9 210 -37.5t104 -81t42 -133.5l25 -141q9 -59 23 -88t43.5 -37.5t84.5 -8.5v-163
q-172 -12 -279 -9t-167 25t-87 67t-38 117l-35 218q-11 70 -30.5 107t-60 50.5t-117.5 13.5h-389v195h495zM703 1414v-1241l158 -48v-125h-761v125l177 48v1068l-177 48v125h603zM813 -366q70 9 92 23t22 46q0 24 -17 38.5t-40 23t-40.5 15.5t-17.5 15q0 60 34 92t114 32
q68 0 105.5 -34.5t37.5 -122.5q0 -49 -22 -94t-81.5 -78.5t-172.5 -48.5z" />
    <glyph glyph-name="uni0157" unicode="&#x157;" horiz-adv-x="1139" 
d="M944 1059q78 0 116.5 -42t38.5 -112q0 -77 -24.5 -127t-46.5 -50q-64 0 -123 1l-118 2t-122 1q-31 0 -52 -2.5t-40 -10t-46 -23.5l-32 57q96 102 161 163t112 92t88 41t88 10zM609 826v-676l155 -39v-111h-671v111l138 35v575q-13 12 -37 32t-56.5 46.5t-69.5 57.5v82
l368 126h73zM286 -366q70 9 92 23t22 46q0 24 -17 38.5t-40 23t-40.5 15.5t-17.5 15q0 60 34 92t114 32q68 0 105.5 -34.5t37.5 -122.5q0 -49 -22 -94t-81.5 -78.5t-172.5 -48.5z" />
    <glyph glyph-name="Rcaron" unicode="&#x158;" horiz-adv-x="1748" 
d="M973 784q98 0 146.5 45t48.5 147q0 67 -18.5 109t-63.5 63t-126 21h-482v245h613q182 0 288.5 -43.5t152.5 -123t46 -187.5q0 -101 -46 -181t-140.5 -130t-242.5 -64v5q137 -9 210 -37.5t104 -81t42 -133.5l25 -141q9 -59 23 -88t43.5 -37.5t84.5 -8.5v-163
q-172 -12 -279 -9t-167 25t-87 67t-38 117l-35 218q-11 70 -30.5 107t-60 50.5t-117.5 13.5h-389v195h495zM703 1414v-1241l158 -48v-125h-761v125l177 48v1068l-177 48v125h603zM918 1691h-76l200 179h236l-260 -326h-276l-260 326h236z" />
    <glyph glyph-name="rcaron" unicode="&#x159;" horiz-adv-x="1139" 
d="M944 1059q78 0 116.5 -42t38.5 -112q0 -77 -24.5 -127t-46.5 -50q-64 0 -123 1l-118 2t-122 1q-31 0 -52 -2.5t-40 -10t-46 -23.5l-32 57q96 102 161 163t112 92t88 41t88 10zM609 826v-676l155 -39v-111h-671v111l138 35v575q-13 12 -37 32t-56.5 46.5t-69.5 57.5v82
l368 126h73zM620 1285h-76l200 179h236l-260 -326h-276l-260 326h236z" />
    <glyph glyph-name="Sacute" unicode="&#x15a;" horiz-adv-x="1458" 
d="M1192 1358l-157 -1l109 145h146v-503h-180l-109 261l93 -108q-56 38 -134 54t-182 16q-136 0 -208 -29t-72 -114q0 -54 30.5 -85.5t83.5 -49t123.5 -28.5t149.5 -23q79 -13 161 -35.5t151 -68t110.5 -126.5t41.5 -209q0 -164 -80 -270.5t-238 -158t-394 -51.5
q-136 0 -245.5 8t-222.5 41l-42 418h163l236 -407l-299 230q94 -40 178 -55.5t198 -15.5q140 0 219 19t112 59t33 103q0 64 -36.5 99t-98 51.5t-137.5 25.5t-155 22q-79 12 -153.5 35t-134.5 68.5t-95.5 122.5t-35.5 196q0 150 77 249t223 148t352 49q117 0 215.5 -18
t203.5 -64zM595 1544l165 326h368v-63l-352 -263h-181z" />
    <glyph glyph-name="sacute" unicode="&#x15b;" horiz-adv-x="1169" 
d="M643 1063q100 0 181 -8t163 -28l29 -279h-148l-143 242l152 -130q-65 19 -129.5 28.5t-106.5 9.5q-106 0 -152.5 -25.5t-46.5 -77.5q0 -43 25.5 -68.5t88.5 -41t174 -32.5q84 -12 150.5 -33.5t112.5 -57.5t70 -92t24 -137q0 -112 -58 -192t-180 -123t-318 -43
q-108 0 -216 10.5t-175 27.5l-48 311h139l162 -274l-158 124q30 -8 73.5 -13.5t90 -8.5t87.5 -3q135 0 188.5 31t53.5 92q0 41 -19.5 66t-60.5 39t-102 25t-144 25q-110 20 -176 56.5t-95 95.5t-29 142q0 113 61.5 189.5t182 114.5t297.5 38zM470 1138l165 326h368v-63
l-352 -263h-181z" />
    <glyph glyph-name="Scircumflex" unicode="&#x15c;" horiz-adv-x="1458" 
d="M1192 1358l-157 -1l109 145h146v-503h-180l-109 261l93 -108q-56 38 -134 54t-182 16q-136 0 -208 -29t-72 -114q0 -54 30.5 -85.5t83.5 -49t123.5 -28.5t149.5 -23q79 -13 161 -35.5t151 -68t110.5 -126.5t41.5 -209q0 -164 -80 -270.5t-238 -158t-394 -51.5
q-136 0 -245.5 8t-222.5 41l-42 418h163l236 -407l-299 230q94 -40 178 -55.5t198 -15.5q140 0 219 19t112 59t33 103q0 64 -36.5 99t-98 51.5t-137.5 25.5t-155 22q-79 12 -153.5 35t-134.5 68.5t-95.5 122.5t-35.5 196q0 150 77 249t223 148t352 49q117 0 215.5 -18
t203.5 -64zM662 1723h76l-200 -179h-236l260 326h276l260 -326h-236z" />
    <glyph glyph-name="scircumflex" unicode="&#x15d;" horiz-adv-x="1169" 
d="M643 1063q100 0 181 -8t163 -28l29 -279h-148l-143 242l152 -130q-65 19 -129.5 28.5t-106.5 9.5q-106 0 -152.5 -25.5t-46.5 -77.5q0 -43 25.5 -68.5t88.5 -41t174 -32.5q84 -12 150.5 -33.5t112.5 -57.5t70 -92t24 -137q0 -112 -58 -192t-180 -123t-318 -43
q-108 0 -216 10.5t-175 27.5l-48 311h139l162 -274l-158 124q30 -8 73.5 -13.5t90 -8.5t87.5 -3q135 0 188.5 31t53.5 92q0 41 -19.5 66t-60.5 39t-102 25t-144 25q-110 20 -176 56.5t-95 95.5t-29 142q0 113 61.5 189.5t182 114.5t297.5 38zM177 1138l260 326h276l260 -326
h-236l-200 179h76l-200 -179h-236z" />
    <glyph glyph-name="Scedilla" unicode="&#x15e;" horiz-adv-x="1458" 
d="M1192 1358l-157 -1l109 145h146v-503h-180l-109 261l93 -108q-56 38 -134 54t-182 16q-136 0 -208 -29t-72 -114q0 -54 30.5 -85.5t83.5 -49t123.5 -28.5t149.5 -23q79 -13 161 -35.5t151 -68t110.5 -126.5t41.5 -209q0 -164 -80 -270.5t-238 -158t-394 -51.5
q-136 0 -245.5 8t-222.5 41l-42 418h163l236 -407l-299 230q94 -40 178 -55.5t198 -15.5q140 0 219 19t112 59t33 103q0 64 -36.5 99t-98 51.5t-137.5 25.5t-155 22q-79 12 -153.5 35t-134.5 68.5t-95.5 122.5t-35.5 196q0 150 77 249t223 148t352 49q117 0 215.5 -18
t203.5 -64zM637 -465q-106 0 -141 22t-35 67q0 32 18 47.5t36 15.5q11 0 35.5 -13.5t56 -26.5t63.5 -13q47 0 66 13.5t19 43.5q0 22 -15.5 36.5t-64 26t-145.5 23.5v37l192 226h144l-197 -223l-7 107q124 -19 185.5 -46t82 -63.5t20.5 -84.5q0 -72 -39.5 -114.5t-110 -61.5
t-163.5 -19z" />
    <glyph glyph-name="scedilla" unicode="&#x15f;" horiz-adv-x="1169" 
d="M643 1063q100 0 181 -8t163 -28l29 -279h-148l-143 242l152 -130q-65 19 -129.5 28.5t-106.5 9.5q-106 0 -152.5 -25.5t-46.5 -77.5q0 -43 25.5 -68.5t88.5 -41t174 -32.5q84 -12 150.5 -33.5t112.5 -57.5t70 -92t24 -137q0 -112 -58 -192t-180 -123t-318 -43
q-108 0 -216 10.5t-175 27.5l-48 311h139l162 -274l-158 124q30 -8 73.5 -13.5t90 -8.5t87.5 -3q135 0 188.5 31t53.5 92q0 41 -19.5 66t-60.5 39t-102 25t-144 25q-110 20 -176 56.5t-95 95.5t-29 142q0 113 61.5 189.5t182 114.5t297.5 38zM497 -465q-107 0 -142 22
t-35 67q0 32 18.5 47.5t35.5 15.5q12 0 36.5 -13.5t56 -26.5t62.5 -13q47 0 66.5 13.5t19.5 43.5q0 22 -15.5 36.5t-64 26t-145.5 23.5v37l191 226h144l-196 -223l-8 107q125 -19 186.5 -46t81.5 -63.5t20 -84.5q0 -72 -39 -114.5t-110 -61.5t-163 -19z" />
    <glyph glyph-name="Scaron" unicode="&#x160;" horiz-adv-x="1458" 
d="M1192 1358l-157 -1l109 145h146v-503h-180l-109 261l93 -108q-56 38 -134 54t-182 16q-136 0 -208 -29t-72 -114q0 -54 30.5 -85.5t83.5 -49t123.5 -28.5t149.5 -23q79 -13 161 -35.5t151 -68t110.5 -126.5t41.5 -209q0 -164 -80 -270.5t-238 -158t-394 -51.5
q-136 0 -245.5 8t-222.5 41l-42 418h163l236 -407l-299 230q94 -40 178 -55.5t198 -15.5q140 0 219 19t112 59t33 103q0 64 -36.5 99t-98 51.5t-137.5 25.5t-155 22q-79 12 -153.5 35t-134.5 68.5t-95.5 122.5t-35.5 196q0 150 77 249t223 148t352 49q117 0 215.5 -18
t203.5 -64zM738 1691h-76l200 179h236l-260 -326h-276l-260 326h236z" />
    <glyph glyph-name="scaron" unicode="&#x161;" horiz-adv-x="1169" 
d="M643 1063q100 0 181 -8t163 -28l29 -279h-148l-143 242l152 -130q-65 19 -129.5 28.5t-106.5 9.5q-106 0 -152.5 -25.5t-46.5 -77.5q0 -43 25.5 -68.5t88.5 -41t174 -32.5q84 -12 150.5 -33.5t112.5 -57.5t70 -92t24 -137q0 -112 -58 -192t-180 -123t-318 -43
q-108 0 -216 10.5t-175 27.5l-48 311h139l162 -274l-158 124q30 -8 73.5 -13.5t90 -8.5t87.5 -3q135 0 188.5 31t53.5 92q0 41 -19.5 66t-60.5 39t-102 25t-144 25q-110 20 -176 56.5t-95 95.5t-29 142q0 113 61.5 189.5t182 114.5t297.5 38zM613 1285h-76l200 179h236
l-260 -326h-276l-260 326h236z" />
    <glyph glyph-name="uni0162" unicode="&#x162;" horiz-adv-x="1673" 
d="M624 1356h425v-1183l185 -48v-125h-795v125l185 48v1183zM1382 1169h-1091l104 108l-159 -387h-186l74 620h137l107 -136l-152 40h1240l-150 -40l106 136h137l74 -620h-186l-159 387zM740 -465q-106 0 -141 22t-35 67q0 32 18 47.5t36 15.5q11 0 35.5 -13.5t56 -26.5
t63.5 -13q47 0 66 13.5t19 43.5q0 22 -15.5 36.5t-63.5 26t-146 23.5v37l192 226h144l-197 -223l-7 107q124 -19 185.5 -46t82 -63.5t20.5 -84.5q0 -72 -39.5 -114.5t-110 -61.5t-163.5 -19z" />
    <glyph glyph-name="uni0163" unicode="&#x163;" horiz-adv-x="1053" 
d="M595 367q0 -83 42 -115t151 -32q48 0 103 6.5t121 20.5v-137q-122 -54 -201 -83.5t-135.5 -41t-112.5 -11.5q-109 0 -186.5 33t-118 100t-40.5 167v527l-198 133v90q30 11 73.5 32t94 49.5t104 61t104 67t93.5 66.5h106v-289v-644zM441 818l6 219h537v-219h-543z
M534 -465q-107 0 -142 22t-35 67q0 32 18 47.5t36 15.5q11 0 35.5 -13.5t56 -26.5t63.5 -13q47 0 66 13.5t19 43.5q0 22 -15 36.5t-63.5 26t-146.5 23.5v37l192 226h144l-196 -223l-8 107q124 -19 186 -46t82 -63.5t20 -84.5q0 -72 -39 -114.5t-110 -61.5t-163 -19z" />
    <glyph glyph-name="Tcaron" unicode="&#x164;" horiz-adv-x="1673" 
d="M624 1356h425v-1183l185 -48v-125h-795v125l185 48v1183zM1382 1169h-1091l104 108l-159 -387h-186l74 620h137l107 -136l-152 40h1240l-150 -40l106 136h137l74 -620h-186l-159 387zM875 1691h-76l200 179h236l-260 -326h-276l-260 326h236z" />
    <glyph glyph-name="tcaron" unicode="&#x165;" horiz-adv-x="1050" 
d="M595 367q0 -83 42 -115t151 -32q48 0 103 6.5t121 20.5v-137q-122 -54 -201 -83.5t-135.5 -41t-112.5 -11.5q-109 0 -186.5 33t-118 100t-40.5 167v527l-198 133v90q29 11 72 31.5t94 49t104.5 61t104.5 67t94 67.5h106v-289v-644zM441 818l6 219h537v-219h-543z
M699 1122l51 413h306v-52l-183 -361h-174z" />
    <glyph glyph-name="Tbar" unicode="&#x166;" horiz-adv-x="1673" 
d="M347 577v189h980v-189h-980zM624 1356h425v-1183l185 -48v-125h-795v125l185 48v1183zM1382 1169h-1091l104 108l-159 -387h-186l74 620h137l107 -136l-152 40h1240l-150 -40l106 136h137l74 -620h-186l-159 387z" />
    <glyph glyph-name="tbar" unicode="&#x167;" horiz-adv-x="1064" 
d="M65 479v127h861v-127h-861zM607 367q0 -83 42.5 -115t151.5 -32q47 0 102.5 6.5t121.5 20.5v-137q-122 -54 -201 -83.5t-135.5 -41t-112.5 -11.5q-109 0 -186.5 33t-118.5 100t-41 167v527l-197 133v90q30 11 73 32t94 49.5t104.5 61t104 67t92.5 66.5h106v-289v-644z
M454 818l6 219h537v-219h-543z" />
    <glyph glyph-name="Utilde" unicode="&#x168;" horiz-adv-x="1794" 
d="M1319 573v669l-178 47v125h599v-125l-178 -47v-686q0 -200 -72.5 -328.5t-215.5 -191t-353 -62.5q-230 0 -383 57t-229 179t-76 316v716l-178 47v125h781v-125l-178 -47v-692q0 -96 37 -157t111.5 -90t186.5 -29q113 0 184.5 31.5t106.5 97.5t35 170zM1338 1865
q-12 -132 -38 -200.5t-70.5 -93t-110.5 -24.5q-44 0 -80.5 16.5t-68.5 38t-60.5 38t-54.5 16.5q-22 0 -36 -8.5t-22.5 -31.5t-15.5 -67h-177q12 132 38 200.5t70.5 93t110.5 24.5q44 0 80.5 -16.5t68.5 -38t60.5 -38t54.5 -16.5q23 0 36.5 8.5t22 32t14.5 66.5h178z" />
    <glyph glyph-name="utilde" unicode="&#x169;" horiz-adv-x="1473" 
d="M574 386q0 -44 14.5 -70.5t47 -39t86.5 -12.5q41 0 91.5 7.5t103.5 19.5l17 -92q-103 -82 -165.5 -127.5t-101.5 -66.5t-69.5 -26t-70.5 -5q-168 0 -249.5 78.5t-81.5 225.5v551l-164 95v100l564 23l-22 -164v-497zM977 -26l-94 210v678l-62 75v100l447 3l-7 -166v-584
q9 -6 31 -21t49 -33t52.5 -34.5t41.5 -26.5v-74l-403 -127h-55zM1071 1459q-12 -132 -38 -200.5t-70.5 -93t-110.5 -24.5q-44 0 -79 16.5t-65 38t-57 38t-53 16.5q-22 0 -36 -8.5t-22.5 -31.5t-15.5 -67h-177q12 132 38 200.5t70.5 93t110.5 24.5q44 0 79 -16.5t65 -38
t57 -38t53 -16.5q23 0 36.5 8.5t22 32t15.5 66.5h177z" />
    <glyph glyph-name="Umacron" unicode="&#x16a;" horiz-adv-x="1794" 
d="M1319 573v669l-178 47v125h599v-125l-178 -47v-686q0 -200 -72.5 -328.5t-215.5 -191t-353 -62.5q-230 0 -383 57t-229 179t-76 316v716l-178 47v125h781v-125l-178 -47v-692q0 -96 37 -157t111.5 -90t186.5 -29q113 0 184.5 31.5t106.5 97.5t35 170zM634 1625v165h678
v-165h-678z" />
    <glyph glyph-name="umacron" unicode="&#x16b;" horiz-adv-x="1473" 
d="M574 386q0 -44 14.5 -70.5t47 -39t86.5 -12.5q41 0 91.5 7.5t103.5 19.5l17 -92q-103 -82 -165.5 -127.5t-101.5 -66.5t-69.5 -26t-70.5 -5q-168 0 -249.5 78.5t-81.5 225.5v551l-164 95v100l564 23l-22 -164v-497zM977 -26l-94 210v678l-62 75v100l447 3l-7 -166v-584
q9 -6 31 -21t49 -33t52.5 -34.5t41.5 -26.5v-74l-403 -127h-55zM372 1219v165h678v-165h-678z" />
    <glyph glyph-name="Ubreve" unicode="&#x16c;" horiz-adv-x="1794" 
d="M1319 573v669l-178 47v125h599v-125l-178 -47v-686q0 -200 -72.5 -328.5t-215.5 -191t-353 -62.5q-230 0 -383 57t-229 179t-76 316v716l-178 47v125h781v-125l-178 -47v-692q0 -96 37 -157t111.5 -90t186.5 -29q113 0 184.5 31.5t106.5 97.5t35 170zM973 1740
q89 0 130.5 28.5t61.5 101.5h159q-16 -128 -56.5 -199t-112 -100t-182.5 -29q-110 0 -182 29t-112 100t-57 199h159q20 -73 62 -101.5t130 -28.5z" />
    <glyph glyph-name="ubreve" unicode="&#x16d;" horiz-adv-x="1473" 
d="M574 386q0 -44 14.5 -70.5t47 -39t86.5 -12.5q41 0 91.5 7.5t103.5 19.5l17 -92q-103 -82 -165.5 -127.5t-101.5 -66.5t-69.5 -26t-70.5 -5q-168 0 -249.5 78.5t-81.5 225.5v551l-164 95v100l564 23l-22 -164v-497zM977 -26l-94 210v678l-62 75v100l447 3l-7 -166v-584
q9 -6 31 -21t49 -33t52.5 -34.5t41.5 -26.5v-74l-403 -127h-55zM711 1334q59 0 96.5 12t60 40.5t35.5 77.5h159q-16 -128 -56.5 -199t-112 -100t-182.5 -29q-110 0 -182 29t-112 100t-57 199h159q14 -49 36 -77.5t59.5 -40.5t96.5 -12z" />
    <glyph glyph-name="Uring" unicode="&#x16e;" horiz-adv-x="1794" 
d="M1319 573v669l-178 47v125h599v-125l-178 -47v-686q0 -200 -72.5 -328.5t-215.5 -191t-353 -62.5q-230 0 -383 57t-229 179t-76 316v716l-178 47v125h781v-125l-178 -47v-692q0 -96 37 -157t111.5 -90t186.5 -29q113 0 184.5 31.5t106.5 97.5t35 170zM969 1898
q86 0 138 -51t52 -135q0 -82 -52 -134t-138 -52q-83 0 -136 52t-53 134q0 84 53 135t136 51zM970 1603q49 0 78 30t29 79q0 52 -29 82.5t-78 30.5t-78.5 -30.5t-29.5 -82.5q0 -49 29.5 -79t78.5 -30z" />
    <glyph glyph-name="uring" unicode="&#x16f;" horiz-adv-x="1473" 
d="M574 386q0 -44 14.5 -70.5t47 -39t86.5 -12.5q41 0 91.5 7.5t103.5 19.5l17 -92q-103 -82 -165.5 -127.5t-101.5 -66.5t-69.5 -26t-70.5 -5q-168 0 -249.5 78.5t-81.5 225.5v551l-164 95v100l564 23l-22 -164v-497zM977 -26l-94 210v678l-62 75v100l447 3l-7 -166v-584
q9 -6 31 -21t49 -33t52.5 -34.5t41.5 -26.5v-74l-403 -127h-55zM707 1492q86 0 138 -51t52 -135q0 -82 -52 -134t-138 -52q-83 0 -136 52t-53 134q0 84 53 135t136 51zM708 1197q49 0 78 30t29 79q0 52 -29 82.5t-78 30.5t-78.5 -30.5t-29.5 -82.5q0 -49 29.5 -79t78.5 -30z
" />
    <glyph glyph-name="Uhungarumlaut" unicode="&#x170;" horiz-adv-x="1794" 
d="M1319 573v669l-178 47v125h599v-125l-178 -47v-686q0 -200 -72.5 -328.5t-215.5 -191t-353 -62.5q-230 0 -383 57t-229 179t-76 316v716l-178 47v125h781v-125l-178 -47v-692q0 -96 37 -157t111.5 -90t186.5 -29q113 0 184.5 31.5t106.5 97.5t35 170zM1048 1544l166 326
h347v-63l-339 -263h-174zM681 1544l54 326h322v-54l-209 -272h-167z" />
    <glyph glyph-name="uhungarumlaut" unicode="&#x171;" horiz-adv-x="1473" 
d="M574 386q0 -44 14.5 -70.5t47 -39t86.5 -12.5q41 0 91.5 7.5t103.5 19.5l17 -92q-103 -82 -165.5 -127.5t-101.5 -66.5t-69.5 -26t-70.5 -5q-168 0 -249.5 78.5t-81.5 225.5v551l-164 95v100l564 23l-22 -164v-497zM977 -26l-94 210v678l-62 75v100l447 3l-7 -166v-584
q9 -6 31 -21t49 -33t52.5 -34.5t41.5 -26.5v-74l-403 -127h-55zM786 1138l166 326h347v-63l-339 -263h-174zM419 1138l54 326h322v-54l-209 -272h-167z" />
    <glyph glyph-name="Uogonek" unicode="&#x172;" horiz-adv-x="1794" 
d="M1319 573v669l-178 47v125h599v-125l-178 -47v-686q0 -200 -72.5 -328.5t-215.5 -191t-353 -62.5q-230 0 -383 57t-229 179t-76 316v716l-178 47v125h781v-125l-178 -47v-692q0 -96 37 -157t111.5 -90t186.5 -29q113 0 184.5 31.5t106.5 97.5t35 170zM1017 -77
q-28 -42 -42.5 -70.5t-20 -51t-5.5 -46.5q0 -37 23 -56t60 -19q31 0 56 5.5t64 22.5v-96q-43 -29 -75.5 -46t-63 -24t-67.5 -7q-101 0 -145 44t-44 122q0 34 10 67.5t41 77t92 107.5l121 126h99z" />
    <glyph glyph-name="uogonek" unicode="&#x173;" horiz-adv-x="1474" 
d="M574 386q0 -44 14.5 -70.5t47 -39t86.5 -12.5q41 0 91.5 7.5t103.5 19.5l17 -92q-103 -82 -165.5 -127.5t-101.5 -66.5t-69.5 -26t-70.5 -5q-168 0 -249.5 78.5t-81.5 225.5v551l-164 95v100l564 23l-22 -164v-497zM977 -26l-94 210v678l-62 75v100l447 3l-7 -166v-584
q9 -6 31 -21t49 -33t52.5 -34.5t41.5 -26.5v-74l-403 -127h-55zM1069 -76q-29 -42 -44 -70.5t-20.5 -50.5t-5.5 -47q0 -38 23.5 -57t60.5 -19q31 0 55.5 5.5t64.5 22.5v-96q-43 -29 -75.5 -46t-63 -24t-67.5 -7q-101 0 -145.5 44t-44.5 122q0 34 10 67.5t41.5 77t93.5 106.5
l126 127h99z" />
    <glyph glyph-name="Wcircumflex" unicode="&#x174;" horiz-adv-x="2496" 
d="M1314 1096l-334 -1096h-512l-266 1240l-185 49v125h788v-125l-150 -36l206 -1116l-89 -12l368 1289h421l396 -1292l-106 -26l190 1153l-148 40v125h578v-125l-168 -36l-263 -1253h-488l-318 1096h80zM1304 1723h76l-200 -179h-236l260 326h276l260 -326h-236z" />
    <glyph glyph-name="wcircumflex" unicode="&#x175;" horiz-adv-x="1948" 
d="M1570 891l-100 34v112h437v-112l-93 -31l-214 -901h-393l-262 803l87 6l-272 -809h-394l-219 887l-128 47v110h610v-112l-106 -30l164 -734l-87 12l283 871h348l292 -896l-94 4zM614 1138l260 326h276l260 -326h-236l-200 179h76l-200 -179h-236z" />
    <glyph glyph-name="Ycircumflex" unicode="&#x176;" horiz-adv-x="1727" 
d="M164 1247l-157 42v125h823v-125l-152 -42l383 -515l-134 -5l357 520l-153 42v125h564v-125l-139 -42l-458 -649v-425l178 -48v-125h-781v125l178 48v420zM914 1723h76l-200 -179h-236l260 326h276l260 -326h-236z" />
    <glyph glyph-name="ycircumflex" unicode="&#x177;" horiz-adv-x="1402" 
d="M909 173l-245 -247l-519 954l-135 47v110h657v-112l-121 -30zM360 -465q-126 0 -185.5 46.5t-59.5 133.5q0 40 13 73.5t30.5 54t29.5 20.5q19 0 56 -5.5t82.5 -11t92.5 -5.5q58 0 95.5 16.5t63.5 48t49 75.5l35 65l57 81l299 764l-111 34v112h465v-112l-107 -31
l-440 -1015q-52 -120 -118.5 -195.5t-152 -112t-194.5 -36.5zM349 1138l260 326h276l260 -326h-236l-200 179h76l-200 -179h-236z" />
    <glyph glyph-name="Ydieresis" unicode="&#x178;" horiz-adv-x="1727" 
d="M164 1247l-157 42v125h823v-125l-152 -42l383 -515l-134 -5l357 520l-153 42v125h564v-125l-139 -42l-458 -649v-425l178 -48v-125h-781v125l178 48v420zM711 1571q-83 0 -121.5 35t-38.5 104q0 68 38.5 100.5t121.5 32.5t121.5 -32.5t38.5 -100.5q0 -69 -38.5 -104
t-121.5 -35zM1194 1571q-84 0 -122.5 35t-38.5 104q0 68 38.5 100.5t122.5 32.5q82 0 120.5 -32.5t38.5 -100.5q0 -69 -38.5 -104t-120.5 -35z" />
    <glyph glyph-name="Zacute" unicode="&#x179;" horiz-adv-x="1549" 
d="M1386 1414v-225l-829 -1056l-201 112h788l179 295h154l-97 -633h-145l-78 93h-1026v225l825 1055l242 -111h-818l-97 -256h-154v585h126l110 -84h1021zM709 1544l165 326h368v-63l-352 -263h-181z" />
    <glyph glyph-name="zacute" unicode="&#x17a;" horiz-adv-x="1212" 
d="M108 0v158l641 797l149 -121h-730l216 170l-170 -349h-135l47 408h96l64 -26h812v-156l-658 -803l-137 126h650l-163 -136l242 362h126l-97 -430h-953zM519 1138l165 326h368v-63l-352 -263h-181z" />
    <glyph glyph-name="Zdotaccent" unicode="&#x17b;" horiz-adv-x="1549" 
d="M1386 1414v-225l-829 -1056l-201 112h788l179 295h154l-97 -633h-145l-78 93h-1026v225l825 1055l242 -111h-818l-97 -256h-154v585h126l110 -84h1021zM814 1563q-101 0 -149 37.5t-48 109.5t48 106.5t149 34.5q102 0 149.5 -34.5t47.5 -106.5t-47.5 -109.5t-149.5 -37.5
z" />
    <glyph glyph-name="zdotaccent" unicode="&#x17c;" horiz-adv-x="1212" 
d="M108 0v158l641 797l149 -121h-730l216 170l-170 -349h-135l47 408h96l64 -26h812v-156l-658 -803l-137 126h650l-163 -136l242 362h126l-97 -430h-953zM624 1157q-101 0 -149 37.5t-48 109.5t48 106.5t149 34.5q102 0 149.5 -34.5t47.5 -106.5t-47.5 -109.5t-149.5 -37.5
z" />
    <glyph glyph-name="Zcaron" unicode="&#x17d;" horiz-adv-x="1549" 
d="M1386 1414v-225l-829 -1056l-201 112h788l179 295h154l-97 -633h-145l-78 93h-1026v225l825 1055l242 -111h-818l-97 -256h-154v585h126l110 -84h1021zM852 1691h-76l200 179h236l-260 -326h-276l-260 326h236z" />
    <glyph glyph-name="zcaron" unicode="&#x17e;" horiz-adv-x="1212" 
d="M108 0v158l641 797l149 -121h-730l216 170l-170 -349h-135l47 408h96l64 -26h812v-156l-658 -803l-137 126h650l-163 -136l242 362h126l-97 -430h-953zM662 1285h-76l200 179h236l-260 -326h-276l-260 326h236z" />
    <glyph glyph-name="uni018F" unicode="&#x18f;" horiz-adv-x="1635" 
d="M387 530l129 128q-3 -176 27.5 -269t96 -128t165.5 -35q81 0 139.5 20t97 65.5t57.5 120.5t19 186q0 196 -47.5 307.5t-155.5 158.5t-287 47q-97 0 -182 -8t-161 -22t-150 -31v163q129 79 242 124t211 64t180 19q242 0 412.5 -81t261 -239.5t90.5 -390.5
q0 -175 -49.5 -314.5t-145.5 -238t-235 -150.5t-318 -52q-235 0 -383 82t-220.5 259.5t-81.5 460.5h1118v-246h-830z" />
    <glyph glyph-name="florin" unicode="&#x192;" horiz-adv-x="1462" 
d="M219 633v155h1080v-155h-1080zM209 -249q-169 0 -245 49t-76 146q0 66 41.5 111.5t103.5 45.5q11 0 32.5 -24.5t53 -56.5t71 -56t84.5 -24q41 0 73.5 13t57.5 45t43.5 87t31.5 138l106 640q22 137 74.5 244t133.5 181t190.5 112t247.5 38q114 0 190.5 -21.5t114.5 -65
t38 -108.5q0 -66 -41 -111.5t-104 -45.5q-10 0 -33 24.5t-58 56.5t-79.5 56t-97.5 24q-44 0 -77 -20t-56.5 -70.5t-38.5 -142.5l-112 -690q-24 -143 -81.5 -251t-144.5 -180t-199 -108t-244 -36z" />
    <glyph glyph-name="Ohorn" unicode="&#x1a0;" horiz-adv-x="1778" 
d="M883 230q114 0 191 45t116 139t39 240q0 180 -36.5 298t-114 175.5t-200.5 57.5q-114 0 -191 -45t-116 -139t-39 -240q0 -180 36.5 -298t114 -175.5t200.5 -57.5zM902 1440q76 0 133 -6.5t107 -13.5t105 -7q95 0 128.5 30.5t33.5 75.5q0 34 -10 58.5t-20.5 41t-10.5 24.5
q1 34 40 59t88 25q64 0 109.5 -34.5t45.5 -121.5q0 -116 -64 -187.5t-210 -89.5v16q97 -65 159.5 -157.5t92.5 -204.5t30 -239q0 -172 -55 -308t-159 -231.5t-252 -145.5t-334 -50q-181 0 -322 50t-238 145t-147 230.5t-50 306.5q0 172 55 308t159 231t252 145t334 50z" />
    <glyph glyph-name="ohorn" unicode="&#x1a1;" horiz-adv-x="1361" 
d="M661 201q76 0 124.5 30t71.5 95.5t23 171.5q0 120 -21 194.5t-66 109t-118 34.5q-76 0 -124 -29.5t-71 -95.5t-23 -172q0 -120 20.5 -194.5t66 -109t117.5 -34.5zM1318 1193q0 -115 -58.5 -180t-193.5 -81l1 16q96 -75 140 -184t44 -241q0 -172 -71 -295t-205 -188.5
t-323 -65.5q-179 0 -306 64.5t-194 185.5t-67 290q0 172 71 295t205 188.5t323 65.5q63 0 109 -6t82.5 -12.5t70.5 -6.5q77 0 103.5 28.5t26.5 75.5q0 34 -10 58.5t-20 41t-10 24.5q1 34 39.5 59t88.5 25q63 0 108.5 -34.5t45.5 -122.5z" />
    <glyph glyph-name="Uhorn" unicode="&#x1af;" horiz-adv-x="1845" 
d="M1720 1519q0 34 -10 58.5t-20 41t-10 24.5q1 34 39.5 59t88.5 25q64 0 109 -34.5t45 -121.5q0 -86 -37 -152t-124.5 -109t-238.5 -62v-692q0 -200 -72.5 -328.5t-215.5 -191t-353 -62.5q-230 0 -383 57t-229 179t-76 316v716l-178 47v125h781v-125l-178 -47v-692
q0 -96 37 -157t111.5 -90t186.5 -29q113 0 184.5 31.5t106.5 97.5t35 170v669l-178 47v125h439q53 0 83.5 12.5t43.5 36t13 56.5z" />
    <glyph glyph-name="uhorn" unicode="&#x1b0;" horiz-adv-x="1521" 
d="M574 386q0 -44 14.5 -70.5t47 -39t86.5 -12.5q41 0 91.5 7.5t103.5 19.5l17 -92q-103 -82 -165.5 -127.5t-101.5 -66.5t-69.5 -26t-70.5 -5q-168 0 -249.5 78.5t-81.5 225.5v551l-164 95v100l564 23l-22 -164v-497zM1336 1142q0 34 -10 58.5t-20 41t-10 24.5q1 34 40 59
t88 25q64 0 109.5 -34.5t45.5 -122.5q0 -126 -79 -197t-236 -77l-3 -42v-587q9 -6 31 -21t49 -33t52.5 -34.5t41.5 -26.5v-74l-403 -127h-55l-94 210v678l-62 75v100l380 3q76 1 105.5 27.5t29.5 74.5z" />
    <glyph glyph-name="uni01C4" unicode="&#x1c4;" horiz-adv-x="3306" 
d="M1247 722q0 233 -85.5 340t-294.5 107h-355l-35 245h456q248 0 414.5 -77.5t250.5 -228.5t84 -372q0 -239 -94 -403.5t-264 -248.5t-400 -84h-447l35 245h402q115 0 188.5 49t109 154t35.5 274zM100 0v125l177 48v1068l-177 47v126h603v-1414h-603zM3144 1414v-225
l-829 -1056l-201 112h788l179 295h154l-97 -633h-145l-78 93h-1026v225l825 1055l242 -111h-818l-97 -256h-154v585h126l110 -84h1021zM2610 1691h-76l200 179h236l-260 -326h-276l-260 326h236z" />
    <glyph glyph-name="uni01C5" unicode="&#x1c5;" horiz-adv-x="2981" 
d="M1247 722q0 233 -85.5 340t-294.5 107h-355l-35 245h456q248 0 414.5 -77.5t250.5 -228.5t84 -372q0 -239 -94 -403.5t-264 -248.5t-400 -84h-447l35 245h402q115 0 188.5 49t109 154t35.5 274zM100 0v125l177 48v1068l-177 47v126h603v-1414h-603zM1877 0v158l641 797
l149 -121h-730l216 170l-170 -349h-135l47 408h96l64 -26h812v-156l-658 -803l-137 126h650l-163 -136l242 362h126l-97 -430h-953zM2431 1285h-76l200 179h236l-260 -326h-276l-260 326h236z" />
    <glyph glyph-name="uni01C6" unicode="&#x1c6;" horiz-adv-x="2648" 
d="M868 659q0 102 -37 148.5t-127 46.5q-78 0 -132 -33.5t-82 -106t-28 -193.5q0 -112 26.5 -180t82 -98t142.5 -30q52 0 112 10.5t119 29.5v-60q-104 -75 -170.5 -120t-108.5 -66t-71 -27t-59 -6q-150 0 -249 61t-149 174.5t-50 268.5q0 137 46.5 245t130 184t195.5 116
t242 40q78 0 141.5 -9.5t125 -32.5t133.5 -63l-233 -17v271q-12 4 -48 18.5t-77.5 31t-70.5 27.5v113l504 88h94l-24 -266v-934q9 -6 31 -21t49 -33t52.5 -34.5t41.5 -26.5v-74l-404 -127h-54l-94 224v461zM1544 0v158l641 797l149 -121h-730l216 170l-170 -349h-135l47 408
h96l64 -26h812v-156l-658 -803l-137 126h650l-163 -136l242 362h126l-97 -430h-953zM2099 1285h-76l200 179h236l-260 -326h-276l-260 326h236z" />
    <glyph glyph-name="uni01C7" unicode="&#x1c7;" horiz-adv-x="2819" 
d="M1384 -92h-151l-82 92h-656l8 245h707l-132 -124l227 443h187zM703 1241v-1241h-603v125l177 48v1068l-177 48v125h781v-125zM2583 467q0 -109 -37 -198.5t-114.5 -155t-198 -100.5t-287.5 -35q-154 0 -244.5 29t-130.5 81.5t-40 121.5q0 72 40 112t100 40q19 0 45 -22
t60.5 -51t77.5 -50.5t94 -21.5q113 0 161.5 46.5t48.5 160.5v817l-178 48v125h781v-125l-178 -48v-774z" />
    <glyph glyph-name="uni01C8" unicode="&#x1c8;" horiz-adv-x="2239" 
d="M1384 -92h-151l-82 92h-656l8 245h707l-132 -124l227 443h187zM703 1241v-1241h-603v125l177 48v1068l-177 48v125h781v-125zM1877 1181q-119 0 -178 39.5t-59 117.5t59 115t178 37q120 0 179 -37t59 -115t-59 -117.5t-179 -39.5zM1698 728q-11 10 -38 31t-60.5 47
t-64.5 51v89l451 117h112l-21 -318v-661q0 -72 -10.5 -127t-39.5 -102.5t-85.5 -94.5t-148.5 -101t-230 -124l-101 146q86 81 134 131t70 84t27 67t5 80v685z" />
    <glyph glyph-name="uni01C9" unicode="&#x1c9;" horiz-adv-x="1486" 
d="M577 146l135 -35v-111h-651v111l138 35v1033q-13 8 -44.5 25.5l-72 40t-79.5 44.5v113l504 88h94l-24 -266v-1078zM1124 1181q-119 0 -178 39.5t-59 117.5t59 115t178 37q120 0 179 -37t59 -115t-59 -117.5t-179 -39.5zM945 728q-11 10 -38 31t-60.5 47t-64.5 51v89
l451 117h112l-21 -318v-661q0 -72 -10.5 -127t-39.5 -102.5t-85.5 -94.5t-148.5 -101t-230 -124l-101 146q86 81 134 131t70 84t27 67t5 80v685z" />
    <glyph glyph-name="uni01CA" unicode="&#x1ca;" horiz-adv-x="3163" 
d="M281 172v1057l-188 60v125h715l615 -1116l-58 -121v1065l-181 47v125h600v-125l-175 -47v-1242h-494l-695 1273l105 25v-1126l181 -47v-125h-600v125zM2926 467q0 -109 -37 -198.5t-114.5 -155t-198 -100.5t-287.5 -35q-154 0 -244.5 29t-130.5 81.5t-40 121.5
q0 72 40 112t100 40q19 0 45 -22t60.5 -51t77.5 -50.5t94 -21.5q113 0 161.5 46.5t48.5 160.5v817l-178 48v125h781v-125l-178 -48v-774z" />
    <glyph glyph-name="uni01CB" unicode="&#x1cb;" horiz-adv-x="2583" 
d="M281 172v1057l-188 60v125h715l615 -1116l-58 -121v1065l-181 47v125h600v-125l-175 -47v-1242h-494l-695 1273l105 25v-1126l181 -47v-125h-600v125zM2220 1181q-119 0 -178 39.5t-59 117.5t59 115t178 37q120 0 179 -37t59 -115t-59 -117.5t-179 -39.5zM2041 728
q-11 10 -38 31t-60.5 47t-64.5 51v89l451 117h112l-21 -318v-661q0 -72 -10.5 -127t-39.5 -102.5t-85.5 -94.5t-148.5 -101t-230 -124l-101 146q86 81 134 131t70 84t27 67t5 80v685z" />
    <glyph glyph-name="uni01CC" unicode="&#x1cc;" horiz-adv-x="2260" 
d="M609 826v-689l91 -26v-111h-607v111l138 35v575q-16 14 -55.5 46.5t-107.5 89.5v82l368 126h73zM863 111l92 26v502q0 46 -15 75.5t-50.5 44t-96.5 14.5q-49 0 -105 -8t-109 -21l-19 84q109 85 174.5 133t105.5 69.5t72 27t74 5.5q177 0 262 -82.5t85 -236.5v-598
l139 -35v-111h-609v111zM1898 1181q-119 0 -178 39.5t-59 117.5t59 115t178 37q120 0 179 -37t59 -115t-59 -117.5t-179 -39.5zM1719 728q-11 10 -38 31t-60.5 47t-64.5 51v89l451 117h112l-21 -318v-661q0 -72 -10.5 -127t-39.5 -102.5t-85.5 -94.5t-148.5 -101t-230 -124
l-101 146q86 81 134 131t70 84t27 67t5 80v685z" />
    <glyph glyph-name="Gcaron" unicode="&#x1e6;" horiz-adv-x="1749" 
d="M1532 247h117v-124q-101 -45 -217 -79t-238 -52t-242 -18q-214 0 -373.5 44.5t-265.5 133.5t-158.5 223.5t-52.5 314.5q1 226 95 394.5t284.5 262.5t480.5 94q101 0 197 -16t191 -45l-106 -11l114 133h144v-583h-184l-122 360l154 -178q-88 53 -172 74.5t-188 21.5
q-121 0 -207 -25.5t-141 -81t-81.5 -143t-28.5 -211.5q-2 -185 53 -300t166 -168.5t275 -53.5q52 0 100.5 6t96.5 21t98 39l-214 -254v484l-172 55v112h730v-112l-133 -61v-257zM922 1691h-76l200 179h236l-260 -326h-276l-260 326h236z" />
    <glyph glyph-name="gcaron" unicode="&#x1e7;" horiz-adv-x="1291" 
d="M602 -465q-164 0 -271 14t-169 41t-87 66t-25 88q0 44 22 78t72.5 57.5t134 36t206.5 12.5l107 1v-14q-87 0 -138 -12t-73 -35t-22 -59q0 -42 24.5 -67.5t86.5 -37t173 -11.5q125 0 198.5 13.5t105 40t31.5 64.5q0 26 -10.5 44t-48.5 29.5t-118.5 16.5t-221.5 5
t-232.5 17t-144.5 48.5t-74.5 75t-21.5 96.5q0 97 81 154.5t271 67.5l2 -34q-60 -1 -82 -15.5t-22 -45.5q0 -22 9 -36.5t45 -23.5t116.5 -13t224.5 -4q143 0 241.5 -16t158 -50.5t86 -90t26.5 -135.5q0 -115 -73 -197t-219.5 -125.5t-368.5 -43.5zM595 321q-161 0 -272 40.5
t-168 123.5t-57 207q0 125 61 207.5t173 123t263 40.5q114 0 204.5 -25t155.5 -73t99.5 -117t34.5 -156q0 -126 -61 -208t-171.5 -122.5t-261.5 -40.5zM602 496q68 0 109 45t41 170q0 111 -37.5 151t-120.5 40q-70 0 -111.5 -45.5t-41.5 -170.5q0 -110 38.5 -150t122.5 -40z
M783 938l-39 99q61 0 130 1t135.5 2.5t120 2.5t83.5 1q29 0 36.5 -13t7.5 -58q0 -73 -7.5 -96.5t-24.5 -23.5q-12 0 -39.5 4t-77.5 13.5t-129 26t-196 41.5zM645 1285h-76l200 179h236l-260 -326h-276l-260 326h236z" />
    <glyph glyph-name="uni01EA" unicode="&#x1ea;" horiz-adv-x="1761" 
d="M902 1440q181 0 322 -50t238 -144.5t147 -230t50 -306.5q0 -172 -55 -308t-159 -231.5t-252 -145.5t-334 -50q-181 0 -322 50t-238 145t-147 230.5t-50 306.5q0 172 55 308t159 231t252 145t334 50zM883 230q114 0 191 45t116 139t39 240q0 180 -36.5 298t-114 175.5
t-200.5 57.5q-114 0 -191 -45t-116 -139t-39 -240q0 -180 36.5 -298t114 -175.5t200.5 -57.5zM950 -76q-29 -42 -43.5 -70.5t-20 -49.5t-5.5 -44q0 -41 22 -60.5t62 -19.5q31 0 55.5 5.5t64.5 22.5v-96q-43 -29 -76 -46t-63.5 -24t-66.5 -7q-102 0 -146 44t-44 122
q0 34 10 68t40.5 78t93.5 106l124 126h99z" />
    <glyph glyph-name="uni01EB" unicode="&#x1eb;" horiz-adv-x="1336" 
d="M661 201q76 0 124.5 30t71.5 95.5t23 171.5q0 120 -21 194.5t-66 109t-118 34.5q-76 0 -124 -29.5t-71 -95.5t-23 -172q0 -120 20.5 -194.5t66 -109t117.5 -34.5zM652 -26q-179 0 -306 64.5t-194 185.5t-67 290q0 172 71 295t205 188.5t323 65.5q180 0 306.5 -64.5
t193.5 -185t67 -290.5q0 -172 -71 -295t-205 -188.5t-323 -65.5zM748 -76q-27 -43 -41 -71t-20 -49.5t-6 -44.5q0 -40 22 -59.5t61 -19.5q31 0 56 5.5t64 22.5v-96q-64 -44 -107.5 -60.5t-98.5 -16.5q-101 0 -145 44t-44 122q0 34 10 68t41 77.5t91 106.5l120 126h99z" />
    <glyph glyph-name="Aringacute" unicode="&#x1fa;" horiz-adv-x="1851" 
d="M447 404v227h743v-227h-743zM1658 176l185 -51v-125h-809v125l170 38l-404 1087h40l-381 -1083l167 -42v-125h-610v125l168 38l480 1258h507zM906 1898q86 0 138 -51t52 -135q0 -82 -52 -134t-138 -52q-83 0 -136 52t-53 134q0 84 53 135t136 51zM907 1603q49 0 78 30
t29 79q0 52 -29 82.5t-78 30.5t-78.5 -30.5t-29.5 -82.5q0 -49 29.5 -79t78.5 -30zM805 2000l165 326h368v-63l-352 -263h-181z" />
    <glyph glyph-name="aringacute" unicode="&#x1fb;" horiz-adv-x="1314" 
d="M822 651l-17 -146q-114 -11 -183 -25.5t-105 -33.5t-48 -46t-12 -64q0 -66 28 -93.5t103 -27.5q50 0 87 14.5t57.5 41.5t20.5 61v377q0 100 -43 147t-147 47q-58 0 -96 -3t-67 -9l63 83q-9 -40 -18.5 -74.5t-19 -65.5t-21.5 -61q-17 -46 -54.5 -60t-107.5 -14
q-73 0 -107.5 25t-34.5 65t42 87.5t120.5 90t188.5 69.5t247 27q159 0 253.5 -42t136 -121.5t41.5 -192.5v-448q0 -32 10 -51t29 -27t49 -8q17 0 37 2t45 7v-123q-60 -38 -131 -61t-146 -23q-80 0 -135.5 31.5t-85.5 99t-37 176.5l13 11q-25 -116 -70 -186.5t-114 -101.5
t-168 -31q-164 0 -251 72.5t-87 216.5q0 76 27.5 135.5t104.5 105.5t222.5 82t380.5 65zM632 1492q86 0 138 -51t52 -135q0 -82 -52 -134t-138 -52q-83 0 -136 52t-53 134q0 84 53 135t136 51zM633 1197q49 0 78 30t29 79q0 52 -29 82.5t-78 30.5t-78.5 -30.5t-29.5 -82.5
q0 -49 29.5 -79t78.5 -30zM531 1565l165 326h368v-63l-352 -263h-181z" />
    <glyph glyph-name="AEacute" unicode="&#x1fc;" horiz-adv-x="2537" 
d="M579 424v227h642v-227h-642zM1045 1414h170v-164l-753 -1083l167 -42v-125h-627v125l168 38zM717 1289v125h364l-67 -206zM2041 990v-255v-255h-166l-17 159h-468v196h468l17 155h166zM2402 981h-181l-127 352l127 -140h-831v221h769l112 88h131v-521zM2069 84l203 415
h187l-94 -591h-151l-82 92h-742v221h792zM995 0v125l177 48v1241h426v-1414h-603zM1290 1544l165 326h368v-63l-352 -263h-181z" />
    <glyph glyph-name="aeacute" unicode="&#x1fd;" horiz-adv-x="1916" 
d="M563 903q-58 0 -96 -3t-67 -9l63 83q-9 -40 -18.5 -74.5t-19 -65.5t-21.5 -61q-17 -46 -54.5 -60t-107.5 -14q-73 0 -107.5 25t-34.5 65t42 87.5t120.5 90t188.5 69.5t247 27q130 0 219 -32.5t142 -85t75 -110.5h-218q60 99 158.5 163.5t248.5 64.5q174 0 284 -59.5
t165 -187.5t61 -332h-802l-3 151h589l-139 -58q2 120 -17 182.5t-58.5 85.5t-99.5 23q-63 0 -105 -25.5t-62 -85.5t-20 -166q0 -136 33 -213t108 -109.5t199 -32.5q69 0 129 6t114.5 16t106.5 23v-128q-98 -64 -182 -103.5t-155.5 -57.5t-133.5 -18q-164 0 -285.5 40
t-195 120.5t-95.5 200.5l44 5q-16 -141 -66.5 -221t-129.5 -112.5t-182 -32.5q-164 0 -251 72.5t-87 216.5q0 76 27.5 135.5t104.5 105.5t222.5 82t380.5 65l-17 -146q-114 -11 -183 -25.5t-105 -33.5t-48 -46t-12 -64q0 -66 28 -93.5t103 -27.5q50 0 87 15.5t57.5 45
t20.5 71.5v362q0 100 -43 147t-147 47zM850 1138l165 326h368v-63l-352 -263h-181z" />
    <glyph glyph-name="Oslashacute" unicode="&#x1fe;" horiz-adv-x="1796" 
d="M475 372l713 795l101 87l152 160h255l-269 -283l-106 -89l-714 -795l-100 -87l-152 -160h-256l270 283zM919 1440q181 0 322 -50t238 -144.5t147.5 -230t50.5 -306.5q0 -172 -55 -308t-159.5 -231.5t-252.5 -145.5t-334 -50q-181 0 -321.5 50t-238 145t-147.5 230.5
t-50 306.5q0 172 55 308t159 231t252 145t334 50zM900 230q114 0 191 45t116.5 139t39.5 240q0 180 -36.5 298t-114 175.5t-200.5 57.5q-114 0 -191 -45t-116.5 -139t-39.5 -240q0 -180 36.5 -298t114 -175.5t200.5 -57.5zM792 1544l165 326h368v-63l-352 -263h-181z" />
    <glyph glyph-name="oslashacute" unicode="&#x1ff;" horiz-adv-x="1370" 
d="M78 0l219 223l58 37l574 617l48 37l122 123h193l-220 -223l-58 -37l-574 -617l-48 -37l-122 -123h-192zM678 201q76 0 124.5 30t71 95.5t22.5 171.5q0 120 -20.5 194.5t-65.5 109t-118 34.5q-76 0 -124 -29.5t-71 -95.5t-23 -172q0 -120 20.5 -194.5t65.5 -109t118 -34.5
zM669 -26q-180 0 -306.5 64.5t-193.5 185.5t-67 290q0 172 71 295t205 188.5t323 65.5q179 0 306 -64.5t194 -185t67 -290.5q0 -172 -71 -295t-205 -188.5t-323 -65.5zM580 1138l165 326h368v-63l-352 -263h-181z" />
    <glyph glyph-name="uni0200" unicode="&#x200;" horiz-adv-x="1851" 
d="M447 404v227h743v-227h-743zM1658 176l185 -51v-125h-809v125l170 38l-404 1087h40l-381 -1083l167 -42v-125h-610v125l168 38l480 1258h507zM835 1544h-174l-339 263v63h347zM1202 1544h-167l-209 272v54h322z" />
    <glyph glyph-name="uni0201" unicode="&#x201;" horiz-adv-x="1314" 
d="M822 651l-17 -146q-114 -11 -183 -25.5t-105 -33.5t-48 -46t-12 -64q0 -66 28 -93.5t103 -27.5q50 0 87 14.5t57.5 41.5t20.5 61v377q0 100 -43 147t-147 47q-58 0 -96 -3t-67 -9l63 83q-9 -40 -18.5 -74.5t-19 -65.5t-21.5 -61q-17 -46 -54.5 -60t-107.5 -14
q-73 0 -107.5 25t-34.5 65t42 87.5t120.5 90t188.5 69.5t247 27q159 0 253.5 -42t136 -121.5t41.5 -192.5v-448q0 -32 10 -51t29 -27t49 -8q17 0 37 2t45 7v-123q-60 -38 -131 -61t-146 -23q-80 0 -135.5 31.5t-85.5 99t-37 176.5l13 11q-25 -116 -70 -186.5t-114 -101.5
t-168 -31q-164 0 -251 72.5t-87 216.5q0 76 27.5 135.5t104.5 105.5t222.5 82t380.5 65zM561 1138h-174l-339 263v63h347zM928 1138h-167l-209 272v54h322z" />
    <glyph glyph-name="uni0202" unicode="&#x202;" horiz-adv-x="1851" 
d="M447 404v227h743v-227h-743zM1658 176l185 -51v-125h-809v125l170 38l-404 1087h40l-381 -1083l167 -42v-125h-610v125l168 38l480 1258h507zM910 1674q-88 0 -130 -28.5t-62 -101.5h-159q17 129 57 199.5t112 99.5t182 29q111 0 182.5 -29t112 -99.5t56.5 -199.5h-159
q-20 73 -61.5 101.5t-130.5 28.5z" />
    <glyph glyph-name="uni0203" unicode="&#x203;" horiz-adv-x="1314" 
d="M822 651l-17 -146q-114 -11 -183 -25.5t-105 -33.5t-48 -46t-12 -64q0 -66 28 -93.5t103 -27.5q50 0 87 14.5t57.5 41.5t20.5 61v377q0 100 -43 147t-147 47q-58 0 -96 -3t-67 -9l63 83q-9 -40 -18.5 -74.5t-19 -65.5t-21.5 -61q-17 -46 -54.5 -60t-107.5 -14
q-73 0 -107.5 25t-34.5 65t42 87.5t120.5 90t188.5 69.5t247 27q159 0 253.5 -42t136 -121.5t41.5 -192.5v-448q0 -32 10 -51t29 -27t49 -8q17 0 37 2t45 7v-123q-60 -38 -131 -61t-146 -23q-80 0 -135.5 31.5t-85.5 99t-37 176.5l13 11q-25 -116 -70 -186.5t-114 -101.5
t-168 -31q-164 0 -251 72.5t-87 216.5q0 76 27.5 135.5t104.5 105.5t222.5 82t380.5 65zM636 1268q-59 0 -96.5 -12.5t-59.5 -40.5t-36 -77h-159q17 129 57 199.5t112 99.5t182 29q111 0 182.5 -29t112 -99.5t56.5 -199.5h-159q-13 49 -35.5 77t-60 40.5t-96.5 12.5z" />
    <glyph glyph-name="uni0204" unicode="&#x204;" horiz-adv-x="1642" 
d="M1146 990v-255v-255h-166l-17 159h-468v196h468l17 155h166zM1507 981h-181l-127 352l127 -140h-831v221h769l112 88h131v-521zM1174 84l203 415h187l-94 -591h-151l-82 92h-742v221h792zM100 0v125l177 48v1068l-177 48v125h603v-1414h-603zM756 1544h-174l-339 263v63
h347zM1123 1544h-167l-209 272v54h322z" />
    <glyph glyph-name="uni0205" unicode="&#x205;" horiz-adv-x="1233" 
d="M640 1063q175 0 285 -59.5t164.5 -187.5t60.5 -332h-802l-2 151h524l-75 -58q2 120 -16.5 182.5t-58 85.5t-99.5 23q-64 0 -105 -25.5t-61.5 -85.5t-20.5 -166q0 -136 33 -213t107.5 -109.5t198.5 -32.5q69 0 129.5 6t115 16t106.5 23v-128q-99 -64 -183 -103.5
t-155 -57.5t-134 -18q-180 0 -306 60t-193 177.5t-67 290.5t64.5 299t188.5 194t301 68zM559 1138h-174l-339 263v63h347zM926 1138h-167l-209 272v54h322z" />
    <glyph glyph-name="uni0206" unicode="&#x206;" horiz-adv-x="1642" 
d="M1146 990v-255v-255h-166l-17 159h-468v196h468l17 155h166zM1507 981h-181l-127 352l127 -140h-831v221h769l112 88h131v-521zM1174 84l203 415h187l-94 -591h-151l-82 92h-742v221h792zM100 0v125l177 48v1068l-177 48v125h603v-1414h-603zM831 1674q-88 0 -130 -28.5
t-62 -101.5h-159q17 129 57 199.5t112 99.5t182 29q111 0 182.5 -29t112 -99.5t56.5 -199.5h-159q-20 73 -61.5 101.5t-130.5 28.5z" />
    <glyph glyph-name="uni0207" unicode="&#x207;" horiz-adv-x="1233" 
d="M640 1063q175 0 285 -59.5t164.5 -187.5t60.5 -332h-802l-2 151h524l-75 -58q2 120 -16.5 182.5t-58 85.5t-99.5 23q-64 0 -105 -25.5t-61.5 -85.5t-20.5 -166q0 -136 33 -213t107.5 -109.5t198.5 -32.5q69 0 129.5 6t115 16t106.5 23v-128q-99 -64 -183 -103.5
t-155 -57.5t-134 -18q-180 0 -306 60t-193 177.5t-67 290.5t64.5 299t188.5 194t301 68zM634 1268q-59 0 -96.5 -12.5t-59.5 -40.5t-36 -77h-159q17 129 57 199.5t112 99.5t182 29q111 0 182.5 -29t112 -99.5t56.5 -199.5h-159q-13 49 -35.5 77t-60 40.5t-96.5 12.5z" />
    <glyph glyph-name="uni0208" unicode="&#x208;" horiz-adv-x="980" 
d="M881 126v-126h-781v125l177 48v1068l-177 47v126h781v-125l-178 -48v-1068zM415 1544h-174l-339 263v63h347zM782 1544h-167l-209 272v54h322z" />
    <glyph glyph-name="uni0209" unicode="&#x209;" horiz-adv-x="808" 
d="M632 1063l-22 -318v-599l134 -35v-111h-650v111l138 35v582q-11 10 -38.5 31t-61 47t-64.5 51v89l451 117h113zM314 1138h-174l-339 263v63h347zM681 1138h-167l-209 272v54h322z" />
    <glyph glyph-name="uni020A" unicode="&#x20a;" horiz-adv-x="980" 
d="M881 126v-126h-781v125l177 48v1068l-177 47v126h781v-125l-178 -48v-1068zM490 1674q-88 0 -130 -28.5t-62 -101.5h-159q17 129 57 199.5t112 99.5t182 29q111 0 182.5 -29t112 -99.5t56.5 -199.5h-159q-20 73 -61.5 101.5t-130.5 28.5z" />
    <glyph glyph-name="uni020B" unicode="&#x20b;" horiz-adv-x="808" 
d="M632 1063l-22 -318v-599l134 -35v-111h-650v111l138 35v582q-11 10 -38.5 31t-61 47t-64.5 51v89l451 117h113zM389 1268q-59 0 -96.5 -12.5t-59.5 -40.5t-36 -77h-159q17 129 57 199.5t112 99.5t182 29q111 0 182.5 -29t112 -99.5t56.5 -199.5h-159q-13 49 -35.5 77
t-60 40.5t-96.5 12.5z" />
    <glyph glyph-name="uni020C" unicode="&#x20c;" horiz-adv-x="1761" 
d="M902 1440q181 0 322 -50t238 -144.5t147 -230t50 -306.5q0 -172 -55 -308t-159 -231.5t-252 -145.5t-334 -50q-181 0 -322 50t-238 145t-147 230.5t-50 306.5q0 172 55 308t159 231t252 145t334 50zM883 230q114 0 191 45t116 139t39 240q0 180 -36.5 298t-114 175.5
t-200.5 57.5q-114 0 -191 -45t-116 -139t-39 -240q0 -180 36.5 -298t114 -175.5t200.5 -57.5zM805 1544h-174l-339 263v63h347zM1172 1544h-167l-209 272v54h322z" />
    <glyph glyph-name="uni020D" unicode="&#x20d;" horiz-adv-x="1336" 
d="M661 201q76 0 124.5 30t71.5 95.5t23 171.5q0 120 -21 194.5t-66 109t-118 34.5q-76 0 -124 -29.5t-71 -95.5t-23 -172q0 -120 20.5 -194.5t66 -109t117.5 -34.5zM652 -26q-179 0 -306 64.5t-194 185.5t-67 290q0 172 71 295t205 188.5t323 65.5q180 0 306.5 -64.5
t193.5 -185t67 -290.5q0 -172 -71 -295t-205 -188.5t-323 -65.5zM593 1138h-174l-339 263v63h347zM960 1138h-167l-209 272v54h322z" />
    <glyph glyph-name="uni020E" unicode="&#x20e;" horiz-adv-x="1761" 
d="M902 1440q181 0 322 -50t238 -144.5t147 -230t50 -306.5q0 -172 -55 -308t-159 -231.5t-252 -145.5t-334 -50q-181 0 -322 50t-238 145t-147 230.5t-50 306.5q0 172 55 308t159 231t252 145t334 50zM883 230q114 0 191 45t116 139t39 240q0 180 -36.5 298t-114 175.5
t-200.5 57.5q-114 0 -191 -45t-116 -139t-39 -240q0 -180 36.5 -298t114 -175.5t200.5 -57.5zM880 1674q-88 0 -130 -28.5t-62 -101.5h-159q17 129 57 199.5t112 99.5t182 29q111 0 182.5 -29t112 -99.5t56.5 -199.5h-159q-20 73 -61.5 101.5t-130.5 28.5z" />
    <glyph glyph-name="uni020F" unicode="&#x20f;" horiz-adv-x="1336" 
d="M661 201q76 0 124.5 30t71.5 95.5t23 171.5q0 120 -21 194.5t-66 109t-118 34.5q-76 0 -124 -29.5t-71 -95.5t-23 -172q0 -120 20.5 -194.5t66 -109t117.5 -34.5zM652 -26q-179 0 -306 64.5t-194 185.5t-67 290q0 172 71 295t205 188.5t323 65.5q180 0 306.5 -64.5
t193.5 -185t67 -290.5q0 -172 -71 -295t-205 -188.5t-323 -65.5zM668 1268q-59 0 -96.5 -12.5t-59.5 -40.5t-36 -77h-159q17 129 57 199.5t112 99.5t182 29q111 0 182.5 -29t112 -99.5t56.5 -199.5h-159q-13 49 -35.5 77t-60 40.5t-96.5 12.5z" />
    <glyph glyph-name="uni0210" unicode="&#x210;" horiz-adv-x="1748" 
d="M973 784q98 0 146.5 45t48.5 147q0 67 -18.5 109t-63.5 63t-126 21h-482v245h613q182 0 288.5 -43.5t152.5 -123t46 -187.5q0 -101 -46 -181t-140.5 -130t-242.5 -64v5q137 -9 210 -37.5t104 -81t42 -133.5l25 -141q9 -59 23 -88t43.5 -37.5t84.5 -8.5v-163
q-172 -12 -279 -9t-167 25t-87 67t-38 117l-35 218q-11 70 -30.5 107t-60 50.5t-117.5 13.5h-389v195h495zM703 1414v-1241l158 -48v-125h-761v125l177 48v1068l-177 48v125h603zM805 1544h-174l-339 263v63h347zM1172 1544h-167l-209 272v54h322z" />
    <glyph glyph-name="uni0211" unicode="&#x211;" horiz-adv-x="1139" 
d="M944 1059q78 0 116.5 -42t38.5 -112q0 -77 -24.5 -127t-46.5 -50q-64 0 -123 1l-118 2t-122 1q-31 0 -52 -2.5t-40 -10t-46 -23.5l-32 57q96 102 161 163t112 92t88 41t88 10zM609 826v-676l155 -39v-111h-671v111l138 35v575q-13 12 -37 32t-56.5 46.5t-69.5 57.5v82
l368 126h73zM507 1138h-174l-339 263v63h347zM874 1138h-167l-209 272v54h322z" />
    <glyph glyph-name="uni0212" unicode="&#x212;" horiz-adv-x="1748" 
d="M973 784q98 0 146.5 45t48.5 147q0 67 -18.5 109t-63.5 63t-126 21h-482v245h613q182 0 288.5 -43.5t152.5 -123t46 -187.5q0 -101 -46 -181t-140.5 -130t-242.5 -64v5q137 -9 210 -37.5t104 -81t42 -133.5l25 -141q9 -59 23 -88t43.5 -37.5t84.5 -8.5v-163
q-172 -12 -279 -9t-167 25t-87 67t-38 117l-35 218q-11 70 -30.5 107t-60 50.5t-117.5 13.5h-389v195h495zM703 1414v-1241l158 -48v-125h-761v125l177 48v1068l-177 48v125h603zM880 1674q-88 0 -130 -28.5t-62 -101.5h-159q17 129 57 199.5t112 99.5t182 29
q111 0 182.5 -29t112 -99.5t56.5 -199.5h-159q-20 73 -61.5 101.5t-130.5 28.5z" />
    <glyph glyph-name="uni0213" unicode="&#x213;" horiz-adv-x="1139" 
d="M944 1059q78 0 116.5 -42t38.5 -112q0 -77 -24.5 -127t-46.5 -50q-64 0 -123 1l-118 2t-122 1q-31 0 -52 -2.5t-40 -10t-46 -23.5l-32 57q96 102 161 163t112 92t88 41t88 10zM609 826v-676l155 -39v-111h-671v111l138 35v575q-13 12 -37 32t-56.5 46.5t-69.5 57.5v82
l368 126h73zM582 1268q-59 0 -96.5 -12.5t-59.5 -40.5t-36 -77h-159q17 129 57 199.5t112 99.5t182 29q111 0 182.5 -29t112 -99.5t56.5 -199.5h-159q-13 49 -35.5 77t-60 40.5t-96.5 12.5z" />
    <glyph glyph-name="uni0214" unicode="&#x214;" horiz-adv-x="1794" 
d="M1319 573v669l-178 47v125h599v-125l-178 -47v-686q0 -200 -72.5 -328.5t-215.5 -191t-353 -62.5q-230 0 -383 57t-229 179t-76 316v716l-178 47v125h781v-125l-178 -47v-692q0 -96 37 -157t111.5 -90t186.5 -29q113 0 184.5 31.5t106.5 97.5t35 170zM898 1544h-174
l-339 263v63h347zM1265 1544h-167l-209 272v54h322z" />
    <glyph glyph-name="uni0215" unicode="&#x215;" horiz-adv-x="1473" 
d="M574 386q0 -44 14.5 -70.5t47 -39t86.5 -12.5q41 0 91.5 7.5t103.5 19.5l17 -92q-103 -82 -165.5 -127.5t-101.5 -66.5t-69.5 -26t-70.5 -5q-168 0 -249.5 78.5t-81.5 225.5v551l-164 95v100l564 23l-22 -164v-497zM977 -26l-94 210v678l-62 75v100l447 3l-7 -166v-584
q9 -6 31 -21t49 -33t52.5 -34.5t41.5 -26.5v-74l-403 -127h-55zM636 1138h-174l-339 263v63h347zM1003 1138h-167l-209 272v54h322z" />
    <glyph glyph-name="uni0216" unicode="&#x216;" horiz-adv-x="1794" 
d="M1319 573v669l-178 47v125h599v-125l-178 -47v-686q0 -200 -72.5 -328.5t-215.5 -191t-353 -62.5q-230 0 -383 57t-229 179t-76 316v716l-178 47v125h781v-125l-178 -47v-692q0 -96 37 -157t111.5 -90t186.5 -29q113 0 184.5 31.5t106.5 97.5t35 170zM973 1674
q-88 0 -130 -28.5t-62 -101.5h-159q17 129 57 199.5t112 99.5t182 29q111 0 182.5 -29t112 -99.5t56.5 -199.5h-159q-20 73 -61.5 101.5t-130.5 28.5z" />
    <glyph glyph-name="uni0217" unicode="&#x217;" horiz-adv-x="1473" 
d="M574 386q0 -44 14.5 -70.5t47 -39t86.5 -12.5q41 0 91.5 7.5t103.5 19.5l17 -92q-103 -82 -165.5 -127.5t-101.5 -66.5t-69.5 -26t-70.5 -5q-168 0 -249.5 78.5t-81.5 225.5v551l-164 95v100l564 23l-22 -164v-497zM977 -26l-94 210v678l-62 75v100l447 3l-7 -166v-584
q9 -6 31 -21t49 -33t52.5 -34.5t41.5 -26.5v-74l-403 -127h-55zM711 1268q-59 0 -96.5 -12.5t-59.5 -40.5t-36 -77h-159q17 129 57 199.5t112 99.5t182 29q111 0 182.5 -29t112 -99.5t56.5 -199.5h-159q-13 49 -35.5 77t-60 40.5t-96.5 12.5z" />
    <glyph glyph-name="uni0218" unicode="&#x218;" horiz-adv-x="1458" 
d="M1192 1358l-157 -1l109 145h146v-503h-180l-109 261l93 -108q-56 38 -134 54t-182 16q-136 0 -208 -29t-72 -114q0 -54 30.5 -85.5t83.5 -49t123.5 -28.5t149.5 -23q79 -13 161 -35.5t151 -68t110.5 -126.5t41.5 -209q0 -164 -80 -270.5t-238 -158t-394 -51.5
q-136 0 -245.5 8t-222.5 41l-42 418h163l236 -407l-299 230q94 -40 178 -55.5t198 -15.5q140 0 219 19t112 59t33 103q0 64 -36.5 99t-98 51.5t-137.5 25.5t-155 22q-79 12 -153.5 35t-134.5 68.5t-95.5 122.5t-35.5 196q0 150 77 249t223 148t352 49q117 0 215.5 -18
t203.5 -64zM599 -366q70 9 92 23t22 46q0 24 -17 38.5t-40 23t-40.5 15.5t-17.5 15q0 60 34 92t114 32q68 0 105.5 -34.5t37.5 -122.5q0 -49 -22 -94t-81.5 -78.5t-172.5 -48.5z" />
    <glyph glyph-name="uni0219" unicode="&#x219;" horiz-adv-x="1169" 
d="M643 1063q100 0 181 -8t163 -28l29 -279h-148l-143 242l152 -130q-65 19 -129.5 28.5t-106.5 9.5q-106 0 -152.5 -25.5t-46.5 -77.5q0 -43 25.5 -68.5t88.5 -41t174 -32.5q84 -12 150.5 -33.5t112.5 -57.5t70 -92t24 -137q0 -112 -58 -192t-180 -123t-318 -43
q-108 0 -216 10.5t-175 27.5l-48 311h139l162 -274l-158 124q30 -8 73.5 -13.5t90 -8.5t87.5 -3q135 0 188.5 31t53.5 92q0 41 -19.5 66t-60.5 39t-102 25t-144 25q-110 20 -176 56.5t-95 95.5t-29 142q0 113 61.5 189.5t182 114.5t297.5 38zM459 -366q70 9 92 23t22 46
q0 24 -17 38.5t-40 23t-40.5 15.5t-17.5 15q0 60 34 92t114 32q68 0 105.5 -34.5t37.5 -122.5q0 -49 -22 -94t-81.5 -78.5t-172.5 -48.5z" />
    <glyph glyph-name="uni021A" unicode="&#x21a;" horiz-adv-x="1673" 
d="M624 1356h425v-1183l185 -48v-125h-795v125l185 48v1183zM1382 1169h-1091l104 108l-159 -387h-186l74 620h137l107 -136l-152 40h1240l-150 -40l106 136h137l74 -620h-186l-159 387zM703 -366q70 9 92 23t22 46q0 24 -17 38.5t-40 23t-40.5 15.5t-17.5 15q0 60 34 92
t114 32q68 0 105.5 -34.5t37.5 -122.5q0 -49 -22 -94t-81.5 -78.5t-172.5 -48.5z" />
    <glyph glyph-name="uni021B" unicode="&#x21b;" horiz-adv-x="1050" 
d="M595 367q0 -83 42 -115t151 -32q48 0 103 6.5t121 20.5v-137q-122 -54 -201 -83.5t-135.5 -41t-112.5 -11.5q-109 0 -186.5 33t-118 100t-40.5 167v527l-198 133v90q29 11 72 31.5t94 49t104.5 61t104.5 67t94 67.5h106v-289v-644zM441 818l6 219h537v-219h-543z
M496 -366q70 9 92 23t22 46q0 24 -17 38.5t-40 23t-40.5 15.5t-17.5 15q0 60 34 92t114 32q68 0 105.5 -34.5t37.5 -122.5q0 -49 -22 -94t-81.5 -78.5t-172.5 -48.5z" />
    <glyph glyph-name="uni022A" unicode="&#x22a;" horiz-adv-x="1761" 
d="M902 1440q181 0 322 -50t238 -144.5t147 -230t50 -306.5q0 -172 -55 -308t-159 -231.5t-252 -145.5t-334 -50q-181 0 -322 50t-238 145t-147 230.5t-50 306.5q0 172 55 308t159 231t252 145t334 50zM883 230q114 0 191 45t116 139t39 240q0 180 -36.5 298t-114 175.5
t-200.5 57.5q-114 0 -191 -45t-116 -139t-39 -240q0 -180 36.5 -298t114 -175.5t200.5 -57.5zM639 1571q-83 0 -121.5 35t-38.5 104q0 68 38.5 100.5t121.5 32.5t121.5 -32.5t38.5 -100.5q0 -69 -38.5 -104t-121.5 -35zM1122 1571q-84 0 -122.5 35t-38.5 104
q0 68 38.5 100.5t122.5 32.5q82 0 120.5 -32.5t38.5 -100.5q0 -69 -38.5 -104t-120.5 -35zM541 2004v165h678v-165h-678z" />
    <glyph glyph-name="uni022B" unicode="&#x22b;" horiz-adv-x="1336" 
d="M661 201q76 0 124.5 30t71.5 95.5t23 171.5q0 120 -21 194.5t-66 109t-118 34.5q-76 0 -124 -29.5t-71 -95.5t-23 -172q0 -120 20.5 -194.5t66 -109t117.5 -34.5zM652 -26q-179 0 -306 64.5t-194 185.5t-67 290q0 172 71 295t205 188.5t323 65.5q180 0 306.5 -64.5
t193.5 -185t67 -290.5q0 -172 -71 -295t-205 -188.5t-323 -65.5zM428 1165q-84 0 -122.5 35t-38.5 104q0 68 38.5 100.5t122.5 32.5q82 0 120.5 -32.5t38.5 -100.5q0 -69 -38.5 -104t-120.5 -35zM910 1165q-84 0 -122.5 35t-38.5 104q0 68 38.5 100.5t122.5 32.5
q82 0 120.5 -32.5t38.5 -100.5q0 -69 -38.5 -104t-120.5 -35zM329 1569v165h678v-165h-678z" />
    <glyph glyph-name="uni022C" unicode="&#x22c;" horiz-adv-x="1761" 
d="M902 1440q181 0 322 -50t238 -144.5t147 -230t50 -306.5q0 -172 -55 -308t-159 -231.5t-252 -145.5t-334 -50q-181 0 -322 50t-238 145t-147 230.5t-50 306.5q0 172 55 308t159 231t252 145t334 50zM883 230q114 0 191 45t116 139t39 240q0 180 -36.5 298t-114 175.5
t-200.5 57.5q-114 0 -191 -45t-116 -139t-39 -240q0 -180 36.5 -298t114 -175.5t200.5 -57.5zM1245 1865q-12 -132 -38 -200.5t-70.5 -93t-110.5 -24.5q-44 0 -80.5 16.5t-68.5 38t-60.5 38t-54.5 16.5q-22 0 -36 -8.5t-22.5 -31.5t-15.5 -67h-177q12 132 38 200.5t70.5 93
t110.5 24.5q44 0 80.5 -16.5t68.5 -38t60.5 -38t54.5 -16.5q23 0 36.5 8.5t22 32t14.5 66.5h178zM541 2004v165h678v-165h-678z" />
    <glyph glyph-name="uni022D" unicode="&#x22d;" horiz-adv-x="1336" 
d="M661 201q76 0 124.5 30t71.5 95.5t23 171.5q0 120 -21 194.5t-66 109t-118 34.5q-76 0 -124 -29.5t-71 -95.5t-23 -172q0 -120 20.5 -194.5t66 -109t117.5 -34.5zM652 -26q-179 0 -306 64.5t-194 185.5t-67 290q0 172 71 295t205 188.5t323 65.5q180 0 306.5 -64.5
t193.5 -185t67 -290.5q0 -172 -71 -295t-205 -188.5t-323 -65.5zM1028 1459q-12 -132 -38 -200.5t-70.5 -93t-110.5 -24.5q-44 0 -79 16.5t-65 38t-57 38t-53 16.5q-22 0 -36 -8.5t-22.5 -31.5t-15.5 -67h-177q12 132 38 200.5t70.5 93t110.5 24.5q44 0 79 -16.5t65 -38
t57 -38t53 -16.5q23 0 36.5 8.5t22 32t15.5 66.5h177zM329 1569v165h678v-165h-678z" />
    <glyph glyph-name="uni0230" unicode="&#x230;" horiz-adv-x="1761" 
d="M902 1440q181 0 322 -50t238 -144.5t147 -230t50 -306.5q0 -172 -55 -308t-159 -231.5t-252 -145.5t-334 -50q-181 0 -322 50t-238 145t-147 230.5t-50 306.5q0 172 55 308t159 231t252 145t334 50zM883 230q114 0 191 45t116 139t39 240q0 180 -36.5 298t-114 175.5
t-200.5 57.5q-114 0 -191 -45t-116 -139t-39 -240q0 -180 36.5 -298t114 -175.5t200.5 -57.5zM880 1563q-101 0 -149 37.5t-48 109.5t48 106.5t149 34.5q102 0 149.5 -34.5t47.5 -106.5t-47.5 -109.5t-149.5 -37.5zM541 2004v165h678v-165h-678z" />
    <glyph glyph-name="uni0231" unicode="&#x231;" horiz-adv-x="1336" 
d="M661 201q76 0 124.5 30t71.5 95.5t23 171.5q0 120 -21 194.5t-66 109t-118 34.5q-76 0 -124 -29.5t-71 -95.5t-23 -172q0 -120 20.5 -194.5t66 -109t117.5 -34.5zM652 -26q-179 0 -306 64.5t-194 185.5t-67 290q0 172 71 295t205 188.5t323 65.5q180 0 306.5 -64.5
t193.5 -185t67 -290.5q0 -172 -71 -295t-205 -188.5t-323 -65.5zM668 1157q-101 0 -149 37.5t-48 109.5t48 106.5t149 34.5q102 0 149.5 -34.5t47.5 -106.5t-47.5 -109.5t-149.5 -37.5zM329 1569v165h678v-165h-678z" />
    <glyph glyph-name="uni0232" unicode="&#x232;" horiz-adv-x="1727" 
d="M164 1247l-157 42v125h823v-125l-152 -42l383 -515l-134 -5l357 520l-153 42v125h564v-125l-139 -42l-458 -649v-425l178 -48v-125h-781v125l178 48v420zM613 1625v165h678v-165h-678z" />
    <glyph glyph-name="uni0233" unicode="&#x233;" horiz-adv-x="1402" 
d="M909 173l-245 -247l-519 954l-135 47v110h657v-112l-121 -30zM360 -465q-126 0 -185.5 46.5t-59.5 133.5q0 40 13 73.5t30.5 54t29.5 20.5q19 0 56 -5.5t82.5 -11t92.5 -5.5q58 0 95.5 16.5t63.5 48t49 75.5l35 65l57 81l299 764l-111 34v112h465v-112l-107 -31
l-440 -1015q-52 -120 -118.5 -195.5t-152 -112t-194.5 -36.5zM408 1219v165h678v-165h-678z" />
    <glyph glyph-name="uni0237" unicode="&#x237;" horiz-adv-x="753" 
d="M212 728q-11 10 -38 31t-60.5 47t-64.5 51v89l451 117h112l-21 -318v-661q0 -72 -10.5 -127t-39.5 -102.5t-85.5 -94.5t-148.5 -101t-230 -124l-101 146q86 81 134 131t70 84t27 67t5 80v685z" />
    <glyph glyph-name="uni0259" unicode="&#x259;" horiz-adv-x="1234" 
d="M594 -26q-174 0 -284.5 59.5t-164.5 187.5t-61 332h802l2 -151h-589l140 58q-2 -119 16.5 -182t58 -86t99.5 -23q64 0 105.5 25.5t61.5 86t20 165.5q0 136 -33 213t-107 109.5t-199 32.5q-69 0 -129.5 -6t-115 -16t-106.5 -23v128q99 65 183 104t156 57t133 18
q180 0 306 -60t193 -177.5t67 -290.5q0 -172 -64.5 -298.5t-188.5 -194.5t-301 -68z" />
    <glyph glyph-name="uni02B9" unicode="&#x2b9;" horiz-adv-x="564" 
d="M109 836l51 578h327v-67l-163 -511h-215z" />
    <glyph glyph-name="uni02BA" unicode="&#x2ba;" horiz-adv-x="1027" 
d="M109 836l51 578h327v-67l-163 -511h-215zM572 836l51 578h327v-67l-163 -511h-215z" />
    <glyph glyph-name="uni02BC" unicode="&#x2bc;" horiz-adv-x="626" 
d="M93 899q107 49 142 85.5t35 84.5q0 31 -22 55.5t-50 45t-50 39t-22 36.5q0 82 55 137.5t153 55.5q102 0 159 -55t57 -153q0 -103 -35.5 -183.5t-121 -146.5t-236.5 -126z" />
    <glyph glyph-name="circumflex" unicode="&#x2c6;" horiz-adv-x="1000" 
d="M102 1138l260 326h276l260 -326h-236l-200 179h76l-200 -179h-236z" />
    <glyph glyph-name="caron" unicode="&#x2c7;" horiz-adv-x="1000" 
d="M538 1285h-76l200 179h236l-260 -326h-276l-260 326h236z" />
    <glyph glyph-name="breve" unicode="&#x2d8;" horiz-adv-x="1000" 
d="M500 1334q59 0 96.5 12t60 40.5t35.5 77.5h159q-16 -128 -56.5 -199t-112 -100t-182.5 -29q-110 0 -182 29t-112 100t-57 199h159q14 -49 36 -77.5t59.5 -40.5t96.5 -12z" />
    <glyph glyph-name="dotaccent" unicode="&#x2d9;" horiz-adv-x="1000" 
d="M500 1157q-101 0 -149 37.5t-48 109.5t48 106.5t149 34.5q102 0 149.5 -34.5t47.5 -106.5t-47.5 -109.5t-149.5 -37.5z" />
    <glyph glyph-name="ring" unicode="&#x2da;" horiz-adv-x="1000" 
d="M496 1492q86 0 138 -51t52 -135q0 -82 -52 -134t-138 -52q-83 0 -136 52t-53 134q0 84 53 135t136 51zM497 1197q49 0 78 30t29 79q0 52 -29 82.5t-78 30.5t-78.5 -30.5t-29.5 -82.5q0 -49 29.5 -79t78.5 -30z" />
    <glyph glyph-name="ogonek" unicode="&#x2db;" horiz-adv-x="1000" 
d="M379 -77q-31 -42 -47.5 -72t-23 -52t-6.5 -44q0 -37 23 -56t60 -19q31 0 56 5.5t64 22.5v-96q-42 -29 -74.5 -46t-63.5 -24t-68 -7q-101 0 -145 44t-44 122q0 34 10.5 68t43 77.5t98.5 105.5l131 127h100z" />
    <glyph glyph-name="tilde" unicode="&#x2dc;" horiz-adv-x="1000" 
d="M860 1459q-12 -132 -38 -200.5t-70.5 -93t-110.5 -24.5q-44 0 -79 16.5t-65 38t-57 38t-53 16.5q-22 0 -36 -8.5t-22.5 -31.5t-15.5 -67h-177q12 132 38 200.5t70.5 93t110.5 24.5q44 0 79 -16.5t65 -38t57 -38t53 -16.5q23 0 36.5 8.5t22 32t15.5 66.5h177z" />
    <glyph glyph-name="hungarumlaut" unicode="&#x2dd;" horiz-adv-x="1000" 
d="M575 1138l166 326h347v-63l-339 -263h-174zM208 1138l54 326h322v-54l-209 -272h-167z" />
    <glyph glyph-name="gravecomb" unicode="&#x300;" 
d="M105 1138h-181l-352 263v63h368z" />
    <glyph glyph-name="acutecomb" unicode="&#x301;" 
d="M-105 1138l165 326h368v-63l-352 -263h-181z" />
    <glyph glyph-name="uni0302" unicode="&#x302;" 
d="M-398 1138l260 326h276l260 -326h-236l-200 179h76l-200 -179h-236z" />
    <glyph glyph-name="tildecomb" unicode="&#x303;" 
d="M360 1459q-12 -132 -38 -200.5t-70.5 -93t-110.5 -24.5q-44 0 -79 16.5t-65 38t-57 38t-53 16.5q-22 0 -36 -8.5t-22.5 -31.5t-15.5 -67h-177q12 132 38 200.5t70.5 93t110.5 24.5q44 0 79 -16.5t65 -38t57 -38t53 -16.5q23 0 36.5 8.5t22 32t15.5 66.5h177z" />
    <glyph glyph-name="uni0304" unicode="&#x304;" 
d="M-339 1219v165h678v-165h-678z" />
    <glyph glyph-name="uni0306" unicode="&#x306;" 
d="M0 1334q59 0 96.5 12t60 40.5t35.5 77.5h159q-16 -128 -56.5 -199t-112 -100t-182.5 -29q-110 0 -182 29t-112 100t-57 199h159q14 -49 36 -77.5t59.5 -40.5t96.5 -12z" />
    <glyph glyph-name="uni0307" unicode="&#x307;" 
d="M0 1157q-101 0 -149 37.5t-48 109.5t48 106.5t149 34.5q102 0 149.5 -34.5t47.5 -106.5t-47.5 -109.5t-149.5 -37.5z" />
    <glyph glyph-name="uni0308" unicode="&#x308;" 
d="M-240 1165q-84 0 -122.5 35t-38.5 104q0 68 38.5 100.5t122.5 32.5q82 0 120.5 -32.5t38.5 -100.5q0 -69 -38.5 -104t-120.5 -35zM242 1165q-84 0 -122.5 35t-38.5 104q0 68 38.5 100.5t122.5 32.5q82 0 120.5 -32.5t38.5 -100.5q0 -69 -38.5 -104t-120.5 -35z" />
    <glyph glyph-name="hookabovecomb" unicode="&#x309;" 
d="M-212 1341l5 177q152 0 244.5 -10.5t140 -32t64 -54t16.5 -75.5q0 -52 -29.5 -95.5t-104 -76t-211.5 -53.5l-18 94q66 11 98.5 21.5t42 23t9.5 28.5q0 20 -16 32.5t-71 18t-170 2.5z" />
    <glyph glyph-name="uni030A" unicode="&#x30a;" 
d="M-4 1492q86 0 138 -51t52 -135q0 -82 -52 -134t-138 -52q-83 0 -136 52t-53 134q0 84 53 135t136 51zM-3 1197q49 0 78 30t29 79q0 52 -29 82.5t-78 30.5t-78.5 -30.5t-29.5 -82.5q0 -49 29.5 -79t78.5 -30z" />
    <glyph glyph-name="uni030B" unicode="&#x30b;" 
d="M75 1138l166 326h347v-63l-339 -263h-174zM-292 1138l54 326h322v-54l-209 -272h-167z" />
    <glyph glyph-name="uni030C" unicode="&#x30c;" 
d="M38 1285h-76l200 179h236l-260 -326h-276l-260 326h236z" />
    <glyph glyph-name="uni030F" unicode="&#x30f;" 
d="M-75 1138h-174l-339 263v63h347zM292 1138h-167l-209 272v54h322z" />
    <glyph glyph-name="uni0311" unicode="&#x311;" 
d="M0 1268q-59 0 -96.5 -12.5t-59.5 -40.5t-36 -77h-159q17 129 57 199.5t112 99.5t182 29q111 0 182.5 -29t112 -99.5t56.5 -199.5h-159q-13 49 -35.5 77t-60 40.5t-96.5 12.5z" />
    <glyph glyph-name="uni0312" unicode="&#x312;" 
d="M151 1256q0 -59 -34 -94t-115 -35q-68 0 -107 34.5t-39 122.5q0 50 23 96.5t83 81.5t172 49l16 -92q-68 -9 -90.5 -26t-22.5 -46q0 -24 17 -38.5t40 -23t40 -15t17 -14.5z" />
    <glyph glyph-name="uni031B" unicode="&#x31b;" 
d="M407 1197q0 -133 -85 -206t-254 -73h-165v122h122q52 0 82.5 12.5t44 36t13.5 56.5q0 34 -10 58.5t-20.5 41t-10.5 24.5q2 35 40.5 60t88.5 25q63 0 108.5 -35t45.5 -122z" />
    <glyph glyph-name="dotbelowcomb" unicode="&#x323;" 
d="M0 -361q-101 0 -149 37t-48 109t48 106.5t149 34.5q102 0 149.5 -34.5t47.5 -106.5t-47.5 -109t-149.5 -37z" />
    <glyph glyph-name="uni0324" unicode="&#x324;" 
d="M-241 -354q-83 0 -121.5 35t-38.5 104q0 68 38.5 100.5t121.5 32.5t121.5 -32.5t38.5 -100.5q0 -69 -38.5 -104t-121.5 -35zM242 -354q-84 0 -122.5 35t-38.5 104q0 68 38.5 100.5t122.5 32.5q82 0 120.5 -32.5t38.5 -100.5q0 -69 -38.5 -104t-120.5 -35z" />
    <glyph glyph-name="uni0326" unicode="&#x326;" 
d="M-134 -366q70 9 92 23t22 46q0 24 -17 38.5t-40 23t-40.5 15.5t-17.5 15q0 60 34 92t114 32q68 0 105.5 -34.5t37.5 -122.5q0 -49 -22 -94t-81.5 -78.5t-172.5 -48.5z" />
    <glyph glyph-name="uni0327" unicode="&#x327;" 
d="M-96 -465q-107 0 -142 22t-35 67q0 32 18.5 47.5t35.5 15.5q12 0 36.5 -13.5t56 -26.5t62.5 -13q47 0 66.5 13.5t19.5 43.5q0 22 -16 36.5t-64 25.5t-145 24v37l191 226h144l-196 -223l-8 107q125 -19 186.5 -46t81.5 -63.5t20 -84.5q0 -72 -39 -114.5t-110 -61.5
t-163 -19z" />
    <glyph glyph-name="uni0328" unicode="&#x328;" 
d="M-121 -77q-31 -42 -47.5 -72t-23 -52t-6.5 -44q0 -37 23 -56t60 -19q31 0 56 5.5t64 22.5v-96q-42 -29 -74.5 -46t-63.5 -24t-68 -7q-101 0 -145 44t-44 122q0 34 10.5 68t43 77.5t98.5 105.5l131 127h100z" />
    <glyph glyph-name="uni032E" unicode="&#x32e;" 
d="M0 -180q59 0 96.5 12.5t60 40.5t35.5 77h159q-16 -128 -56.5 -199t-112 -100t-182.5 -29q-110 0 -182 29t-112 100t-57 199h159q14 -49 36 -77t59.5 -40.5t96.5 -12.5z" />
    <glyph glyph-name="uni0331" unicode="&#x331;" 
d="M-339 -313v181h678v-181h-678z" />
    <glyph glyph-name="uni0335" unicode="&#x335;" 
d="M-385 1144v126h770v-126h-770z" />
    <glyph glyph-name="Wgrave" unicode="&#x1e80;" horiz-adv-x="2496" 
d="M1314 1096l-334 -1096h-512l-266 1240l-185 49v125h788v-125l-150 -36l206 -1116l-89 -12l368 1289h421l396 -1292l-106 -26l190 1153l-148 40v125h578v-125l-168 -36l-263 -1253h-488l-318 1096h80zM1447 1544h-181l-352 263v63h368z" />
    <glyph glyph-name="wgrave" unicode="&#x1e81;" horiz-adv-x="1948" 
d="M1570 891l-100 34v112h437v-112l-93 -31l-214 -901h-393l-262 803l87 6l-272 -809h-394l-219 887l-128 47v110h610v-112l-106 -30l164 -734l-87 12l283 871h348l292 -896l-94 4zM1117 1138h-181l-352 263v63h368z" />
    <glyph glyph-name="Wacute" unicode="&#x1e82;" horiz-adv-x="2496" 
d="M1314 1096l-334 -1096h-512l-266 1240l-185 49v125h788v-125l-150 -36l206 -1116l-89 -12l368 1289h421l396 -1292l-106 -26l190 1153l-148 40v125h578v-125l-168 -36l-263 -1253h-488l-318 1096h80zM1237 1544l165 326h368v-63l-352 -263h-181z" />
    <glyph glyph-name="wacute" unicode="&#x1e83;" horiz-adv-x="1948" 
d="M1570 891l-100 34v112h437v-112l-93 -31l-214 -901h-393l-262 803l87 6l-272 -809h-394l-219 887l-128 47v110h610v-112l-106 -30l164 -734l-87 12l283 871h348l292 -896l-94 4zM907 1138l165 326h368v-63l-352 -263h-181z" />
    <glyph glyph-name="Wdieresis" unicode="&#x1e84;" horiz-adv-x="2496" 
d="M1314 1096l-334 -1096h-512l-266 1240l-185 49v125h788v-125l-150 -36l206 -1116l-89 -12l368 1289h421l396 -1292l-106 -26l190 1153l-148 40v125h578v-125l-168 -36l-263 -1253h-488l-318 1096h80zM1101 1571q-83 0 -121.5 35t-38.5 104q0 68 38.5 100.5t121.5 32.5
t121.5 -32.5t38.5 -100.5q0 -69 -38.5 -104t-121.5 -35zM1584 1571q-84 0 -122.5 35t-38.5 104q0 68 38.5 100.5t122.5 32.5q82 0 120.5 -32.5t38.5 -100.5q0 -69 -38.5 -104t-120.5 -35z" />
    <glyph glyph-name="wdieresis" unicode="&#x1e85;" horiz-adv-x="1948" 
d="M1570 891l-100 34v112h437v-112l-93 -31l-214 -901h-393l-262 803l87 6l-272 -809h-394l-219 887l-128 47v110h610v-112l-106 -30l164 -734l-87 12l283 871h348l292 -896l-94 4zM772 1165q-84 0 -122.5 35t-38.5 104q0 68 38.5 100.5t122.5 32.5q82 0 120.5 -32.5
t38.5 -100.5q0 -69 -38.5 -104t-120.5 -35zM1254 1165q-84 0 -122.5 35t-38.5 104q0 68 38.5 100.5t122.5 32.5q82 0 120.5 -32.5t38.5 -100.5q0 -69 -38.5 -104t-120.5 -35z" />
    <glyph glyph-name="uni1E9E" unicode="&#x1e9e;" horiz-adv-x="2897" 
d="M1192 1358l-157 -1l109 145h146v-503h-180l-109 261l93 -108q-56 38 -134 54t-182 16q-136 0 -208 -29t-72 -114q0 -54 30.5 -85.5t83.5 -49t123.5 -28.5t149.5 -23q79 -13 161 -35.5t151 -68t110.5 -126.5t41.5 -209q0 -164 -80 -270.5t-238 -158t-394 -51.5
q-136 0 -245.5 8t-222.5 41l-42 418h163l236 -407l-299 230q94 -40 178 -55.5t198 -15.5q140 0 219 19t112 59t33 103q0 64 -36.5 99t-98 51.5t-137.5 25.5t-155 22q-79 12 -153.5 35t-134.5 68.5t-95.5 122.5t-35.5 196q0 150 77 249t223 148t352 49q117 0 215.5 -18
t203.5 -64zM2631 1358l-157 -1l109 145h146v-503h-180l-109 261l93 -108q-56 38 -134 54t-182 16q-136 0 -208 -29t-72 -114q0 -54 30.5 -85.5t83.5 -49t123.5 -28.5t149.5 -23q79 -13 161 -35.5t151 -68t110.5 -126.5t41.5 -209q0 -164 -80 -270.5t-238 -158t-394 -51.5
q-136 0 -245.5 8t-222.5 41l-42 418h163l236 -407l-299 230q94 -40 178 -55.5t198 -15.5q140 0 219 19t112 59t33 103q0 64 -36.5 99t-98 51.5t-137.5 25.5t-155 22q-79 12 -153.5 35t-134.5 68.5t-95.5 122.5t-35.5 196q0 150 77 249t223 148t352 49q117 0 215.5 -18
t203.5 -64z" />
    <glyph glyph-name="uni1EA0" unicode="&#x1ea0;" horiz-adv-x="1851" 
d="M447 404v227h743v-227h-743zM1658 176l185 -51v-125h-809v125l170 38l-404 1087h40l-381 -1083l167 -42v-125h-610v125l168 38l480 1258h507zM843 -361q-101 0 -149 37t-48 109t48 106.5t149 34.5q102 0 149.5 -34.5t47.5 -106.5t-47.5 -109t-149.5 -37z" />
    <glyph glyph-name="uni1EA1" unicode="&#x1ea1;" horiz-adv-x="1314" 
d="M822 651l-17 -146q-114 -11 -183 -25.5t-105 -33.5t-48 -46t-12 -64q0 -66 28 -93.5t103 -27.5q50 0 87 14.5t57.5 41.5t20.5 61v377q0 100 -43 147t-147 47q-58 0 -96 -3t-67 -9l63 83q-9 -40 -18.5 -74.5t-19 -65.5t-21.5 -61q-17 -46 -54.5 -60t-107.5 -14
q-73 0 -107.5 25t-34.5 65t42 87.5t120.5 90t188.5 69.5t247 27q159 0 253.5 -42t136 -121.5t41.5 -192.5v-448q0 -32 10 -51t29 -27t49 -8q17 0 37 2t45 7v-123q-60 -38 -131 -61t-146 -23q-80 0 -135.5 31.5t-85.5 99t-37 176.5l13 11q-25 -116 -70 -186.5t-114 -101.5
t-168 -31q-164 0 -251 72.5t-87 216.5q0 76 27.5 135.5t104.5 105.5t222.5 82t380.5 65zM657 -361q-101 0 -149 37t-48 109t48 106.5t149 34.5q102 0 149.5 -34.5t47.5 -106.5t-47.5 -109t-149.5 -37z" />
    <glyph glyph-name="uni1EA2" unicode="&#x1ea2;" horiz-adv-x="1851" 
d="M447 404v227h743v-227h-743zM1658 176l185 -51v-125h-809v125l170 38l-404 1087h40l-381 -1083l167 -42v-125h-610v125l168 38l480 1258h507zM698 1747l5 177q152 0 244.5 -10.5t140 -32t64 -54t16.5 -75.5q0 -52 -29.5 -95.5t-104 -76t-211.5 -53.5l-18 94
q66 11 98.5 21.5t42 23t9.5 28.5q0 20 -16 32.5t-71 18t-170 2.5z" />
    <glyph glyph-name="uni1EA3" unicode="&#x1ea3;" horiz-adv-x="1314" 
d="M822 651l-17 -146q-114 -11 -183 -25.5t-105 -33.5t-48 -46t-12 -64q0 -66 28 -93.5t103 -27.5q50 0 87 14.5t57.5 41.5t20.5 61v377q0 100 -43 147t-147 47q-58 0 -96 -3t-67 -9l63 83q-9 -40 -18.5 -74.5t-19 -65.5t-21.5 -61q-17 -46 -54.5 -60t-107.5 -14
q-73 0 -107.5 25t-34.5 65t42 87.5t120.5 90t188.5 69.5t247 27q159 0 253.5 -42t136 -121.5t41.5 -192.5v-448q0 -32 10 -51t29 -27t49 -8q17 0 37 2t45 7v-123q-60 -38 -131 -61t-146 -23q-80 0 -135.5 31.5t-85.5 99t-37 176.5l13 11q-25 -116 -70 -186.5t-114 -101.5
t-168 -31q-164 0 -251 72.5t-87 216.5q0 76 27.5 135.5t104.5 105.5t222.5 82t380.5 65zM424 1341l5 177q152 0 244.5 -10.5t140 -32t64 -54t16.5 -75.5q0 -52 -29.5 -95.5t-104 -76t-211.5 -53.5l-18 94q66 11 98.5 21.5t42 23t9.5 28.5q0 20 -16 32.5t-71 18t-170 2.5z
" />
    <glyph glyph-name="uni1EA4" unicode="&#x1ea4;" horiz-adv-x="1851" 
d="M447 404v227h743v-227h-743zM1658 176l185 -51v-125h-809v125l170 38l-404 1087h40l-381 -1083l167 -42v-125h-610v125l168 38l480 1258h507zM1241 1741l111 267h341v-56l-266 -211h-186zM872 1723h76l-200 -179h-236l260 326h276l260 -326h-236z" />
    <glyph glyph-name="uni1EA5" unicode="&#x1ea5;" horiz-adv-x="1314" 
d="M822 651l-17 -146q-114 -11 -183 -25.5t-105 -33.5t-48 -46t-12 -64q0 -66 28 -93.5t103 -27.5q50 0 87 14.5t57.5 41.5t20.5 61v377q0 100 -43 147t-147 47q-58 0 -96 -3t-67 -9l63 83q-9 -40 -18.5 -74.5t-19 -65.5t-21.5 -61q-17 -46 -54.5 -60t-107.5 -14
q-73 0 -107.5 25t-34.5 65t42 87.5t120.5 90t188.5 69.5t247 27q159 0 253.5 -42t136 -121.5t41.5 -192.5v-448q0 -32 10 -51t29 -27t49 -8q17 0 37 2t45 7v-123q-60 -38 -131 -61t-146 -23q-80 0 -135.5 31.5t-85.5 99t-37 176.5l13 11q-25 -116 -70 -186.5t-114 -101.5
t-168 -31q-164 0 -251 72.5t-87 216.5q0 76 27.5 135.5t104.5 105.5t222.5 82t380.5 65zM967 1335l111 267h341v-56l-266 -211h-186zM598 1317h76l-200 -179h-236l260 326h276l260 -326h-236z" />
    <glyph glyph-name="uni1EA6" unicode="&#x1ea6;" horiz-adv-x="1851" 
d="M447 404v227h743v-227h-743zM1658 176l185 -51v-125h-809v125l170 38l-404 1087h40l-381 -1083l167 -42v-125h-610v125l168 38l480 1258h507zM579 1741h-186l-266 211v56h341zM948 1723l-200 -179h-236l260 326h276l260 -326h-236l-200 179h76z" />
    <glyph glyph-name="uni1EA7" unicode="&#x1ea7;" horiz-adv-x="1314" 
d="M822 651l-17 -146q-114 -11 -183 -25.5t-105 -33.5t-48 -46t-12 -64q0 -66 28 -93.5t103 -27.5q50 0 87 14.5t57.5 41.5t20.5 61v377q0 100 -43 147t-147 47q-58 0 -96 -3t-67 -9l63 83q-9 -40 -18.5 -74.5t-19 -65.5t-21.5 -61q-17 -46 -54.5 -60t-107.5 -14
q-73 0 -107.5 25t-34.5 65t42 87.5t120.5 90t188.5 69.5t247 27q159 0 253.5 -42t136 -121.5t41.5 -192.5v-448q0 -32 10 -51t29 -27t49 -8q17 0 37 2t45 7v-123q-60 -38 -131 -61t-146 -23q-80 0 -135.5 31.5t-85.5 99t-37 176.5l13 11q-25 -116 -70 -186.5t-114 -101.5
t-168 -31q-164 0 -251 72.5t-87 216.5q0 76 27.5 135.5t104.5 105.5t222.5 82t380.5 65zM305 1335h-186l-266 211v56h341zM674 1317l-200 -179h-236l260 326h276l260 -326h-236l-200 179h76z" />
    <glyph glyph-name="uni1EA8" unicode="&#x1ea8;" horiz-adv-x="1851" 
d="M447 404v227h743v-227h-743zM1658 176l185 -51v-125h-809v125l170 38l-404 1087h40l-381 -1083l167 -42v-125h-610v125l168 38l480 1258h507zM948 1723l-200 -179h-236l260 326h276l260 -326h-236l-200 179h76zM1249 1813q73 14 94.5 31.5t21.5 46.5q0 19 -15.5 35.5
t-68.5 26t-166 6.5l5 176q150 0 241 -11.5t137.5 -34t62.5 -57t16 -79.5q0 -56 -25.5 -102.5t-93 -81t-192.5 -55.5z" />
    <glyph glyph-name="uni1EA9" unicode="&#x1ea9;" horiz-adv-x="1314" 
d="M822 651l-17 -146q-114 -11 -183 -25.5t-105 -33.5t-48 -46t-12 -64q0 -66 28 -93.5t103 -27.5q50 0 87 14.5t57.5 41.5t20.5 61v377q0 100 -43 147t-147 47q-58 0 -96 -3t-67 -9l63 83q-9 -40 -18.5 -74.5t-19 -65.5t-21.5 -61q-17 -46 -54.5 -60t-107.5 -14
q-73 0 -107.5 25t-34.5 65t42 87.5t120.5 90t188.5 69.5t247 27q159 0 253.5 -42t136 -121.5t41.5 -192.5v-448q0 -32 10 -51t29 -27t49 -8q17 0 37 2t45 7v-123q-60 -38 -131 -61t-146 -23q-80 0 -135.5 31.5t-85.5 99t-37 176.5l13 11q-25 -116 -70 -186.5t-114 -101.5
t-168 -31q-164 0 -251 72.5t-87 216.5q0 76 27.5 135.5t104.5 105.5t222.5 82t380.5 65zM674 1317l-200 -179h-236l260 326h276l260 -326h-236l-200 179h76zM975 1407q73 14 94.5 31.5t21.5 46.5q0 19 -15.5 35.5t-68.5 26t-166 6.5l5 176q150 0 241 -11.5t137.5 -34
t62.5 -57t16 -79.5q0 -56 -25.5 -102.5t-93 -81t-192.5 -55.5z" />
    <glyph glyph-name="uni1EAA" unicode="&#x1eaa;" horiz-adv-x="1851" 
d="M447 404v227h743v-227h-743zM1658 176l185 -51v-125h-809v125l170 38l-404 1087h40l-381 -1083l167 -42v-125h-610v125l168 38l480 1258h507zM960 1663l-215 -150h-204l203 235h332l203 -235h-204l-217 150h102zM724 1796h-158q7 83 27 128t62 63t114 18q36 0 71.5 -10.5
t68 -24.5t61.5 -24.5t51 -10.5q37 0 53 12.5t22 56.5h158q-6 -83 -26 -128t-62 -63t-115 -18q-36 0 -71.5 10.5t-68 24.5t-61.5 24.5t-51 10.5q-36 0 -52 -12.5t-23 -56.5z" />
    <glyph glyph-name="uni1EAB" unicode="&#x1eab;" horiz-adv-x="1314" 
d="M822 651l-17 -146q-114 -11 -183 -25.5t-105 -33.5t-48 -46t-12 -64q0 -66 28 -93.5t103 -27.5q50 0 87 14.5t57.5 41.5t20.5 61v377q0 100 -43 147t-147 47q-58 0 -96 -3t-67 -9l63 83q-9 -40 -18.5 -74.5t-19 -65.5t-21.5 -61q-17 -46 -54.5 -60t-107.5 -14
q-73 0 -107.5 25t-34.5 65t42 87.5t120.5 90t188.5 69.5t247 27q159 0 253.5 -42t136 -121.5t41.5 -192.5v-448q0 -32 10 -51t29 -27t49 -8q17 0 37 2t45 7v-123q-60 -38 -131 -61t-146 -23q-80 0 -135.5 31.5t-85.5 99t-37 176.5l13 11q-25 -116 -70 -186.5t-114 -101.5
t-168 -31q-164 0 -251 72.5t-87 216.5q0 76 27.5 135.5t104.5 105.5t222.5 82t380.5 65zM686 1257l-215 -150h-204l203 235h332l203 -235h-204l-217 150h102zM450 1390h-158q7 83 27 128t62 63t114 18q36 0 71.5 -10.5t68 -24.5t61.5 -24.5t51 -10.5q37 0 53 12.5t22 56.5
h158q-6 -83 -26 -128t-62 -63t-115 -18q-36 0 -71.5 10.5t-68 24.5t-61.5 24.5t-51 10.5q-36 0 -52 -12.5t-23 -56.5z" />
    <glyph glyph-name="uni1EAC" unicode="&#x1eac;" horiz-adv-x="1851" 
d="M447 404v227h743v-227h-743zM1658 176l185 -51v-125h-809v125l170 38l-404 1087h40l-381 -1083l167 -42v-125h-610v125l168 38l480 1258h507zM872 1723h76l-200 -179h-236l260 326h276l260 -326h-236zM843 -361q-101 0 -149 37t-48 109t48 106.5t149 34.5
q102 0 149.5 -34.5t47.5 -106.5t-47.5 -109t-149.5 -37z" />
    <glyph glyph-name="uni1EAD" unicode="&#x1ead;" horiz-adv-x="1314" 
d="M822 651l-17 -146q-114 -11 -183 -25.5t-105 -33.5t-48 -46t-12 -64q0 -66 28 -93.5t103 -27.5q50 0 87 14.5t57.5 41.5t20.5 61v377q0 100 -43 147t-147 47q-58 0 -96 -3t-67 -9l63 83q-9 -40 -18.5 -74.5t-19 -65.5t-21.5 -61q-17 -46 -54.5 -60t-107.5 -14
q-73 0 -107.5 25t-34.5 65t42 87.5t120.5 90t188.5 69.5t247 27q159 0 253.5 -42t136 -121.5t41.5 -192.5v-448q0 -32 10 -51t29 -27t49 -8q17 0 37 2t45 7v-123q-60 -38 -131 -61t-146 -23q-80 0 -135.5 31.5t-85.5 99t-37 176.5l13 11q-25 -116 -70 -186.5t-114 -101.5
t-168 -31q-164 0 -251 72.5t-87 216.5q0 76 27.5 135.5t104.5 105.5t222.5 82t380.5 65zM238 1138l260 326h276l260 -326h-236l-200 179h76l-200 -179h-236zM657 -361q-101 0 -149 37t-48 109t48 106.5t149 34.5q102 0 149.5 -34.5t47.5 -106.5t-47.5 -109t-149.5 -37z" />
    <glyph glyph-name="uni1EAE" unicode="&#x1eae;" horiz-adv-x="1851" 
d="M447 404v227h743v-227h-743zM1658 176l185 -51v-125h-809v125l170 38l-404 1087h40l-381 -1083l167 -42v-125h-610v125l168 38l480 1258h507zM849 1721l113 283h265v-38l-247 -245h-131zM910 1649q89 0 131.5 21.5t56.5 71.5h156q-16 -94 -58.5 -144.5t-113 -68.5
t-172.5 -18t-172.5 18t-112.5 68.5t-59 144.5h156q14 -51 56.5 -72t131.5 -21z" />
    <glyph glyph-name="uni1EAF" unicode="&#x1eaf;" horiz-adv-x="1314" 
d="M822 651l-17 -146q-114 -11 -183 -25.5t-105 -33.5t-48 -46t-12 -64q0 -66 28 -93.5t103 -27.5q50 0 87 14.5t57.5 41.5t20.5 61v377q0 100 -43 147t-147 47q-58 0 -96 -3t-67 -9l63 83q-9 -40 -18.5 -74.5t-19 -65.5t-21.5 -61q-17 -46 -54.5 -60t-107.5 -14
q-73 0 -107.5 25t-34.5 65t42 87.5t120.5 90t188.5 69.5t247 27q159 0 253.5 -42t136 -121.5t41.5 -192.5v-448q0 -32 10 -51t29 -27t49 -8q17 0 37 2t45 7v-123q-60 -38 -131 -61t-146 -23q-80 0 -135.5 31.5t-85.5 99t-37 176.5l13 11q-25 -116 -70 -186.5t-114 -101.5
t-168 -31q-164 0 -251 72.5t-87 216.5q0 76 27.5 135.5t104.5 105.5t222.5 82t380.5 65zM575 1315l113 283h265v-38l-247 -245h-131zM636 1243q89 0 131.5 21.5t56.5 71.5h156q-16 -94 -58.5 -144.5t-113 -68.5t-172.5 -18t-172.5 18t-112.5 68.5t-59 144.5h156
q14 -51 56.5 -72t131.5 -21z" />
    <glyph glyph-name="uni1EB0" unicode="&#x1eb0;" horiz-adv-x="1851" 
d="M447 404v227h743v-227h-743zM1658 176l185 -51v-125h-809v125l170 38l-404 1087h40l-381 -1083l167 -42v-125h-610v125l168 38l480 1258h507zM971 1721h-131l-247 245v38h265zM910 1649q89 0 131.5 21t56.5 72h156q-16 -94 -58.5 -144.5t-113 -68.5t-172.5 -18t-172.5 18
t-112.5 68.5t-59 144.5h156q14 -50 56.5 -71.5t131.5 -21.5z" />
    <glyph glyph-name="uni1EB1" unicode="&#x1eb1;" horiz-adv-x="1314" 
d="M822 651l-17 -146q-114 -11 -183 -25.5t-105 -33.5t-48 -46t-12 -64q0 -66 28 -93.5t103 -27.5q50 0 87 14.5t57.5 41.5t20.5 61v377q0 100 -43 147t-147 47q-58 0 -96 -3t-67 -9l63 83q-9 -40 -18.5 -74.5t-19 -65.5t-21.5 -61q-17 -46 -54.5 -60t-107.5 -14
q-73 0 -107.5 25t-34.5 65t42 87.5t120.5 90t188.5 69.5t247 27q159 0 253.5 -42t136 -121.5t41.5 -192.5v-448q0 -32 10 -51t29 -27t49 -8q17 0 37 2t45 7v-123q-60 -38 -131 -61t-146 -23q-80 0 -135.5 31.5t-85.5 99t-37 176.5l13 11q-25 -116 -70 -186.5t-114 -101.5
t-168 -31q-164 0 -251 72.5t-87 216.5q0 76 27.5 135.5t104.5 105.5t222.5 82t380.5 65zM697 1315h-131l-247 245v38h265zM636 1243q89 0 131.5 21t56.5 72h156q-16 -94 -58.5 -144.5t-113 -68.5t-172.5 -18t-172.5 18t-112.5 68.5t-59 144.5h156q14 -50 56.5 -71.5
t131.5 -21.5z" />
    <glyph glyph-name="uni1EB2" unicode="&#x1eb2;" horiz-adv-x="1851" 
d="M447 404v227h743v-227h-743zM1658 176l185 -51v-125h-809v125l170 38l-404 1087h40l-381 -1083l167 -42v-125h-610v125l168 38l480 1258h507zM910 1649q89 0 131.5 21.5t56.5 71.5h156q-16 -94 -58.5 -144.5t-113 -68.5t-172.5 -18t-172.5 18t-112.5 68.5t-59 144.5h156
q14 -51 56.5 -72t131.5 -21zM854 1813q83 11 108 23.5t25 32.5q0 17 -13 26.5t-55 14.5t-131 5l10 141q124 -2 195.5 -20.5t102.5 -52.5t31 -85q0 -53 -25 -89t-81.5 -57.5t-151.5 -32.5z" />
    <glyph glyph-name="uni1EB3" unicode="&#x1eb3;" horiz-adv-x="1314" 
d="M822 651l-17 -146q-114 -11 -183 -25.5t-105 -33.5t-48 -46t-12 -64q0 -66 28 -93.5t103 -27.5q50 0 87 14.5t57.5 41.5t20.5 61v377q0 100 -43 147t-147 47q-58 0 -96 -3t-67 -9l63 83q-9 -40 -18.5 -74.5t-19 -65.5t-21.5 -61q-17 -46 -54.5 -60t-107.5 -14
q-73 0 -107.5 25t-34.5 65t42 87.5t120.5 90t188.5 69.5t247 27q159 0 253.5 -42t136 -121.5t41.5 -192.5v-448q0 -32 10 -51t29 -27t49 -8q17 0 37 2t45 7v-123q-60 -38 -131 -61t-146 -23q-80 0 -135.5 31.5t-85.5 99t-37 176.5l13 11q-25 -116 -70 -186.5t-114 -101.5
t-168 -31q-164 0 -251 72.5t-87 216.5q0 76 27.5 135.5t104.5 105.5t222.5 82t380.5 65zM595 1313l-15 94q83 11 108 23.5t25 32.5q0 17 -13 26.5t-55 14.5t-131 5l10 141q124 -2 195.5 -20.5t102.5 -52.5t31 -85q0 -53 -25 -89t-81.5 -57.5t-151.5 -32.5zM636 1243
q89 0 131.5 21.5t56.5 71.5h156q-16 -94 -58.5 -144.5t-113 -68.5t-172.5 -18t-172.5 18t-112.5 68.5t-59 144.5h156q14 -51 56.5 -72t131.5 -21z" />
    <glyph glyph-name="uni1EB4" unicode="&#x1eb4;" horiz-adv-x="1851" 
d="M447 404v227h743v-227h-743zM1658 176l185 -51v-125h-809v125l170 38l-404 1087h40l-381 -1083l167 -42v-125h-610v125l168 38l480 1258h507zM910 1649q89 0 131.5 21.5t56.5 71.5h156q-16 -94 -58.5 -144.5t-113 -68.5t-172.5 -18t-172.5 18t-112.5 68.5t-59 144.5h156
q14 -51 56.5 -72t131.5 -21zM724 1796h-158q7 83 27 128t62 63t114 18q36 0 71.5 -10.5t68 -24.5t61.5 -24.5t51 -10.5q37 0 53 12.5t22 56.5h158q-6 -83 -26 -128t-62 -63t-115 -18q-36 0 -71.5 10.5t-68 24.5t-61.5 24.5t-51 10.5q-36 0 -52 -12.5t-23 -56.5z" />
    <glyph glyph-name="uni1EB5" unicode="&#x1eb5;" horiz-adv-x="1314" 
d="M822 651l-17 -146q-114 -11 -183 -25.5t-105 -33.5t-48 -46t-12 -64q0 -66 28 -93.5t103 -27.5q50 0 87 14.5t57.5 41.5t20.5 61v377q0 100 -43 147t-147 47q-58 0 -96 -3t-67 -9l63 83q-9 -40 -18.5 -74.5t-19 -65.5t-21.5 -61q-17 -46 -54.5 -60t-107.5 -14
q-73 0 -107.5 25t-34.5 65t42 87.5t120.5 90t188.5 69.5t247 27q159 0 253.5 -42t136 -121.5t41.5 -192.5v-448q0 -32 10 -51t29 -27t49 -8q17 0 37 2t45 7v-123q-60 -38 -131 -61t-146 -23q-80 0 -135.5 31.5t-85.5 99t-37 176.5l13 11q-25 -116 -70 -186.5t-114 -101.5
t-168 -31q-164 0 -251 72.5t-87 216.5q0 76 27.5 135.5t104.5 105.5t222.5 82t380.5 65zM450 1390h-158q7 83 27 128t62 63t114 18q36 0 73 -10.5t71.5 -24t63.5 -23.5t49 -10q33 0 48.5 12.5t21.5 54.5h158q-6 -83 -26 -128t-62 -63t-115 -18q-36 0 -73 10.5t-71.5 24
t-63.5 23.5t-49 10q-33 0 -48 -12.5t-22 -54.5zM636 1243q89 0 131.5 21.5t56.5 71.5h156q-16 -94 -58.5 -144.5t-113 -68.5t-172.5 -18t-172.5 18t-112.5 68.5t-59 144.5h156q14 -51 56.5 -72t131.5 -21z" />
    <glyph glyph-name="uni1EB6" unicode="&#x1eb6;" horiz-adv-x="1851" 
d="M447 404v227h743v-227h-743zM1658 176l185 -51v-125h-809v125l170 38l-404 1087h40l-381 -1083l167 -42v-125h-610v125l168 38l480 1258h507zM910 1740q89 0 130.5 28.5t61.5 101.5h159q-16 -128 -56.5 -199t-112 -100t-182.5 -29q-110 0 -182 29t-112 100t-57 199h159
q20 -73 62 -101.5t130 -28.5zM843 -361q-101 0 -149 37t-48 109t48 106.5t149 34.5q102 0 149.5 -34.5t47.5 -106.5t-47.5 -109t-149.5 -37z" />
    <glyph glyph-name="uni1EB7" unicode="&#x1eb7;" horiz-adv-x="1314" 
d="M822 651l-17 -146q-114 -11 -183 -25.5t-105 -33.5t-48 -46t-12 -64q0 -66 28 -93.5t103 -27.5q50 0 87 14.5t57.5 41.5t20.5 61v377q0 100 -43 147t-147 47q-58 0 -96 -3t-67 -9l63 83q-9 -40 -18.5 -74.5t-19 -65.5t-21.5 -61q-17 -46 -54.5 -60t-107.5 -14
q-73 0 -107.5 25t-34.5 65t42 87.5t120.5 90t188.5 69.5t247 27q159 0 253.5 -42t136 -121.5t41.5 -192.5v-448q0 -32 10 -51t29 -27t49 -8q17 0 37 2t45 7v-123q-60 -38 -131 -61t-146 -23q-80 0 -135.5 31.5t-85.5 99t-37 176.5l13 11q-25 -116 -70 -186.5t-114 -101.5
t-168 -31q-164 0 -251 72.5t-87 216.5q0 76 27.5 135.5t104.5 105.5t222.5 82t380.5 65zM636 1334q59 0 96.5 12t60 40.5t35.5 77.5h159q-16 -128 -56.5 -199t-112 -100t-182.5 -29q-110 0 -182 29t-112 100t-57 199h159q14 -49 36 -77.5t59.5 -40.5t96.5 -12zM657 -361
q-101 0 -149 37t-48 109t48 106.5t149 34.5q102 0 149.5 -34.5t47.5 -106.5t-47.5 -109t-149.5 -37z" />
    <glyph glyph-name="uni1EB8" unicode="&#x1eb8;" horiz-adv-x="1642" 
d="M1146 990v-255v-255h-166l-17 159h-468v196h468l17 155h166zM1507 981h-181l-127 352l127 -140h-831v221h769l112 88h131v-521zM1174 84l203 415h187l-94 -591h-151l-82 92h-742v221h792zM100 0v125l177 48v1068l-177 48v125h603v-1414h-603zM824 -361q-101 0 -149 37
t-48 109t48 106.5t149 34.5q102 0 149.5 -34.5t47.5 -106.5t-47.5 -109t-149.5 -37z" />
    <glyph glyph-name="uni1EB9" unicode="&#x1eb9;" horiz-adv-x="1233" 
d="M640 1063q175 0 285 -59.5t164.5 -187.5t60.5 -332h-802l-2 151h524l-75 -58q2 120 -16.5 182.5t-58 85.5t-99.5 23q-64 0 -105 -25.5t-61.5 -85.5t-20.5 -166q0 -136 33 -213t107.5 -109.5t198.5 -32.5q69 0 129.5 6t115 16t106.5 23v-128q-99 -64 -183 -103.5
t-155 -57.5t-134 -18q-180 0 -306 60t-193 177.5t-67 290.5t64.5 299t188.5 194t301 68zM647 -361q-101 0 -149 37t-48 109t48 106.5t149 34.5q102 0 149.5 -34.5t47.5 -106.5t-47.5 -109t-149.5 -37z" />
    <glyph glyph-name="uni1EBA" unicode="&#x1eba;" horiz-adv-x="1642" 
d="M1146 990v-255v-255h-166l-17 159h-468v196h468l17 155h166zM1507 981h-181l-127 352l127 -140h-831v221h769l112 88h131v-521zM1174 84l203 415h187l-94 -591h-151l-82 92h-742v221h792zM100 0v125l177 48v1068l-177 48v125h603v-1414h-603zM619 1747l5 177
q152 0 244.5 -10.5t140 -32t64 -54t16.5 -75.5q0 -52 -29.5 -95.5t-104 -76t-211.5 -53.5l-18 94q66 11 98.5 21.5t42 23t9.5 28.5q0 20 -16 32.5t-71 18t-170 2.5z" />
    <glyph glyph-name="uni1EBB" unicode="&#x1ebb;" horiz-adv-x="1233" 
d="M640 1063q175 0 285 -59.5t164.5 -187.5t60.5 -332h-802l-2 151h524l-75 -58q2 120 -16.5 182.5t-58 85.5t-99.5 23q-64 0 -105 -25.5t-61.5 -85.5t-20.5 -166q0 -136 33 -213t107.5 -109.5t198.5 -32.5q69 0 129.5 6t115 16t106.5 23v-128q-99 -64 -183 -103.5
t-155 -57.5t-134 -18q-180 0 -306 60t-193 177.5t-67 290.5t64.5 299t188.5 194t301 68zM422 1341l5 177q152 0 244.5 -10.5t140 -32t64 -54t16.5 -75.5q0 -52 -29.5 -95.5t-104 -76t-211.5 -53.5l-18 94q66 11 98.5 21.5t42 23t9.5 28.5q0 20 -16 32.5t-71 18t-170 2.5z
" />
    <glyph glyph-name="uni1EBC" unicode="&#x1ebc;" horiz-adv-x="1642" 
d="M1146 990v-255v-255h-166l-17 159h-468v196h468l17 155h166zM1507 981h-181l-127 352l127 -140h-831v221h769l112 88h131v-521zM1174 84l203 415h187l-94 -591h-151l-82 92h-742v221h792zM100 0v125l177 48v1068l-177 48v125h603v-1414h-603zM1196 1865
q-12 -132 -38 -200.5t-70.5 -93t-110.5 -24.5q-44 0 -80.5 16.5t-68.5 38t-60.5 38t-54.5 16.5q-22 0 -36 -8.5t-22.5 -31.5t-15.5 -67h-177q12 132 38 200.5t70.5 93t110.5 24.5q44 0 80.5 -16.5t68.5 -38t60.5 -38t54.5 -16.5q23 0 36.5 8.5t22 32t14.5 66.5h178z" />
    <glyph glyph-name="uni1EBD" unicode="&#x1ebd;" horiz-adv-x="1233" 
d="M640 1063q175 0 285 -59.5t164.5 -187.5t60.5 -332h-802l-2 151h524l-75 -58q2 120 -16.5 182.5t-58 85.5t-99.5 23q-64 0 -105 -25.5t-61.5 -85.5t-20.5 -166q0 -136 33 -213t107.5 -109.5t198.5 -32.5q69 0 129.5 6t115 16t106.5 23v-128q-99 -64 -183 -103.5
t-155 -57.5t-134 -18q-180 0 -306 60t-193 177.5t-67 290.5t64.5 299t188.5 194t301 68zM994 1459q-12 -132 -38 -200.5t-70.5 -93t-110.5 -24.5q-44 0 -79 16.5t-65 38t-57 38t-53 16.5q-22 0 -36 -8.5t-22.5 -31.5t-15.5 -67h-177q12 132 38 200.5t70.5 93t110.5 24.5
q44 0 79 -16.5t65 -38t57 -38t53 -16.5q23 0 36.5 8.5t22 32t15.5 66.5h177z" />
    <glyph glyph-name="uni1EBE" unicode="&#x1ebe;" horiz-adv-x="1642" 
d="M1146 990v-255v-255h-166l-17 159h-468v196h468l17 155h166zM1507 981h-181l-127 352l127 -140h-831v221h769l112 88h131v-521zM1174 84l203 415h187l-94 -591h-151l-82 92h-742v221h792zM100 0v125l177 48v1068l-177 48v125h603v-1414h-603zM1162 1741l111 267h341v-56
l-266 -211h-186zM793 1723h76l-200 -179h-236l260 326h276l260 -326h-236z" />
    <glyph glyph-name="uni1EBF" unicode="&#x1ebf;" horiz-adv-x="1233" 
d="M640 1063q175 0 285 -59.5t164.5 -187.5t60.5 -332h-802l-2 151h524l-75 -58q2 120 -16.5 182.5t-58 85.5t-99.5 23q-64 0 -105 -25.5t-61.5 -85.5t-20.5 -166q0 -136 33 -213t107.5 -109.5t198.5 -32.5q69 0 129.5 6t115 16t106.5 23v-128q-99 -64 -183 -103.5
t-155 -57.5t-134 -18q-180 0 -306 60t-193 177.5t-67 290.5t64.5 299t188.5 194t301 68zM965 1335l111 267h341v-56l-266 -211h-186zM596 1317h76l-200 -179h-236l260 326h276l260 -326h-236z" />
    <glyph glyph-name="uni1EC0" unicode="&#x1ec0;" horiz-adv-x="1642" 
d="M1146 990v-255v-255h-166l-17 159h-468v196h468l17 155h166zM1507 981h-181l-127 352l127 -140h-831v221h769l112 88h131v-521zM1174 84l203 415h187l-94 -591h-151l-82 92h-742v221h792zM100 0v125l177 48v1068l-177 48v125h603v-1414h-603zM500 1741h-186l-266 211v56
h341zM869 1723l-200 -179h-236l260 326h276l260 -326h-236l-200 179h76z" />
    <glyph glyph-name="uni1EC1" unicode="&#x1ec1;" horiz-adv-x="1233" 
d="M640 1063q175 0 285 -59.5t164.5 -187.5t60.5 -332h-802l-2 151h524l-75 -58q2 120 -16.5 182.5t-58 85.5t-99.5 23q-64 0 -105 -25.5t-61.5 -85.5t-20.5 -166q0 -136 33 -213t107.5 -109.5t198.5 -32.5q69 0 129.5 6t115 16t106.5 23v-128q-99 -64 -183 -103.5
t-155 -57.5t-134 -18q-180 0 -306 60t-193 177.5t-67 290.5t64.5 299t188.5 194t301 68zM303 1335h-186l-266 211v56h341zM672 1317l-200 -179h-236l260 326h276l260 -326h-236l-200 179h76z" />
    <glyph glyph-name="uni1EC2" unicode="&#x1ec2;" horiz-adv-x="1642" 
d="M1146 990v-255v-255h-166l-17 159h-468v196h468l17 155h166zM1507 981h-181l-127 352l127 -140h-831v221h769l112 88h131v-521zM1174 84l203 415h187l-94 -591h-151l-82 92h-742v221h792zM100 0v125l177 48v1068l-177 48v125h603v-1414h-603zM869 1723l-200 -179h-236
l260 326h276l260 -326h-236l-200 179h76zM1170 1813q73 14 94.5 31.5t21.5 46.5q0 19 -15.5 35.5t-68.5 26t-166 6.5l5 176q150 0 241 -11.5t137.5 -34t62.5 -57t16 -79.5q0 -56 -25.5 -102.5t-93 -81t-192.5 -55.5z" />
    <glyph glyph-name="uni1EC3" unicode="&#x1ec3;" horiz-adv-x="1233" 
d="M640 1063q175 0 285 -59.5t164.5 -187.5t60.5 -332h-802l-2 151h524l-75 -58q2 120 -16.5 182.5t-58 85.5t-99.5 23q-64 0 -105 -25.5t-61.5 -85.5t-20.5 -166q0 -136 33 -213t107.5 -109.5t198.5 -32.5q69 0 129.5 6t115 16t106.5 23v-128q-99 -64 -183 -103.5
t-155 -57.5t-134 -18q-180 0 -306 60t-193 177.5t-67 290.5t64.5 299t188.5 194t301 68zM672 1317l-200 -179h-236l260 326h276l260 -326h-236l-200 179h76zM973 1407q73 14 94.5 31.5t21.5 46.5q0 19 -15.5 35.5t-68.5 26t-166 6.5l5 176q150 0 241 -11.5t137.5 -34
t62.5 -57t16 -79.5q0 -56 -25.5 -102.5t-93 -81t-192.5 -55.5z" />
    <glyph glyph-name="uni1EC4" unicode="&#x1ec4;" horiz-adv-x="1642" 
d="M1146 990v-255v-255h-166l-17 159h-468v196h468l17 155h166zM1507 981h-181l-127 352l127 -140h-831v221h769l112 88h131v-521zM1174 84l203 415h187l-94 -591h-151l-82 92h-742v221h792zM100 0v125l177 48v1068l-177 48v125h603v-1414h-603zM881 1663l-215 -150h-204
l203 235h332l203 -235h-204l-217 150h102zM645 1796h-158q7 83 27 128t62 63t114 18q36 0 71.5 -10.5t68 -24.5t61.5 -24.5t51 -10.5q37 0 53 12.5t22 56.5h158q-6 -83 -26 -128t-62 -63t-115 -18q-36 0 -71.5 10.5t-68 24.5t-61.5 24.5t-51 10.5q-36 0 -52 -12.5t-23 -56.5
z" />
    <glyph glyph-name="uni1EC5" unicode="&#x1ec5;" horiz-adv-x="1233" 
d="M640 1063q175 0 285 -59.5t164.5 -187.5t60.5 -332h-802l-2 151h524l-75 -58q2 120 -16.5 182.5t-58 85.5t-99.5 23q-64 0 -105 -25.5t-61.5 -85.5t-20.5 -166q0 -136 33 -213t107.5 -109.5t198.5 -32.5q69 0 129.5 6t115 16t106.5 23v-128q-99 -64 -183 -103.5
t-155 -57.5t-134 -18q-180 0 -306 60t-193 177.5t-67 290.5t64.5 299t188.5 194t301 68zM684 1257l-215 -150h-204l203 235h332l203 -235h-204l-217 150h102zM448 1390h-158q7 83 27 128t62 63t114 18q36 0 71.5 -10.5t68 -24.5t61.5 -24.5t51 -10.5q37 0 53 12.5t22 56.5
h158q-6 -83 -26 -128t-62 -63t-115 -18q-36 0 -71.5 10.5t-68 24.5t-61.5 24.5t-51 10.5q-36 0 -52 -12.5t-23 -56.5z" />
    <glyph glyph-name="uni1EC6" unicode="&#x1ec6;" horiz-adv-x="1642" 
d="M1146 990v-255v-255h-166l-17 159h-468v196h468l17 155h166zM1507 981h-181l-127 352l127 -140h-831v221h769l112 88h131v-521zM1174 84l203 415h187l-94 -591h-151l-82 92h-742v221h792zM100 0v125l177 48v1068l-177 48v125h603v-1414h-603zM793 1723h76l-200 -179h-236
l260 326h276l260 -326h-236zM824 -361q-101 0 -149 37t-48 109t48 106.5t149 34.5q102 0 149.5 -34.5t47.5 -106.5t-47.5 -109t-149.5 -37z" />
    <glyph glyph-name="uni1EC7" unicode="&#x1ec7;" horiz-adv-x="1233" 
d="M640 1063q175 0 285 -59.5t164.5 -187.5t60.5 -332h-802l-2 151h524l-75 -58q2 120 -16.5 182.5t-58 85.5t-99.5 23q-64 0 -105 -25.5t-61.5 -85.5t-20.5 -166q0 -136 33 -213t107.5 -109.5t198.5 -32.5q69 0 129.5 6t115 16t106.5 23v-128q-99 -64 -183 -103.5
t-155 -57.5t-134 -18q-180 0 -306 60t-193 177.5t-67 290.5t64.5 299t188.5 194t301 68zM236 1138l260 326h276l260 -326h-236l-200 179h76l-200 -179h-236zM647 -361q-101 0 -149 37t-48 109t48 106.5t149 34.5q102 0 149.5 -34.5t47.5 -106.5t-47.5 -109t-149.5 -37z" />
    <glyph glyph-name="uni1EC8" unicode="&#x1ec8;" horiz-adv-x="980" 
d="M881 126v-126h-781v125l177 48v1068l-177 47v126h781v-125l-178 -48v-1068zM278 1747l5 177q152 0 244.5 -10.5t140 -32t64 -54t16.5 -75.5q0 -52 -29.5 -95.5t-104 -76t-211.5 -53.5l-18 94q66 11 98.5 21.5t42 23t9.5 28.5q0 20 -16 32.5t-71 18t-170 2.5z" />
    </font>
</defs>
</svg>
